<ttFont>
    <TTGlyph name=".notdef" xMin="50" yMin="-94" xMax="448" yMax="727">
      <contour>
        <pt x="50" y="-94" on="1"/>
        <pt x="50" y="727" on="1"/>
        <pt x="448" y="727" on="1"/>
        <pt x="448" y="-94" on="1"/>
      </contour>
      <contour>
        <pt x="107" y="62" on="0"/>
        <pt x="101" y="53" on="0"/>
        <pt x="101" y="46" on="0"/>
        <pt x="110" y="35" on="0"/>
        <pt x="127" y="19" on="0"/>
        <pt x="134" y="11" on="0"/>
        <pt x="141" y="2" on="0"/>
        <pt x="144" y="-2" on="0"/>
        <pt x="151" y="-8" on="0"/>
        <pt x="155" y="-12" on="0"/>
        <pt x="161" y="-14" on="0"/>
        <pt x="167" y="-14" on="0"/>
        <pt x="201" y="20" on="0"/>
        <pt x="216" y="32" on="0"/>
        <pt x="220" y="36" on="1"/>
        <pt x="230" y="46" on="0"/>
        <pt x="230" y="59" on="0"/>
        <pt x="204" y="87" on="0"/>
        <pt x="195" y="99" on="0"/>
        <pt x="190" y="105" on="0"/>
        <pt x="187" y="108" on="1"/>
        <pt x="182" y="114" on="0"/>
        <pt x="170" y="114" on="0"/>
        <pt x="160" y="107" on="0"/>
        <pt x="152" y="98" on="1"/>
        <pt x="141" y="87" on="0"/>
        <pt x="117" y="71" on="0"/>
      </contour>
      <contour>
        <pt x="200" y="204" on="1"/>
        <pt x="197" y="237" on="1"/>
        <pt x="197" y="274" on="0"/>
        <pt x="222" y="311" on="1"/>
        <pt x="230" y="323" on="0"/>
        <pt x="239" y="338" on="0"/>
        <pt x="262" y="367" on="0"/>
        <pt x="268" y="375" on="1"/>
        <pt x="288" y="399" on="0"/>
        <pt x="314" y="431" on="0"/>
        <pt x="333" y="453" on="0"/>
        <pt x="346" y="471" on="0"/>
        <pt x="354" y="485" on="1"/>
        <pt x="372" y="514" on="0"/>
        <pt x="372" y="548" on="1"/>
        <pt x="372" y="600" on="0"/>
        <pt x="294" y="667" on="0"/>
        <pt x="209" y="667" on="0"/>
        <pt x="145" y="622" on="0"/>
        <pt x="145" y="608" on="1"/>
        <pt x="145" y="602" on="0"/>
        <pt x="159" y="602" on="0"/>
        <pt x="198" y="621" on="0"/>
        <pt x="245" y="621" on="0"/>
        <pt x="297" y="576" on="0"/>
        <pt x="297" y="524" on="0"/>
        <pt x="256" y="447" on="0"/>
        <pt x="207" y="374" on="0"/>
        <pt x="166" y="288" on="0"/>
        <pt x="166" y="259" on="1"/>
        <pt x="166" y="194" on="0"/>
        <pt x="190" y="194" on="1"/>
        <pt x="200" y="194" on="0"/>
      </contour>
    </TTGlyph>
    <TTGlyph name="A" xMin="20" yMin="-4" xMax="752" yMax="718">
      <contour>
        <pt x="115" y="0" on="1"/>
        <pt x="40" y="-2" on="1"/>
        <pt x="20" y="-2" on="0"/>
        <pt x="20" y="9" on="1"/>
        <pt x="20" y="22" on="0"/>
        <pt x="45" y="30" on="1"/>
        <pt x="75" y="42" on="0"/>
        <pt x="90" y="65" on="1"/>
        <pt x="114" y="104" on="0"/>
        <pt x="146" y="164" on="0"/>
        <pt x="182" y="228" on="0"/>
        <pt x="238" y="331" on="0"/>
        <pt x="270" y="388" on="1"/>
        <pt x="448" y="708" on="0"/>
        <pt x="460" y="718" on="0"/>
        <pt x="476" y="718" on="0"/>
        <pt x="483" y="704" on="0"/>
        <pt x="499" y="648" on="0"/>
        <pt x="502" y="637" on="1"/>
        <pt x="511" y="604" on="1"/>
        <pt x="529" y="538" on="0"/>
        <pt x="666" y="119" on="0"/>
        <pt x="689" y="58" on="0"/>
        <pt x="707" y="37" on="0"/>
        <pt x="736" y="28" on="1"/>
        <pt x="752" y="23" on="0"/>
        <pt x="752" y="8" on="1"/>
        <pt x="752" y="-2" on="0"/>
        <pt x="721" y="-2" on="1"/>
        <pt x="656" y="1" on="1"/>
        <pt x="563" y="-4" on="1"/>
        <pt x="536" y="-4" on="0"/>
        <pt x="536" y="16" on="0"/>
        <pt x="557" y="28" on="0"/>
        <pt x="581" y="32" on="0"/>
        <pt x="602" y="50" on="0"/>
        <pt x="602" y="82" on="0"/>
        <pt x="586" y="145" on="0"/>
        <pt x="564" y="217" on="0"/>
        <pt x="560" y="234" on="1"/>
        <pt x="554" y="258" on="0"/>
        <pt x="524" y="258" on="1"/>
        <pt x="403" y="257" on="1"/>
        <pt x="327" y="257" on="0"/>
        <pt x="277" y="260" on="0"/>
        <pt x="269" y="260" on="1"/>
        <pt x="242" y="260" on="0"/>
        <pt x="234" y="245" on="1"/>
        <pt x="178" y="146" on="0"/>
        <pt x="149" y="72" on="0"/>
        <pt x="149" y="69" on="1"/>
        <pt x="149" y="44" on="0"/>
        <pt x="183" y="27" on="0"/>
        <pt x="217" y="22" on="0"/>
        <pt x="217" y="12" on="1"/>
        <pt x="217" y="-2" on="0"/>
        <pt x="208" y="-2" on="1"/>
        <pt x="202" y="-2" on="1"/>
      </contour>
      <contour>
        <pt x="321" y="304" on="1"/>
        <pt x="512" y="305" on="1"/>
        <pt x="526" y="305" on="0"/>
        <pt x="528" y="312" on="1"/>
        <pt x="528" y="315" on="0"/>
        <pt x="528" y="332" on="0"/>
        <pt x="441" y="596" on="0"/>
        <pt x="432" y="596" on="1"/>
        <pt x="427" y="596" on="0"/>
        <pt x="271" y="316" on="0"/>
        <pt x="271" y="304" on="0"/>
        <pt x="290" y="304" on="1"/>
      </contour>
    </TTGlyph>
    <TTGlyph name="AE" xMin="20" yMin="-10" xMax="1063" yMax="708">
      <contour>
        <pt x="106" y="0" on="1"/>
        <pt x="36" y="-2" on="1"/>
        <pt x="20" y="-2" on="0"/>
        <pt x="20" y="7" on="1"/>
        <pt x="20" y="19" on="0"/>
        <pt x="60" y="34" on="0"/>
        <pt x="76" y="44" on="0"/>
        <pt x="94" y="61" on="0"/>
        <pt x="123" y="99" on="0"/>
        <pt x="159" y="147" on="0"/>
        <pt x="226" y="238" on="0"/>
        <pt x="264" y="290" on="1"/>
        <pt x="387" y="456" on="0"/>
        <pt x="502" y="604" on="1"/>
        <pt x="541" y="654" on="1"/>
        <pt x="546" y="662" on="0"/>
        <pt x="546" y="667" on="1"/>
        <pt x="546" y="678" on="0"/>
        <pt x="485" y="680" on="0"/>
        <pt x="485" y="691" on="1"/>
        <pt x="485" y="705" on="0"/>
        <pt x="508" y="705" on="1"/>
        <pt x="616" y="705" on="1"/>
        <pt x="815" y="703" on="1"/>
        <pt x="815" y="703" on="0"/>
        <pt x="1046" y="708" on="1"/>
        <pt x="1063" y="708" on="0"/>
        <pt x="1063" y="688" on="1"/>
        <pt x="1060" y="636" on="1"/>
        <pt x="1063" y="582" on="1"/>
        <pt x="1063" y="572" on="0"/>
        <pt x="1056" y="553" on="0"/>
        <pt x="1050" y="553" on="1"/>
        <pt x="1035" y="553" on="0"/>
        <pt x="1035" y="577" on="1"/>
        <pt x="1035" y="621" on="0"/>
        <pt x="1002" y="641" on="1"/>
        <pt x="992" y="647" on="0"/>
        <pt x="942" y="661" on="0"/>
        <pt x="911" y="661" on="1"/>
        <pt x="756" y="664" on="1"/>
        <pt x="712" y="664" on="0"/>
        <pt x="694" y="645" on="0"/>
        <pt x="686" y="597" on="1"/>
        <pt x="661" y="422" on="0"/>
        <pt x="661" y="384" on="0"/>
        <pt x="675" y="379" on="0"/>
        <pt x="833" y="379" on="0"/>
        <pt x="895" y="388" on="0"/>
        <pt x="916" y="414" on="0"/>
        <pt x="927" y="435" on="0"/>
        <pt x="929" y="442" on="1"/>
        <pt x="933" y="456" on="0"/>
        <pt x="941" y="456" on="1"/>
        <pt x="954" y="456" on="0"/>
        <pt x="954" y="434" on="0"/>
        <pt x="937" y="358" on="0"/>
        <pt x="932" y="329" on="0"/>
        <pt x="932" y="301" on="1"/>
        <pt x="932" y="241" on="0"/>
        <pt x="916" y="241" on="1"/>
        <pt x="905" y="241" on="0"/>
        <pt x="905" y="258" on="1"/>
        <pt x="905" y="306" on="0"/>
        <pt x="888" y="318" on="1"/>
        <pt x="860" y="339" on="0"/>
        <pt x="781" y="339" on="1"/>
        <pt x="732" y="339" on="1"/>
        <pt x="701" y="340" on="1"/>
        <pt x="698" y="340" on="0"/>
        <pt x="695" y="340" on="1"/>
        <pt x="658" y="340" on="0"/>
        <pt x="657" y="322" on="1"/>
        <pt x="654" y="292" on="0"/>
        <pt x="644" y="232" on="1"/>
        <pt x="621" y="85" on="0"/>
        <pt x="621" y="74" on="1"/>
        <pt x="621" y="50" on="0"/>
        <pt x="668" y="38" on="0"/>
        <pt x="832" y="38" on="0"/>
        <pt x="951" y="69" on="0"/>
        <pt x="994" y="105" on="0"/>
        <pt x="1023" y="136" on="0"/>
        <pt x="1029" y="136" on="1"/>
        <pt x="1039" y="136" on="0"/>
        <pt x="1039" y="123" on="1"/>
        <pt x="1039" y="96" on="0"/>
        <pt x="954" y="-10" on="0"/>
        <pt x="922" y="-10" on="1"/>
        <pt x="850" y="-10" on="0"/>
        <pt x="636" y="0" on="0"/>
        <pt x="614" y="0" on="1"/>
        <pt x="501" y="-2" on="1"/>
        <pt x="466" y="-2" on="0"/>
        <pt x="466" y="12" on="1"/>
        <pt x="466" y="16" on="0"/>
        <pt x="478" y="25" on="0"/>
        <pt x="489" y="26" on="1"/>
        <pt x="526" y="28" on="0"/>
        <pt x="549" y="99" on="0"/>
        <pt x="572" y="252" on="1"/>
        <pt x="564" y="258" on="0"/>
        <pt x="551" y="258" on="1"/>
        <pt x="438" y="257" on="1"/>
        <pt x="367" y="257" on="0"/>
        <pt x="321" y="260" on="0"/>
        <pt x="314" y="260" on="1"/>
        <pt x="290" y="260" on="0"/>
        <pt x="279" y="245" on="1"/>
        <pt x="208" y="154" on="0"/>
        <pt x="160" y="72" on="0"/>
        <pt x="158" y="64" on="0"/>
        <pt x="158" y="56" on="1"/>
        <pt x="158" y="35" on="0"/>
        <pt x="209" y="23" on="0"/>
        <pt x="209" y="15" on="1"/>
        <pt x="209" y="4" on="0"/>
        <pt x="199" y="-2" on="0"/>
        <pt x="184" y="-2" on="1"/>
      </contour>
      <contour>
        <pt x="383" y="304" on="1"/>
        <pt x="580" y="305" on="1"/>
        <pt x="607" y="543" on="1"/>
        <pt x="609" y="565" on="0"/>
        <pt x="612" y="589" on="1"/>
        <pt x="619" y="634" on="0"/>
        <pt x="619" y="665" on="0"/>
        <pt x="606" y="665" on="1"/>
        <pt x="596" y="665" on="0"/>
        <pt x="574" y="639" on="1"/>
        <pt x="516" y="564" on="0"/>
        <pt x="329" y="315" on="0"/>
        <pt x="329" y="312" on="1"/>
        <pt x="329" y="304" on="0"/>
        <pt x="357" y="304" on="1"/>
      </contour>
    </TTGlyph>
    <TTGlyph name="Aacute" xMin="20" yMin="-4" xMax="752" yMax="924">
      <component glyphName="acutecomb" x="679" y="264" flags="0x1004"/>
      <component glyphName="A" x="0" y="0" flags="0x1004"/>
    </TTGlyph>
    <TTGlyph name="Abreve" xMin="20" yMin="-4" xMax="752" yMax="891">
      <component glyphName="uni0306" x="679" y="264" flags="0x1004"/>
      <component glyphName="A" x="0" y="0" flags="0x1004"/>
    </TTGlyph>
    <TTGlyph name="Acircumflex" xMin="20" yMin="-4" xMax="752" yMax="910">
      <component glyphName="uni0302" x="679" y="264" flags="0x1004"/>
      <component glyphName="A" x="0" y="0" flags="0x1004"/>
    </TTGlyph>
    <TTGlyph name="Adieresis" xMin="20" yMin="-4" xMax="752" yMax="904">
      <component glyphName="uni0308" x="679" y="264" flags="0x1004"/>
      <component glyphName="A" x="0" y="0" flags="0x1004"/>
    </TTGlyph>
    <TTGlyph name="Agrave" xMin="20" yMin="-4" xMax="752" yMax="924">
      <component glyphName="gravecomb" x="679" y="264" flags="0x1004"/>
      <component glyphName="A" x="0" y="0" flags="0x1004"/>
    </TTGlyph>
    <TTGlyph name="Amacron" xMin="20" yMin="-4" xMax="752" yMax="872">
      <component glyphName="uni0304" x="679" y="264" flags="0x1004"/>
      <component glyphName="A" x="0" y="0" flags="0x1004"/>
    </TTGlyph>
    <TTGlyph name="Aogonek" xMin="20" yMin="-195" xMax="752" yMax="718">
      <contour>
        <pt x="115" y="0" on="1"/>
        <pt x="40" y="-2" on="1"/>
        <pt x="20" y="-2" on="0"/>
        <pt x="20" y="9" on="1"/>
        <pt x="20" y="22" on="0"/>
        <pt x="45" y="30" on="1"/>
        <pt x="75" y="42" on="0"/>
        <pt x="90" y="65" on="1"/>
        <pt x="114" y="104" on="0"/>
        <pt x="146" y="164" on="0"/>
        <pt x="182" y="228" on="0"/>
        <pt x="238" y="331" on="0"/>
        <pt x="270" y="388" on="1"/>
        <pt x="448" y="708" on="0"/>
        <pt x="460" y="718" on="0"/>
        <pt x="476" y="718" on="0"/>
        <pt x="482" y="705" on="0"/>
        <pt x="508" y="613" on="0"/>
        <pt x="547" y="483" on="0"/>
        <pt x="666" y="119" on="0"/>
        <pt x="689" y="58" on="0"/>
        <pt x="707" y="37" on="0"/>
        <pt x="736" y="28" on="1"/>
        <pt x="752" y="23" on="0"/>
        <pt x="752" y="8" on="1"/>
        <pt x="752" y="-2" on="0"/>
        <pt x="721" y="-2" on="1"/>
        <pt x="678" y="0" on="1"/>
        <pt x="614" y="0" on="0"/>
        <pt x="524" y="-57" on="0"/>
        <pt x="524" y="-121" on="0"/>
        <pt x="554" y="-157" on="0"/>
        <pt x="589" y="-157" on="0"/>
        <pt x="621" y="-131" on="0"/>
        <pt x="628" y="-131" on="0"/>
        <pt x="628" y="-152" on="0"/>
        <pt x="572" y="-195" on="0"/>
        <pt x="541" y="-195" on="1"/>
        <pt x="466" y="-195" on="0"/>
        <pt x="466" y="-129" on="1"/>
        <pt x="466" y="-78" on="0"/>
        <pt x="525" y="-33" on="1"/>
        <pt x="561" y="-11" on="0"/>
        <pt x="573" y="-1" on="1"/>
        <pt x="602" y="27" on="0"/>
        <pt x="602" y="64" on="1"/>
        <pt x="602" y="99" on="0"/>
        <pt x="564" y="216" on="0"/>
        <pt x="560" y="234" on="1"/>
        <pt x="554" y="258" on="0"/>
        <pt x="524" y="258" on="1"/>
        <pt x="403" y="257" on="1"/>
        <pt x="327" y="257" on="0"/>
        <pt x="277" y="260" on="0"/>
        <pt x="269" y="260" on="1"/>
        <pt x="242" y="260" on="0"/>
        <pt x="234" y="245" on="1"/>
        <pt x="178" y="146" on="0"/>
        <pt x="149" y="72" on="0"/>
        <pt x="149" y="69" on="1"/>
        <pt x="149" y="44" on="0"/>
        <pt x="183" y="27" on="0"/>
        <pt x="217" y="22" on="0"/>
        <pt x="217" y="12" on="1"/>
        <pt x="217" y="-2" on="0"/>
        <pt x="208" y="-2" on="1"/>
        <pt x="202" y="-2" on="1"/>
      </contour>
      <contour>
        <pt x="321" y="304" on="1"/>
        <pt x="512" y="305" on="1"/>
        <pt x="526" y="305" on="0"/>
        <pt x="528" y="312" on="1"/>
        <pt x="528" y="315" on="0"/>
        <pt x="528" y="332" on="0"/>
        <pt x="441" y="596" on="0"/>
        <pt x="432" y="596" on="1"/>
        <pt x="427" y="596" on="0"/>
        <pt x="271" y="316" on="0"/>
        <pt x="271" y="304" on="0"/>
        <pt x="290" y="304" on="1"/>
      </contour>
    </TTGlyph>
    <TTGlyph name="Aring" xMin="20" yMin="-4" xMax="752" yMax="930">
      <component glyphName="uni030A" x="679" y="264" flags="0x1004"/>
      <component glyphName="A" x="0" y="0" flags="0x1004"/>
    </TTGlyph>
    <TTGlyph name="Atilde" xMin="20" yMin="-4" xMax="752" yMax="905">
      <component glyphName="tildecomb" x="679" y="264" flags="0x1004"/>
      <component glyphName="A" x="0" y="0" flags="0x1004"/>
    </TTGlyph>
    <TTGlyph name="B" xMin="20" yMin="-6" xMax="568" yMax="708">
      <contour>
        <pt x="147" y="0" on="1"/>
        <pt x="41" y="-6" on="1"/>
        <pt x="20" y="-6" on="0"/>
        <pt x="20" y="25" on="0"/>
        <pt x="34" y="25" on="1"/>
        <pt x="58" y="25" on="0"/>
        <pt x="76" y="47" on="0"/>
        <pt x="84" y="56" on="0"/>
        <pt x="90" y="83" on="0"/>
        <pt x="92" y="91" on="0"/>
        <pt x="94" y="106" on="1"/>
        <pt x="96" y="122" on="1"/>
        <pt x="108" y="200" on="0"/>
        <pt x="150" y="603" on="0"/>
        <pt x="150" y="651" on="0"/>
        <pt x="125" y="669" on="1"/>
        <pt x="112" y="679" on="0"/>
        <pt x="75" y="681" on="0"/>
        <pt x="62" y="688" on="0"/>
        <pt x="62" y="701" on="0"/>
        <pt x="71" y="708" on="0"/>
        <pt x="75" y="708" on="1"/>
        <pt x="143" y="704" on="1"/>
        <pt x="362" y="706" on="1"/>
        <pt x="451" y="706" on="0"/>
        <pt x="565" y="628" on="0"/>
        <pt x="565" y="547" on="1"/>
        <pt x="565" y="514" on="0"/>
        <pt x="536" y="454" on="0"/>
        <pt x="494" y="415" on="0"/>
        <pt x="453" y="387" on="0"/>
        <pt x="424" y="371" on="0"/>
        <pt x="424" y="368" on="0"/>
        <pt x="454" y="359" on="0"/>
        <pt x="496" y="341" on="0"/>
        <pt x="538" y="310" on="0"/>
        <pt x="568" y="250" on="0"/>
        <pt x="568" y="176" on="0"/>
        <pt x="537" y="102" on="0"/>
        <pt x="462" y="29" on="0"/>
        <pt x="362" y="-3" on="0"/>
        <pt x="282" y="-3" on="1"/>
      </contour>
      <contour>
        <pt x="164" y="75" on="1"/>
        <pt x="164" y="51" on="0"/>
        <pt x="214" y="28" on="0"/>
        <pt x="286" y="28" on="1"/>
        <pt x="384" y="28" on="0"/>
        <pt x="483" y="138" on="0"/>
        <pt x="483" y="258" on="0"/>
        <pt x="402" y="349" on="0"/>
        <pt x="248" y="361" on="0"/>
        <pt x="236" y="361" on="1"/>
        <pt x="207" y="361" on="1"/>
        <pt x="198" y="361" on="0"/>
        <pt x="182" y="222" on="0"/>
        <pt x="179" y="201" on="1"/>
        <pt x="171" y="134" on="1"/>
        <pt x="170" y="123" on="0"/>
        <pt x="168" y="108" on="1"/>
        <pt x="164" y="80" on="0"/>
      </contour>
      <contour>
        <pt x="208" y="404" on="1"/>
        <pt x="208" y="391" on="0"/>
        <pt x="250" y="386" on="0"/>
        <pt x="342" y="386" on="1"/>
        <pt x="381" y="386" on="0"/>
        <pt x="441" y="418" on="0"/>
        <pt x="456" y="442" on="1"/>
        <pt x="486" y="490" on="0"/>
        <pt x="486" y="532" on="1"/>
        <pt x="486" y="590" on="0"/>
        <pt x="442" y="627" on="1"/>
        <pt x="416" y="649" on="0"/>
        <pt x="353" y="669" on="0"/>
        <pt x="261" y="669" on="0"/>
        <pt x="241" y="653" on="0"/>
        <pt x="237" y="627" on="1"/>
        <pt x="225" y="545" on="1"/>
        <pt x="208" y="434" on="0"/>
      </contour>
    </TTGlyph>
    <TTGlyph name="C" xMin="39" yMin="-23" xMax="713" yMax="710">
      <contour>
        <pt x="80" y="128" on="0"/>
        <pt x="39" y="246" on="0"/>
        <pt x="39" y="386" on="0"/>
        <pt x="87" y="525" on="0"/>
        <pt x="180" y="641" on="0"/>
        <pt x="332" y="710" on="0"/>
        <pt x="428" y="710" on="1"/>
        <pt x="489" y="710" on="0"/>
        <pt x="605" y="672" on="0"/>
        <pt x="638" y="653" on="1"/>
        <pt x="670" y="634" on="1"/>
        <pt x="673" y="634" on="0"/>
        <pt x="688" y="650" on="0"/>
        <pt x="692" y="650" on="1"/>
        <pt x="704" y="650" on="0"/>
        <pt x="704" y="634" on="1"/>
        <pt x="704" y="546" on="0"/>
        <pt x="713" y="492" on="0"/>
        <pt x="713" y="485" on="1"/>
        <pt x="713" y="461" on="0"/>
        <pt x="699" y="461" on="1"/>
        <pt x="692" y="461" on="0"/>
        <pt x="682" y="477" on="0"/>
        <pt x="667" y="520" on="0"/>
        <pt x="659" y="540" on="1"/>
        <pt x="643" y="581" on="0"/>
        <pt x="600" y="610" on="1"/>
        <pt x="509" y="672" on="0"/>
        <pt x="322" y="672" on="0"/>
        <pt x="187" y="571" on="0"/>
        <pt x="124" y="420" on="0"/>
        <pt x="124" y="334" on="1"/>
        <pt x="124" y="187" on="0"/>
        <pt x="286" y="14" on="0"/>
        <pt x="523" y="14" on="0"/>
        <pt x="614" y="117" on="1"/>
        <pt x="626" y="130" on="0"/>
        <pt x="646" y="173" on="0"/>
        <pt x="660" y="198" on="0"/>
        <pt x="669" y="198" on="1"/>
        <pt x="685" y="198" on="0"/>
        <pt x="685" y="180" on="1"/>
        <pt x="685" y="167" on="0"/>
        <pt x="670" y="125" on="0"/>
        <pt x="664" y="104" on="0"/>
        <pt x="657" y="70" on="0"/>
        <pt x="652" y="57" on="0"/>
        <pt x="645" y="53" on="1"/>
        <pt x="500" y="-23" on="0"/>
        <pt x="378" y="-23" on="1"/>
        <pt x="294" y="-23" on="0"/>
        <pt x="161" y="33" on="0"/>
      </contour>
    </TTGlyph>
    <TTGlyph name="Cacute" xMin="39" yMin="-23" xMax="713" yMax="924">
      <component glyphName="acutecomb" x="657" y="264" flags="0x1004"/>
      <component glyphName="C" x="0" y="0" flags="0x1004"/>
    </TTGlyph>
    <TTGlyph name="Ccaron" xMin="39" yMin="-23" xMax="713" yMax="910">
      <component glyphName="uni030C" x="657" y="264" flags="0x1004"/>
      <component glyphName="C" x="0" y="0" flags="0x1004"/>
    </TTGlyph>
    <TTGlyph name="Ccedilla" xMin="39" yMin="-199" xMax="713" yMax="710">
      <component glyphName="uni0327" x="600" y="0" flags="0x1004"/>
      <component glyphName="C" x="0" y="0" flags="0x1004"/>
    </TTGlyph>
    <TTGlyph name="Ccircumflex" xMin="39" yMin="-23" xMax="713" yMax="910">
      <component glyphName="uni0302" x="657" y="264" flags="0x1004"/>
      <component glyphName="C" x="0" y="0" flags="0x1004"/>
    </TTGlyph>
    <TTGlyph name="Cdotaccent" xMin="39" yMin="-23" xMax="713" yMax="910">
      <component glyphName="uni0307" x="657" y="264" flags="0x1004"/>
      <component glyphName="C" x="0" y="0" flags="0x1004"/>
    </TTGlyph>
    <TTGlyph name="D" xMin="20" yMin="-5" xMax="733" yMax="715">
      <contour>
        <pt x="298" y="0" on="1"/>
        <pt x="143" y="3" on="1"/>
        <pt x="108" y="3" on="0"/>
        <pt x="47" y="-5" on="0"/>
        <pt x="33" y="-5" on="0"/>
        <pt x="20" y="6" on="0"/>
        <pt x="20" y="21" on="0"/>
        <pt x="36" y="28" on="0"/>
        <pt x="57" y="31" on="0"/>
        <pt x="81" y="52" on="0"/>
        <pt x="93" y="92" on="0"/>
        <pt x="97" y="116" on="1"/>
        <pt x="165" y="616" on="1"/>
        <pt x="167" y="632" on="0"/>
        <pt x="167" y="634" on="1"/>
        <pt x="167" y="649" on="0"/>
        <pt x="139" y="674" on="0"/>
        <pt x="122" y="675" on="1"/>
        <pt x="76" y="678" on="0"/>
        <pt x="76" y="715" on="0"/>
        <pt x="107" y="715" on="1"/>
        <pt x="124" y="715" on="0"/>
        <pt x="183" y="704" on="0"/>
        <pt x="233" y="704" on="0"/>
        <pt x="322" y="714" on="0"/>
        <pt x="364" y="714" on="1"/>
        <pt x="554" y="714" on="0"/>
        <pt x="733" y="555" on="0"/>
        <pt x="733" y="306" on="0"/>
        <pt x="655" y="186" on="1"/>
        <pt x="633" y="151" on="0"/>
        <pt x="550" y="72" on="0"/>
        <pt x="524" y="57" on="1"/>
        <pt x="430" y="0" on="0"/>
      </contour>
      <contour>
        <pt x="172" y="73" on="0"/>
        <pt x="172" y="53" on="0"/>
        <pt x="192" y="34" on="0"/>
        <pt x="220" y="34" on="1"/>
        <pt x="308" y="34" on="1"/>
        <pt x="352" y="34" on="0"/>
        <pt x="412" y="55" on="1"/>
        <pt x="518" y="93" on="0"/>
        <pt x="580" y="198" on="1"/>
        <pt x="622" y="269" on="0"/>
        <pt x="636" y="373" on="1"/>
        <pt x="641" y="405" on="0"/>
        <pt x="641" y="463" on="0"/>
        <pt x="627" y="524" on="0"/>
        <pt x="587" y="591" on="0"/>
        <pt x="525" y="640" on="0"/>
        <pt x="420" y="672" on="0"/>
        <pt x="291" y="672" on="0"/>
        <pt x="255" y="656" on="0"/>
        <pt x="244" y="617" on="1"/>
        <pt x="237" y="585" on="0"/>
      </contour>
    </TTGlyph>
    <TTGlyph name="Dcaron" xMin="20" yMin="-5" xMax="733" yMax="910">
      <component glyphName="uni030C" x="631" y="264" flags="0x1004"/>
      <component glyphName="D" x="0" y="0" flags="0x1004"/>
    </TTGlyph>
    <TTGlyph name="Dcroat" xMin="20" yMin="-5" xMax="733" yMax="715">
      <component glyphName="Eth" x="0" y="0" flags="0x1004"/>
    </TTGlyph>
    <TTGlyph name="E" xMin="20" yMin="-8" xMax="617" yMax="710">
      <contour>
        <pt x="167" y="3" on="1"/>
        <pt x="55" y="0" on="1"/>
        <pt x="20" y="0" on="0"/>
        <pt x="20" y="27" on="0"/>
        <pt x="65" y="29" on="0"/>
        <pt x="90" y="59" on="0"/>
        <pt x="100" y="95" on="0"/>
        <pt x="110" y="157" on="0"/>
        <pt x="111" y="166" on="0"/>
        <pt x="127" y="264" on="0"/>
        <pt x="131" y="296" on="1"/>
        <pt x="167" y="599" on="1"/>
        <pt x="168" y="608" on="0"/>
        <pt x="168" y="648" on="0"/>
        <pt x="144" y="675" on="0"/>
        <pt x="130" y="676" on="1"/>
        <pt x="92" y="679" on="0"/>
        <pt x="92" y="708" on="0"/>
        <pt x="115" y="708" on="1"/>
        <pt x="368" y="706" on="1"/>
        <pt x="599" y="710" on="1"/>
        <pt x="617" y="710" on="0"/>
        <pt x="617" y="691" on="1"/>
        <pt x="613" y="638" on="1"/>
        <pt x="616" y="584" on="1"/>
        <pt x="616" y="556" on="0"/>
        <pt x="603" y="556" on="1"/>
        <pt x="588" y="556" on="0"/>
        <pt x="588" y="580" on="1"/>
        <pt x="588" y="623" on="0"/>
        <pt x="555" y="643" on="1"/>
        <pt x="545" y="649" on="0"/>
        <pt x="495" y="664" on="0"/>
        <pt x="464" y="664" on="1"/>
        <pt x="310" y="667" on="1"/>
        <pt x="266" y="667" on="0"/>
        <pt x="247" y="647" on="0"/>
        <pt x="239" y="599" on="1"/>
        <pt x="214" y="424" on="0"/>
        <pt x="214" y="386" on="0"/>
        <pt x="227" y="382" on="0"/>
        <pt x="387" y="382" on="0"/>
        <pt x="448" y="390" on="0"/>
        <pt x="471" y="418" on="0"/>
        <pt x="483" y="446" on="0"/>
        <pt x="489" y="458" on="0"/>
        <pt x="495" y="458" on="1"/>
        <pt x="507" y="458" on="0"/>
        <pt x="507" y="438" on="0"/>
        <pt x="490" y="363" on="0"/>
        <pt x="485" y="332" on="0"/>
        <pt x="485" y="304" on="1"/>
        <pt x="485" y="244" on="0"/>
        <pt x="469" y="244" on="1"/>
        <pt x="458" y="244" on="0"/>
        <pt x="458" y="260" on="1"/>
        <pt x="458" y="308" on="0"/>
        <pt x="441" y="320" on="1"/>
        <pt x="412" y="341" on="0"/>
        <pt x="334" y="341" on="1"/>
        <pt x="286" y="341" on="1"/>
        <pt x="255" y="342" on="1"/>
        <pt x="252" y="342" on="0"/>
        <pt x="249" y="342" on="1"/>
        <pt x="211" y="342" on="0"/>
        <pt x="210" y="325" on="1"/>
        <pt x="207" y="295" on="0"/>
        <pt x="198" y="236" on="1"/>
        <pt x="174" y="88" on="0"/>
        <pt x="174" y="77" on="1"/>
        <pt x="174" y="53" on="0"/>
        <pt x="222" y="40" on="0"/>
        <pt x="385" y="40" on="0"/>
        <pt x="504" y="71" on="0"/>
        <pt x="547" y="108" on="0"/>
        <pt x="576" y="139" on="0"/>
        <pt x="582" y="139" on="1"/>
        <pt x="592" y="139" on="0"/>
        <pt x="592" y="125" on="1"/>
        <pt x="592" y="98" on="0"/>
        <pt x="508" y="-8" on="0"/>
        <pt x="476" y="-8" on="1"/>
        <pt x="404" y="-8" on="0"/>
        <pt x="189" y="3" on="0"/>
      </contour>
    </TTGlyph>
    <TTGlyph name="Eacute" xMin="20" yMin="-8" xMax="617" yMax="924">
      <component glyphName="acutecomb" x="603" y="264" flags="0x1004"/>
      <component glyphName="E" x="0" y="0" flags="0x1004"/>
    </TTGlyph>
    <TTGlyph name="Ebreve" xMin="20" yMin="-8" xMax="617" yMax="891">
      <component glyphName="uni0306" x="603" y="264" flags="0x1004"/>
      <component glyphName="E" x="0" y="0" flags="0x1004"/>
    </TTGlyph>
    <TTGlyph name="Ecaron" xMin="20" yMin="-8" xMax="617" yMax="910">
      <component glyphName="uni030C" x="603" y="264" flags="0x1004"/>
      <component glyphName="E" x="0" y="0" flags="0x1004"/>
    </TTGlyph>
    <TTGlyph name="Ecircumflex" xMin="20" yMin="-8" xMax="617" yMax="910">
      <component glyphName="uni0302" x="603" y="264" flags="0x1004"/>
      <component glyphName="E" x="0" y="0" flags="0x1004"/>
    </TTGlyph>
    <TTGlyph name="Edieresis" xMin="20" yMin="-8" xMax="617" yMax="904">
      <component glyphName="uni0308" x="603" y="264" flags="0x1004"/>
      <component glyphName="E" x="0" y="0" flags="0x1004"/>
    </TTGlyph>
    <TTGlyph name="Edotaccent" xMin="20" yMin="-8" xMax="617" yMax="910">
      <component glyphName="uni0307" x="603" y="264" flags="0x1004"/>
      <component glyphName="E" x="0" y="0" flags="0x1004"/>
    </TTGlyph>
    <TTGlyph name="Egrave" xMin="20" yMin="-8" xMax="617" yMax="924">
      <component glyphName="gravecomb" x="603" y="264" flags="0x1004"/>
      <component glyphName="E" x="0" y="0" flags="0x1004"/>
    </TTGlyph>
    <TTGlyph name="Emacron" xMin="20" yMin="-8" xMax="617" yMax="872">
      <component glyphName="uni0304" x="603" y="264" flags="0x1004"/>
      <component glyphName="E" x="0" y="0" flags="0x1004"/>
    </TTGlyph>
    <TTGlyph name="Eogonek" xMin="20" yMin="-195" xMax="617" yMax="710">
      <contour>
        <pt x="167" y="3" on="1"/>
        <pt x="55" y="0" on="1"/>
        <pt x="20" y="0" on="0"/>
        <pt x="20" y="27" on="0"/>
        <pt x="65" y="29" on="0"/>
        <pt x="90" y="59" on="0"/>
        <pt x="100" y="95" on="0"/>
        <pt x="110" y="157" on="0"/>
        <pt x="111" y="166" on="0"/>
        <pt x="127" y="264" on="0"/>
        <pt x="131" y="296" on="1"/>
        <pt x="167" y="599" on="1"/>
        <pt x="168" y="608" on="0"/>
        <pt x="168" y="648" on="0"/>
        <pt x="144" y="675" on="0"/>
        <pt x="130" y="676" on="1"/>
        <pt x="92" y="679" on="0"/>
        <pt x="92" y="708" on="0"/>
        <pt x="115" y="708" on="1"/>
        <pt x="368" y="706" on="1"/>
        <pt x="599" y="710" on="1"/>
        <pt x="617" y="710" on="0"/>
        <pt x="617" y="691" on="1"/>
        <pt x="613" y="638" on="1"/>
        <pt x="616" y="584" on="1"/>
        <pt x="616" y="556" on="0"/>
        <pt x="603" y="556" on="1"/>
        <pt x="588" y="556" on="0"/>
        <pt x="588" y="580" on="1"/>
        <pt x="588" y="623" on="0"/>
        <pt x="555" y="643" on="1"/>
        <pt x="545" y="649" on="0"/>
        <pt x="495" y="664" on="0"/>
        <pt x="464" y="664" on="1"/>
        <pt x="310" y="667" on="1"/>
        <pt x="266" y="667" on="0"/>
        <pt x="247" y="647" on="0"/>
        <pt x="239" y="599" on="1"/>
        <pt x="214" y="424" on="0"/>
        <pt x="214" y="386" on="0"/>
        <pt x="227" y="382" on="0"/>
        <pt x="387" y="382" on="0"/>
        <pt x="448" y="390" on="0"/>
        <pt x="471" y="418" on="0"/>
        <pt x="483" y="446" on="0"/>
        <pt x="489" y="458" on="0"/>
        <pt x="495" y="458" on="1"/>
        <pt x="507" y="458" on="0"/>
        <pt x="507" y="438" on="0"/>
        <pt x="490" y="363" on="0"/>
        <pt x="485" y="332" on="0"/>
        <pt x="485" y="304" on="1"/>
        <pt x="485" y="244" on="0"/>
        <pt x="469" y="244" on="1"/>
        <pt x="458" y="244" on="0"/>
        <pt x="458" y="260" on="1"/>
        <pt x="458" y="308" on="0"/>
        <pt x="441" y="320" on="1"/>
        <pt x="412" y="341" on="0"/>
        <pt x="334" y="341" on="1"/>
        <pt x="286" y="341" on="1"/>
        <pt x="255" y="342" on="1"/>
        <pt x="252" y="342" on="0"/>
        <pt x="249" y="342" on="1"/>
        <pt x="211" y="342" on="0"/>
        <pt x="210" y="325" on="1"/>
        <pt x="207" y="295" on="0"/>
        <pt x="198" y="236" on="1"/>
        <pt x="174" y="88" on="0"/>
        <pt x="174" y="77" on="1"/>
        <pt x="174" y="53" on="0"/>
        <pt x="222" y="40" on="0"/>
        <pt x="385" y="40" on="0"/>
        <pt x="504" y="71" on="0"/>
        <pt x="547" y="108" on="0"/>
        <pt x="576" y="139" on="0"/>
        <pt x="582" y="139" on="1"/>
        <pt x="592" y="139" on="0"/>
        <pt x="592" y="109" on="0"/>
        <pt x="553" y="44" on="0"/>
        <pt x="518" y="11" on="0"/>
        <pt x="456" y="-30" on="0"/>
        <pt x="420" y="-69" on="0"/>
        <pt x="420" y="-121" on="0"/>
        <pt x="450" y="-157" on="0"/>
        <pt x="485" y="-157" on="0"/>
        <pt x="517" y="-131" on="0"/>
        <pt x="524" y="-131" on="0"/>
        <pt x="524" y="-152" on="0"/>
        <pt x="468" y="-195" on="0"/>
        <pt x="437" y="-195" on="1"/>
        <pt x="362" y="-195" on="0"/>
        <pt x="362" y="-129" on="1"/>
        <pt x="362" y="-87" on="0"/>
        <pt x="406" y="-40" on="1"/>
        <pt x="421" y="-24" on="0"/>
        <pt x="421" y="-19" on="1"/>
        <pt x="421" y="-7" on="0"/>
        <pt x="329" y="-4" on="0"/>
        <pt x="191" y="3" on="0"/>
      </contour>
    </TTGlyph>
    <TTGlyph name="Eth" xMin="20" yMin="-5" xMax="733" yMax="715">
      <contour>
        <pt x="298" y="0" on="1"/>
        <pt x="143" y="3" on="1"/>
        <pt x="108" y="3" on="0"/>
        <pt x="47" y="-5" on="0"/>
        <pt x="33" y="-5" on="0"/>
        <pt x="20" y="6" on="0"/>
        <pt x="20" y="21" on="0"/>
        <pt x="36" y="28" on="0"/>
        <pt x="57" y="31" on="0"/>
        <pt x="81" y="52" on="0"/>
        <pt x="86" y="68" on="1"/>
        <pt x="92" y="86" on="0"/>
        <pt x="118" y="266" on="1"/>
        <pt x="125" y="323" on="1"/>
        <pt x="125" y="332" on="0"/>
        <pt x="118" y="336" on="0"/>
        <pt x="109" y="336" on="1"/>
        <pt x="59" y="336" on="1"/>
        <pt x="46" y="336" on="0"/>
        <pt x="46" y="358" on="1"/>
        <pt x="46" y="367" on="0"/>
        <pt x="53" y="380" on="0"/>
        <pt x="57" y="380" on="1"/>
        <pt x="124" y="378" on="1"/>
        <pt x="132" y="378" on="0"/>
        <pt x="135" y="385" on="0"/>
        <pt x="137" y="406" on="1"/>
        <pt x="165" y="616" on="1"/>
        <pt x="167" y="632" on="0"/>
        <pt x="167" y="634" on="1"/>
        <pt x="167" y="649" on="0"/>
        <pt x="139" y="674" on="0"/>
        <pt x="122" y="675" on="1"/>
        <pt x="76" y="678" on="0"/>
        <pt x="76" y="715" on="0"/>
        <pt x="107" y="715" on="1"/>
        <pt x="124" y="715" on="0"/>
        <pt x="183" y="704" on="0"/>
        <pt x="233" y="704" on="0"/>
        <pt x="322" y="714" on="0"/>
        <pt x="364" y="714" on="1"/>
        <pt x="554" y="714" on="0"/>
        <pt x="733" y="555" on="0"/>
        <pt x="733" y="306" on="0"/>
        <pt x="655" y="186" on="1"/>
        <pt x="633" y="151" on="0"/>
        <pt x="550" y="72" on="0"/>
        <pt x="524" y="57" on="1"/>
        <pt x="430" y="0" on="0"/>
      </contour>
      <contour>
        <pt x="395" y="337" on="1"/>
        <pt x="294" y="336" on="1"/>
        <pt x="220" y="336" on="1"/>
        <pt x="209" y="336" on="0"/>
        <pt x="205" y="331" on="0"/>
        <pt x="203" y="318" on="1"/>
        <pt x="196" y="258" on="1"/>
        <pt x="172" y="75" on="0"/>
        <pt x="172" y="53" on="0"/>
        <pt x="192" y="34" on="0"/>
        <pt x="220" y="34" on="1"/>
        <pt x="308" y="34" on="1"/>
        <pt x="352" y="34" on="0"/>
        <pt x="412" y="55" on="1"/>
        <pt x="518" y="93" on="0"/>
        <pt x="580" y="198" on="1"/>
        <pt x="622" y="269" on="0"/>
        <pt x="636" y="373" on="1"/>
        <pt x="641" y="405" on="0"/>
        <pt x="641" y="463" on="0"/>
        <pt x="627" y="524" on="0"/>
        <pt x="587" y="591" on="0"/>
        <pt x="525" y="640" on="0"/>
        <pt x="420" y="672" on="0"/>
        <pt x="291" y="672" on="0"/>
        <pt x="255" y="656" on="0"/>
        <pt x="244" y="617" on="1"/>
        <pt x="235" y="586" on="0"/>
        <pt x="218" y="438" on="1"/>
        <pt x="211" y="385" on="1"/>
        <pt x="211" y="378" on="0"/>
        <pt x="224" y="378" on="1"/>
        <pt x="391" y="381" on="1"/>
        <pt x="403" y="381" on="0"/>
        <pt x="403" y="337" on="0"/>
      </contour>
    </TTGlyph>
    <TTGlyph name="Euro" xMin="20" yMin="10" xMax="545" yMax="532">
      <contour>
        <pt x="144" y="271" on="1"/>
        <pt x="145" y="252" on="1"/>
        <pt x="460" y="252" on="1"/>
        <pt x="440" y="204" on="1"/>
        <pt x="155" y="204" on="1"/>
        <pt x="179" y="132" on="0"/>
        <pt x="297" y="57" on="0"/>
        <pt x="355" y="57" on="1"/>
        <pt x="428" y="57" on="0"/>
        <pt x="476" y="92" on="1"/>
        <pt x="502" y="111" on="0"/>
        <pt x="523" y="132" on="1"/>
        <pt x="526" y="132" on="1"/>
        <pt x="526" y="71" on="1"/>
        <pt x="451" y="10" on="0"/>
        <pt x="358" y="10" on="1"/>
        <pt x="287" y="10" on="0"/>
        <pt x="217" y="51" on="1"/>
        <pt x="181" y="72" on="0"/>
        <pt x="121" y="151" on="0"/>
        <pt x="105" y="204" on="1"/>
        <pt x="23" y="204" on="1"/>
        <pt x="42" y="252" on="1"/>
        <pt x="97" y="252" on="1"/>
        <pt x="97" y="291" on="1"/>
        <pt x="20" y="291" on="1"/>
        <pt x="39" y="338" on="1"/>
        <pt x="105" y="338" on="1"/>
        <pt x="125" y="408" on="0"/>
        <pt x="172" y="454" on="1"/>
        <pt x="253" y="532" on="0"/>
        <pt x="352" y="532" on="1"/>
        <pt x="410" y="532" on="0"/>
        <pt x="500" y="496" on="0"/>
        <pt x="545" y="454" on="1"/>
        <pt x="523" y="404" on="1"/>
        <pt x="501" y="440" on="0"/>
        <pt x="402" y="485" on="0"/>
        <pt x="297" y="485" on="0"/>
        <pt x="183" y="415" on="0"/>
        <pt x="155" y="338" on="1"/>
        <pt x="496" y="338" on="1"/>
        <pt x="477" y="291" on="1"/>
        <pt x="145" y="291" on="1"/>
      </contour>
    </TTGlyph>
    <TTGlyph name="F" xMin="20" yMin="-5" xMax="571" yMax="711">
      <contour>
        <pt x="566" y="638" on="1"/>
        <pt x="571" y="584" on="1"/>
        <pt x="571" y="557" on="0"/>
        <pt x="559" y="557" on="1"/>
        <pt x="546" y="557" on="0"/>
        <pt x="544" y="581" on="1"/>
        <pt x="541" y="610" on="0"/>
        <pt x="490" y="663" on="0"/>
        <pt x="361" y="669" on="0"/>
        <pt x="343" y="669" on="1"/>
        <pt x="309" y="669" on="1"/>
        <pt x="268" y="669" on="0"/>
        <pt x="248" y="650" on="0"/>
        <pt x="244" y="626" on="1"/>
        <pt x="215" y="428" on="0"/>
        <pt x="215" y="389" on="0"/>
        <pt x="229" y="382" on="0"/>
        <pt x="257" y="382" on="1"/>
        <pt x="318" y="382" on="1"/>
        <pt x="392" y="382" on="0"/>
        <pt x="433" y="386" on="0"/>
        <pt x="459" y="407" on="0"/>
        <pt x="462" y="418" on="1"/>
        <pt x="470" y="448" on="0"/>
        <pt x="484" y="448" on="1"/>
        <pt x="494" y="448" on="0"/>
        <pt x="494" y="427" on="0"/>
        <pt x="475" y="333" on="0"/>
        <pt x="475" y="239" on="0"/>
        <pt x="462" y="239" on="1"/>
        <pt x="446" y="239" on="0"/>
        <pt x="446" y="260" on="1"/>
        <pt x="446" y="271" on="1"/>
        <pt x="446" y="289" on="0"/>
        <pt x="442" y="310" on="0"/>
        <pt x="423" y="327" on="0"/>
        <pt x="401" y="334" on="0"/>
        <pt x="374" y="336" on="1"/>
        <pt x="336" y="340" on="0"/>
        <pt x="242" y="340" on="1"/>
        <pt x="207" y="340" on="0"/>
        <pt x="206" y="318" on="1"/>
        <pt x="203" y="289" on="0"/>
        <pt x="196" y="234" on="1"/>
        <pt x="177" y="97" on="0"/>
        <pt x="177" y="89" on="1"/>
        <pt x="177" y="61" on="0"/>
        <pt x="211" y="32" on="0"/>
        <pt x="231" y="31" on="1"/>
        <pt x="285" y="28" on="0"/>
        <pt x="285" y="10" on="1"/>
        <pt x="285" y="-2" on="0"/>
        <pt x="270" y="-2" on="1"/>
        <pt x="267" y="-2" on="0"/>
        <pt x="201" y="3" on="0"/>
        <pt x="172" y="3" on="1"/>
        <pt x="124" y="3" on="0"/>
        <pt x="64" y="-3" on="1"/>
        <pt x="45" y="-5" on="1"/>
        <pt x="20" y="-5" on="0"/>
        <pt x="20" y="8" on="1"/>
        <pt x="20" y="14" on="0"/>
        <pt x="32" y="24" on="0"/>
        <pt x="59" y="27" on="0"/>
        <pt x="84" y="50" on="0"/>
        <pt x="92" y="78" on="1"/>
        <pt x="110" y="139" on="0"/>
        <pt x="118" y="221" on="1"/>
        <pt x="138" y="359" on="0"/>
        <pt x="168" y="614" on="0"/>
        <pt x="168" y="620" on="1"/>
        <pt x="168" y="648" on="0"/>
        <pt x="139" y="675" on="0"/>
        <pt x="105" y="676" on="0"/>
        <pt x="76" y="683" on="0"/>
        <pt x="76" y="695" on="1"/>
        <pt x="76" y="711" on="0"/>
        <pt x="99" y="711" on="1"/>
        <pt x="108" y="711" on="0"/>
        <pt x="144" y="710" on="1"/>
        <pt x="230" y="706" on="0"/>
        <pt x="368" y="706" on="1"/>
        <pt x="548" y="708" on="1"/>
        <pt x="566" y="708" on="0"/>
        <pt x="566" y="691" on="1"/>
      </contour>
    </TTGlyph>
    <TTGlyph name="G" xMin="39" yMin="-10" xMax="734" yMax="716">
      <contour>
        <pt x="631" y="356" on="1"/>
        <pt x="715" y="360" on="1"/>
        <pt x="734" y="360" on="0"/>
        <pt x="734" y="348" on="1"/>
        <pt x="734" y="335" on="0"/>
        <pt x="711" y="332" on="1"/>
        <pt x="702" y="330" on="0"/>
        <pt x="685" y="313" on="0"/>
        <pt x="682" y="297" on="1"/>
        <pt x="660" y="160" on="0"/>
        <pt x="660" y="105" on="1"/>
        <pt x="660" y="74" on="1"/>
        <pt x="660" y="54" on="0"/>
        <pt x="653" y="47" on="0"/>
        <pt x="629" y="41" on="0"/>
        <pt x="616" y="36" on="0"/>
        <pt x="588" y="25" on="0"/>
        <pt x="565" y="17" on="0"/>
        <pt x="523" y="4" on="0"/>
        <pt x="503" y="0" on="1"/>
        <pt x="453" y="-10" on="0"/>
        <pt x="403" y="-10" on="1"/>
        <pt x="226" y="-10" on="0"/>
        <pt x="39" y="192" on="0"/>
        <pt x="39" y="359" on="1"/>
        <pt x="39" y="437" on="0"/>
        <pt x="85" y="533" on="1"/>
        <pt x="109" y="583" on="0"/>
        <pt x="206" y="670" on="0"/>
        <pt x="339" y="716" on="0"/>
        <pt x="446" y="716" on="0"/>
        <pt x="531" y="701" on="0"/>
        <pt x="589" y="679" on="0"/>
        <pt x="634" y="657" on="0"/>
        <pt x="660" y="642" on="0"/>
        <pt x="665" y="642" on="0"/>
        <pt x="687" y="662" on="0"/>
        <pt x="691" y="662" on="1"/>
        <pt x="704" y="662" on="0"/>
        <pt x="704" y="644" on="1"/>
        <pt x="702" y="592" on="1"/>
        <pt x="702" y="572" on="0"/>
        <pt x="709" y="512" on="0"/>
        <pt x="709" y="508" on="1"/>
        <pt x="709" y="485" on="0"/>
        <pt x="692" y="485" on="1"/>
        <pt x="684" y="485" on="0"/>
        <pt x="676" y="504" on="0"/>
        <pt x="662" y="545" on="0"/>
        <pt x="650" y="562" on="1"/>
        <pt x="612" y="619" on="0"/>
        <pt x="467" y="679" on="0"/>
        <pt x="386" y="679" on="1"/>
        <pt x="310" y="679" on="0"/>
        <pt x="248" y="642" on="1"/>
        <pt x="212" y="620" on="0"/>
        <pt x="159" y="551" on="0"/>
        <pt x="124" y="433" on="0"/>
        <pt x="124" y="357" on="1"/>
        <pt x="124" y="218" on="0"/>
        <pt x="279" y="25" on="0"/>
        <pt x="404" y="25" on="1"/>
        <pt x="450" y="25" on="0"/>
        <pt x="512" y="39" on="0"/>
        <pt x="541" y="60" on="1"/>
        <pt x="599" y="104" on="0"/>
        <pt x="599" y="243" on="1"/>
        <pt x="599" y="249" on="1"/>
        <pt x="599" y="301" on="0"/>
        <pt x="582" y="328" on="0"/>
        <pt x="544" y="328" on="1"/>
        <pt x="535" y="328" on="1"/>
        <pt x="506" y="328" on="0"/>
        <pt x="506" y="346" on="1"/>
        <pt x="506" y="359" on="0"/>
        <pt x="539" y="359" on="1"/>
      </contour>
    </TTGlyph>
    <TTGlyph name="G.001" xMin="39" yMin="-194" xMax="734" yMax="716">
      <contour>
        <pt x="734" y="360" on="0"/>
        <pt x="734" y="336" on="0"/>
        <pt x="714" y="336" on="1"/>
        <pt x="706" y="336" on="0"/>
        <pt x="690" y="323" on="0"/>
        <pt x="687" y="307" on="1"/>
        <pt x="666" y="177" on="0"/>
        <pt x="644" y="-24" on="1"/>
        <pt x="634" y="-123" on="0"/>
        <pt x="591" y="-162" on="1"/>
        <pt x="557" y="-194" on="0"/>
        <pt x="485" y="-194" on="0"/>
        <pt x="433" y="-172" on="0"/>
        <pt x="433" y="-152" on="1"/>
        <pt x="433" y="-143" on="0"/>
        <pt x="455" y="-84" on="0"/>
        <pt x="466" y="-84" on="1"/>
        <pt x="474" y="-84" on="0"/>
        <pt x="500" y="-168" on="0"/>
        <pt x="519" y="-168" on="1"/>
        <pt x="545" y="-168" on="0"/>
        <pt x="578" y="-11" on="0"/>
        <pt x="578" y="21" on="1"/>
        <pt x="578" y="26" on="0"/>
        <pt x="570" y="26" on="0"/>
        <pt x="548" y="18" on="1"/>
        <pt x="479" y="-9" on="0"/>
        <pt x="304" y="-9" on="0"/>
        <pt x="158" y="52" on="0"/>
        <pt x="118" y="106" on="1"/>
        <pt x="39" y="209" on="0"/>
        <pt x="39" y="359" on="1"/>
        <pt x="39" y="410" on="0"/>
        <pt x="70" y="508" on="0"/>
        <pt x="109" y="577" on="0"/>
        <pt x="181" y="648" on="0"/>
        <pt x="228" y="672" on="1"/>
        <pt x="314" y="716" on="0"/>
        <pt x="472" y="716" on="0"/>
        <pt x="593" y="680" on="0"/>
        <pt x="659" y="645" on="0"/>
        <pt x="668" y="645" on="0"/>
        <pt x="687" y="665" on="0"/>
        <pt x="691" y="665" on="1"/>
        <pt x="704" y="665" on="0"/>
        <pt x="704" y="644" on="1"/>
        <pt x="702" y="592" on="1"/>
        <pt x="702" y="572" on="0"/>
        <pt x="709" y="512" on="0"/>
        <pt x="709" y="508" on="1"/>
        <pt x="709" y="485" on="0"/>
        <pt x="692" y="485" on="1"/>
        <pt x="684" y="485" on="0"/>
        <pt x="676" y="504" on="0"/>
        <pt x="662" y="545" on="0"/>
        <pt x="650" y="562" on="1"/>
        <pt x="612" y="619" on="0"/>
        <pt x="467" y="679" on="0"/>
        <pt x="386" y="679" on="1"/>
        <pt x="267" y="679" on="0"/>
        <pt x="123" y="510" on="0"/>
        <pt x="123" y="211" on="0"/>
        <pt x="284" y="23" on="0"/>
        <pt x="417" y="23" on="1"/>
        <pt x="440" y="23" on="0"/>
        <pt x="491" y="29" on="0"/>
        <pt x="569" y="64" on="0"/>
        <pt x="583" y="94" on="1"/>
        <pt x="588" y="104" on="0"/>
        <pt x="594" y="158" on="1"/>
        <pt x="604" y="243" on="1"/>
        <pt x="608" y="289" on="0"/>
        <pt x="608" y="292" on="1"/>
        <pt x="608" y="323" on="0"/>
        <pt x="562" y="327" on="1"/>
        <pt x="517" y="327" on="0"/>
        <pt x="510" y="338" on="1"/>
        <pt x="508" y="342" on="0"/>
        <pt x="508" y="348" on="1"/>
        <pt x="508" y="359" on="0"/>
        <pt x="539" y="359" on="1"/>
        <pt x="631" y="356" on="1"/>
        <pt x="715" y="360" on="1"/>
      </contour>
    </TTGlyph>
    <TTGlyph name="Gbreve" xMin="39" yMin="-10" xMax="734" yMax="891">
      <component glyphName="uni0306" x="637" y="264" flags="0x1004"/>
      <component glyphName="G" x="0" y="0" flags="0x1004"/>
    </TTGlyph>
    <TTGlyph name="Gbreve.001" xMin="39" yMin="-194" xMax="734" yMax="891">
      <component glyphName="uni0306" x="637" y="264" flags="0x1004"/>
      <component glyphName="G.001" x="0" y="0" flags="0x1004"/>
    </TTGlyph>
    <TTGlyph name="Gcircumflex" xMin="39" yMin="-10" xMax="734" yMax="910">
      <component glyphName="uni0302" x="637" y="264" flags="0x1004"/>
      <component glyphName="G" x="0" y="0" flags="0x1004"/>
    </TTGlyph>
    <TTGlyph name="Gcircumflex.001" xMin="39" yMin="-194" xMax="734" yMax="910">
      <component glyphName="uni0302" x="637" y="264" flags="0x1004"/>
      <component glyphName="G.001" x="0" y="0" flags="0x1004"/>
    </TTGlyph>
    <TTGlyph name="Gcommaaccent" xMin="39" yMin="-199" xMax="734" yMax="716">
      <component glyphName="uni0326" x="599" y="0" flags="0x1004"/>
      <component glyphName="G" x="0" y="0" flags="0x1004"/>
    </TTGlyph>
    <TTGlyph name="Gcommaaccent.001" xMin="39" yMin="-199" xMax="734" yMax="716">
      <component glyphName="uni0326" x="546" y="0" flags="0x1004"/>
      <component glyphName="G.001" x="0" y="0" flags="0x1004"/>
    </TTGlyph>
    <TTGlyph name="Gdotaccent" xMin="39" yMin="-10" xMax="734" yMax="910">
      <component glyphName="uni0307" x="637" y="264" flags="0x1004"/>
      <component glyphName="G" x="0" y="0" flags="0x1004"/>
    </TTGlyph>
    <TTGlyph name="Gdotaccent.001" xMin="39" yMin="-194" xMax="734" yMax="910">
      <component glyphName="uni0307" x="637" y="264" flags="0x1004"/>
      <component glyphName="G.001" x="0" y="0" flags="0x1004"/>
    </TTGlyph>
    <TTGlyph name="H" xMin="20" yMin="-6" xMax="767" yMax="704">
      <contour>
        <pt x="132" y="2" on="1"/>
        <pt x="54" y="-3" on="1"/>
        <pt x="20" y="-3" on="0"/>
        <pt x="20" y="11" on="1"/>
        <pt x="20" y="24" on="0"/>
        <pt x="37" y="26" on="1"/>
        <pt x="57" y="27" on="0"/>
        <pt x="75" y="45" on="1"/>
        <pt x="91" y="61" on="0"/>
        <pt x="100" y="131" on="1"/>
        <pt x="101" y="144" on="0"/>
        <pt x="107" y="190" on="0"/>
        <pt x="111" y="230" on="0"/>
        <pt x="119" y="297" on="0"/>
        <pt x="129" y="382" on="0"/>
        <pt x="138" y="459" on="1"/>
        <pt x="158" y="617" on="0"/>
        <pt x="158" y="619" on="1"/>
        <pt x="158" y="666" on="0"/>
        <pt x="98" y="673" on="1"/>
        <pt x="73" y="676" on="0"/>
        <pt x="72" y="677" on="1"/>
        <pt x="64" y="680" on="0"/>
        <pt x="64" y="689" on="1"/>
        <pt x="64" y="704" on="0"/>
        <pt x="91" y="704" on="1"/>
        <pt x="102" y="704" on="0"/>
        <pt x="162" y="697" on="0"/>
        <pt x="218" y="697" on="0"/>
        <pt x="281" y="704" on="0"/>
        <pt x="288" y="704" on="1"/>
        <pt x="306" y="704" on="0"/>
        <pt x="306" y="689" on="1"/>
        <pt x="306" y="682" on="0"/>
        <pt x="287" y="677" on="0"/>
        <pt x="260" y="670" on="0"/>
        <pt x="243" y="650" on="0"/>
        <pt x="232" y="602" on="0"/>
        <pt x="217" y="483" on="0"/>
        <pt x="205" y="413" on="0"/>
        <pt x="205" y="391" on="0"/>
        <pt x="210" y="387" on="0"/>
        <pt x="217" y="387" on="1"/>
        <pt x="550" y="384" on="1"/>
        <pt x="570" y="384" on="1"/>
        <pt x="587" y="384" on="0"/>
        <pt x="597" y="398" on="0"/>
        <pt x="601" y="433" on="0"/>
        <pt x="606" y="479" on="1"/>
        <pt x="619" y="599" on="0"/>
        <pt x="619" y="605" on="1"/>
        <pt x="619" y="653" on="0"/>
        <pt x="579" y="670" on="1"/>
        <pt x="574" y="672" on="0"/>
        <pt x="560" y="674" on="1"/>
        <pt x="525" y="677" on="0"/>
        <pt x="525" y="702" on="0"/>
        <pt x="552" y="702" on="1"/>
        <pt x="659" y="699" on="1"/>
        <pt x="745" y="703" on="1"/>
        <pt x="767" y="703" on="0"/>
        <pt x="767" y="688" on="1"/>
        <pt x="767" y="680" on="0"/>
        <pt x="727" y="671" on="0"/>
        <pt x="720" y="662" on="1"/>
        <pt x="699" y="637" on="0"/>
        <pt x="678" y="433" on="0"/>
        <pt x="650" y="220" on="0"/>
        <pt x="636" y="115" on="0"/>
        <pt x="636" y="89" on="0"/>
        <pt x="638" y="69" on="0"/>
        <pt x="641" y="55" on="0"/>
        <pt x="648" y="44" on="0"/>
        <pt x="652" y="36" on="0"/>
        <pt x="663" y="31" on="0"/>
        <pt x="665" y="30" on="1"/>
        <pt x="671" y="25" on="0"/>
        <pt x="682" y="25" on="1"/>
        <pt x="698" y="24" on="1"/>
        <pt x="731" y="22" on="0"/>
        <pt x="731" y="6" on="1"/>
        <pt x="731" y="-6" on="0"/>
        <pt x="713" y="-6" on="1"/>
        <pt x="611" y="3" on="1"/>
        <pt x="582" y="3" on="0"/>
        <pt x="528" y="-5" on="0"/>
        <pt x="521" y="-5" on="1"/>
        <pt x="489" y="-5" on="0"/>
        <pt x="489" y="21" on="0"/>
        <pt x="519" y="24" on="0"/>
        <pt x="537" y="36" on="0"/>
        <pt x="547" y="46" on="0"/>
        <pt x="550" y="59" on="1"/>
        <pt x="556" y="79" on="0"/>
        <pt x="558" y="96" on="1"/>
        <pt x="560" y="112" on="1"/>
        <pt x="588" y="311" on="0"/>
        <pt x="588" y="339" on="0"/>
        <pt x="577" y="344" on="0"/>
        <pt x="554" y="344" on="1"/>
        <pt x="454" y="343" on="1"/>
        <pt x="219" y="343" on="1"/>
        <pt x="202" y="343" on="0"/>
        <pt x="197" y="337" on="0"/>
        <pt x="195" y="318" on="1"/>
        <pt x="188" y="266" on="1"/>
        <pt x="167" y="121" on="0"/>
        <pt x="167" y="82" on="0"/>
        <pt x="173" y="58" on="0"/>
        <pt x="179" y="44" on="0"/>
        <pt x="195" y="33" on="0"/>
        <pt x="198" y="32" on="1"/>
        <pt x="219" y="25" on="0"/>
        <pt x="235" y="23" on="0"/>
        <pt x="239" y="21" on="0"/>
        <pt x="246" y="20" on="0"/>
        <pt x="249" y="18" on="0"/>
        <pt x="251" y="16" on="1"/>
        <pt x="254" y="14" on="0"/>
        <pt x="254" y="9" on="1"/>
        <pt x="254" y="0" on="0"/>
        <pt x="238" y="0" on="1"/>
      </contour>
    </TTGlyph>
    <TTGlyph name="Hbar" xMin="20" yMin="-6" xMax="767" yMax="704">
      <contour>
        <pt x="132" y="2" on="1"/>
        <pt x="54" y="-3" on="1"/>
        <pt x="20" y="-3" on="0"/>
        <pt x="20" y="11" on="1"/>
        <pt x="20" y="24" on="0"/>
        <pt x="37" y="26" on="1"/>
        <pt x="57" y="27" on="0"/>
        <pt x="87" y="57" on="0"/>
        <pt x="98" y="119" on="0"/>
        <pt x="128" y="376" on="0"/>
        <pt x="141" y="480" on="0"/>
        <pt x="141" y="498" on="0"/>
        <pt x="133" y="502" on="0"/>
        <pt x="121" y="502" on="1"/>
        <pt x="74" y="502" on="1"/>
        <pt x="61" y="502" on="0"/>
        <pt x="61" y="546" on="0"/>
        <pt x="72" y="546" on="1"/>
        <pt x="130" y="546" on="1"/>
        <pt x="146" y="546" on="0"/>
        <pt x="147" y="550" on="1"/>
        <pt x="151" y="557" on="0"/>
        <pt x="151" y="560" on="1"/>
        <pt x="152" y="574" on="1"/>
        <pt x="153" y="587" on="0"/>
        <pt x="156" y="606" on="0"/>
        <pt x="157" y="613" on="0"/>
        <pt x="158" y="619" on="0"/>
        <pt x="158" y="621" on="1"/>
        <pt x="158" y="666" on="0"/>
        <pt x="99" y="673" on="1"/>
        <pt x="74" y="676" on="0"/>
        <pt x="72" y="677" on="1"/>
        <pt x="64" y="680" on="0"/>
        <pt x="64" y="689" on="1"/>
        <pt x="64" y="704" on="0"/>
        <pt x="91" y="704" on="1"/>
        <pt x="102" y="704" on="0"/>
        <pt x="162" y="697" on="0"/>
        <pt x="218" y="697" on="0"/>
        <pt x="281" y="704" on="0"/>
        <pt x="288" y="704" on="1"/>
        <pt x="306" y="704" on="0"/>
        <pt x="306" y="689" on="1"/>
        <pt x="306" y="682" on="0"/>
        <pt x="288" y="677" on="0"/>
        <pt x="261" y="671" on="0"/>
        <pt x="242" y="651" on="0"/>
        <pt x="226" y="570" on="0"/>
        <pt x="226" y="546" on="0"/>
        <pt x="233" y="544" on="0"/>
        <pt x="247" y="544" on="1"/>
        <pt x="584" y="546" on="1"/>
        <pt x="606" y="546" on="0"/>
        <pt x="615" y="555" on="0"/>
        <pt x="617" y="582" on="1"/>
        <pt x="619" y="605" on="1"/>
        <pt x="619" y="653" on="0"/>
        <pt x="579" y="670" on="1"/>
        <pt x="574" y="672" on="0"/>
        <pt x="560" y="674" on="1"/>
        <pt x="525" y="677" on="0"/>
        <pt x="525" y="702" on="0"/>
        <pt x="552" y="702" on="1"/>
        <pt x="659" y="699" on="1"/>
        <pt x="745" y="703" on="1"/>
        <pt x="767" y="703" on="0"/>
        <pt x="767" y="688" on="1"/>
        <pt x="767" y="680" on="0"/>
        <pt x="727" y="671" on="0"/>
        <pt x="708" y="648" on="0"/>
        <pt x="693" y="582" on="0"/>
        <pt x="693" y="557" on="0"/>
        <pt x="694" y="554" on="1"/>
        <pt x="695" y="547" on="0"/>
        <pt x="706" y="547" on="1"/>
        <pt x="752" y="547" on="1"/>
        <pt x="765" y="547" on="0"/>
        <pt x="765" y="531" on="1"/>
        <pt x="765" y="503" on="0"/>
        <pt x="749" y="503" on="1"/>
        <pt x="701" y="503" on="1"/>
        <pt x="690" y="503" on="0"/>
        <pt x="688" y="500" on="1"/>
        <pt x="683" y="492" on="0"/>
        <pt x="683" y="474" on="1"/>
        <pt x="680" y="453" on="1"/>
        <pt x="669" y="364" on="0"/>
        <pt x="636" y="114" on="0"/>
        <pt x="636" y="89" on="0"/>
        <pt x="638" y="69" on="0"/>
        <pt x="641" y="55" on="0"/>
        <pt x="648" y="44" on="0"/>
        <pt x="652" y="36" on="0"/>
        <pt x="663" y="31" on="0"/>
        <pt x="665" y="30" on="1"/>
        <pt x="671" y="25" on="0"/>
        <pt x="682" y="25" on="1"/>
        <pt x="698" y="24" on="1"/>
        <pt x="731" y="22" on="0"/>
        <pt x="731" y="6" on="1"/>
        <pt x="731" y="-6" on="0"/>
        <pt x="713" y="-6" on="1"/>
        <pt x="611" y="3" on="1"/>
        <pt x="582" y="3" on="0"/>
        <pt x="528" y="-5" on="0"/>
        <pt x="521" y="-5" on="1"/>
        <pt x="489" y="-5" on="0"/>
        <pt x="489" y="21" on="0"/>
        <pt x="519" y="24" on="0"/>
        <pt x="537" y="36" on="0"/>
        <pt x="547" y="46" on="0"/>
        <pt x="550" y="59" on="1"/>
        <pt x="556" y="79" on="0"/>
        <pt x="558" y="96" on="1"/>
        <pt x="560" y="112" on="1"/>
        <pt x="588" y="311" on="0"/>
        <pt x="588" y="339" on="0"/>
        <pt x="577" y="344" on="0"/>
        <pt x="554" y="344" on="1"/>
        <pt x="454" y="343" on="1"/>
        <pt x="219" y="343" on="1"/>
        <pt x="202" y="343" on="0"/>
        <pt x="197" y="337" on="0"/>
        <pt x="195" y="318" on="1"/>
        <pt x="188" y="266" on="1"/>
        <pt x="167" y="121" on="0"/>
        <pt x="167" y="82" on="0"/>
        <pt x="173" y="58" on="0"/>
        <pt x="179" y="44" on="0"/>
        <pt x="195" y="33" on="0"/>
        <pt x="198" y="32" on="1"/>
        <pt x="219" y="25" on="0"/>
        <pt x="235" y="23" on="0"/>
        <pt x="239" y="21" on="0"/>
        <pt x="246" y="20" on="0"/>
        <pt x="249" y="18" on="0"/>
        <pt x="251" y="16" on="1"/>
        <pt x="254" y="14" on="0"/>
        <pt x="254" y="9" on="1"/>
        <pt x="254" y="0" on="0"/>
        <pt x="238" y="0" on="1"/>
      </contour>
      <contour>
        <pt x="581" y="503" on="1"/>
        <pt x="309" y="502" on="1"/>
        <pt x="241" y="502" on="1"/>
        <pt x="222" y="502" on="0"/>
        <pt x="217" y="495" on="0"/>
        <pt x="205" y="418" on="0"/>
        <pt x="205" y="391" on="0"/>
        <pt x="210" y="387" on="0"/>
        <pt x="217" y="387" on="1"/>
        <pt x="570" y="384" on="1"/>
        <pt x="586" y="384" on="0"/>
        <pt x="597" y="396" on="0"/>
        <pt x="600" y="418" on="1"/>
        <pt x="607" y="492" on="1"/>
        <pt x="607" y="500" on="0"/>
        <pt x="600" y="503" on="0"/>
      </contour>
    </TTGlyph>
    <TTGlyph name="Hcircumflex" xMin="20" yMin="-6" xMax="767" yMax="910">
      <component glyphName="uni0302" x="637" y="264" flags="0x1004"/>
      <component glyphName="H" x="0" y="0" flags="0x1004"/>
    </TTGlyph>
    <TTGlyph name="I" xMin="20" yMin="-5" xMax="306" yMax="704">
      <contour>
        <pt x="132" y="1" on="1"/>
        <pt x="55" y="-5" on="1"/>
        <pt x="20" y="-5" on="0"/>
        <pt x="20" y="11" on="1"/>
        <pt x="20" y="23" on="0"/>
        <pt x="40" y="24" on="1"/>
        <pt x="61" y="26" on="0"/>
        <pt x="87" y="64" on="0"/>
        <pt x="91" y="98" on="0"/>
        <pt x="110" y="239" on="1"/>
        <pt x="158" y="609" on="0"/>
        <pt x="158" y="619" on="1"/>
        <pt x="158" y="666" on="0"/>
        <pt x="98" y="673" on="1"/>
        <pt x="73" y="676" on="0"/>
        <pt x="72" y="677" on="1"/>
        <pt x="64" y="680" on="0"/>
        <pt x="64" y="689" on="1"/>
        <pt x="64" y="704" on="0"/>
        <pt x="91" y="704" on="1"/>
        <pt x="102" y="704" on="0"/>
        <pt x="162" y="696" on="0"/>
        <pt x="194" y="696" on="1"/>
        <pt x="194" y="696" on="0"/>
        <pt x="288" y="702" on="1"/>
        <pt x="306" y="702" on="0"/>
        <pt x="306" y="688" on="1"/>
        <pt x="306" y="681" on="0"/>
        <pt x="287" y="676" on="0"/>
        <pt x="260" y="669" on="0"/>
        <pt x="254" y="662" on="1"/>
        <pt x="234" y="639" on="0"/>
        <pt x="213" y="432" on="0"/>
        <pt x="183" y="220" on="0"/>
        <pt x="167" y="113" on="0"/>
        <pt x="167" y="77" on="0"/>
        <pt x="173" y="47" on="0"/>
        <pt x="188" y="33" on="0"/>
        <pt x="197" y="27" on="0"/>
        <pt x="221" y="23" on="0"/>
        <pt x="228" y="21" on="0"/>
        <pt x="238" y="19" on="0"/>
        <pt x="245" y="18" on="0"/>
        <pt x="248" y="17" on="1"/>
        <pt x="254" y="15" on="0"/>
        <pt x="254" y="2" on="0"/>
        <pt x="251" y="-1" on="1"/>
        <pt x="247" y="-5" on="0"/>
        <pt x="233" y="-5" on="1"/>
      </contour>
    </TTGlyph>
    <TTGlyph name="IJ" xMin="20" yMin="-69" xMax="661" yMax="708">
      <component glyphName="J" x="276" y="0" flags="0x1004"/>
      <component glyphName="I" x="0" y="0" flags="0x1004"/>
    </TTGlyph>
    <TTGlyph name="Iacute" xMin="20" yMin="-5" xMax="318" yMax="924">
      <component glyphName="acutecomb" x="412" y="264" flags="0x1004"/>
      <component glyphName="I" x="0" y="0" flags="0x1004"/>
    </TTGlyph>
    <TTGlyph name="Ibreve" xMin="20" yMin="-5" xMax="330" yMax="891">
      <component glyphName="uni0306" x="412" y="264" flags="0x1004"/>
      <component glyphName="I" x="0" y="0" flags="0x1004"/>
    </TTGlyph>
    <TTGlyph name="Icircumflex" xMin="20" yMin="-5" xMax="308" yMax="910">
      <component glyphName="uni0302" x="412" y="264" flags="0x1004"/>
      <component glyphName="I" x="0" y="0" flags="0x1004"/>
    </TTGlyph>
    <TTGlyph name="Idieresis" xMin="20" yMin="-5" xMax="340" yMax="904">
      <component glyphName="uni0308" x="412" y="264" flags="0x1004"/>
      <component glyphName="I" x="0" y="0" flags="0x1004"/>
    </TTGlyph>
    <TTGlyph name="Idotaccent" xMin="20" yMin="-5" xMax="306" yMax="910">
      <component glyphName="uni0307" x="412" y="264" flags="0x1004"/>
      <component glyphName="I" x="0" y="0" flags="0x1004"/>
    </TTGlyph>
    <TTGlyph name="Igrave" xMin="20" yMin="-5" xMax="306" yMax="924">
      <component glyphName="gravecomb" x="412" y="264" flags="0x1004"/>
      <component glyphName="I" x="0" y="0" flags="0x1004"/>
    </TTGlyph>
    <TTGlyph name="Imacron" xMin="20" yMin="-5" xMax="311" yMax="872">
      <component glyphName="uni0304" x="412" y="264" flags="0x1004"/>
      <component glyphName="I" x="0" y="0" flags="0x1004"/>
    </TTGlyph>
    <TTGlyph name="Iogonek" xMin="20" yMin="-195" xMax="306" yMax="704">
      <contour>
        <pt x="92" y="-1" on="1"/>
        <pt x="55" y="-5" on="1"/>
        <pt x="20" y="-5" on="0"/>
        <pt x="20" y="11" on="1"/>
        <pt x="20" y="24" on="0"/>
        <pt x="46" y="26" on="1"/>
        <pt x="56" y="27" on="0"/>
        <pt x="81" y="50" on="0"/>
        <pt x="88" y="72" on="1"/>
        <pt x="123" y="344" on="1"/>
        <pt x="158" y="617" on="0"/>
        <pt x="158" y="619" on="1"/>
        <pt x="158" y="666" on="0"/>
        <pt x="98" y="673" on="1"/>
        <pt x="73" y="676" on="0"/>
        <pt x="72" y="677" on="1"/>
        <pt x="64" y="680" on="0"/>
        <pt x="64" y="689" on="1"/>
        <pt x="64" y="704" on="0"/>
        <pt x="91" y="704" on="1"/>
        <pt x="102" y="704" on="0"/>
        <pt x="162" y="696" on="0"/>
        <pt x="194" y="696" on="1"/>
        <pt x="288" y="702" on="1"/>
        <pt x="306" y="702" on="0"/>
        <pt x="306" y="688" on="1"/>
        <pt x="306" y="681" on="0"/>
        <pt x="287" y="676" on="0"/>
        <pt x="260" y="669" on="0"/>
        <pt x="254" y="662" on="1"/>
        <pt x="234" y="639" on="0"/>
        <pt x="213" y="432" on="0"/>
        <pt x="183" y="220" on="0"/>
        <pt x="167" y="113" on="0"/>
        <pt x="167" y="77" on="0"/>
        <pt x="173" y="47" on="0"/>
        <pt x="188" y="33" on="0"/>
        <pt x="197" y="27" on="0"/>
        <pt x="221" y="23" on="0"/>
        <pt x="228" y="21" on="0"/>
        <pt x="238" y="19" on="0"/>
        <pt x="245" y="18" on="0"/>
        <pt x="248" y="17" on="1"/>
        <pt x="254" y="15" on="0"/>
        <pt x="254" y="2" on="0"/>
        <pt x="251" y="-1" on="1"/>
        <pt x="247" y="-5" on="0"/>
        <pt x="233" y="-5" on="1"/>
        <pt x="157" y="0" on="1"/>
        <pt x="140" y="0" on="0"/>
        <pt x="132" y="-12" on="1"/>
        <pt x="102" y="-47" on="0"/>
        <pt x="102" y="-93" on="1"/>
        <pt x="102" y="-121" on="0"/>
        <pt x="132" y="-157" on="0"/>
        <pt x="166" y="-157" on="0"/>
        <pt x="198" y="-142" on="0"/>
        <pt x="201" y="-142" on="1"/>
        <pt x="207" y="-142" on="0"/>
        <pt x="207" y="-147" on="1"/>
        <pt x="207" y="-160" on="0"/>
        <pt x="150" y="-195" on="0"/>
        <pt x="82" y="-195" on="0"/>
        <pt x="46" y="-156" on="0"/>
        <pt x="46" y="-95" on="0"/>
        <pt x="74" y="-42" on="0"/>
        <pt x="102" y="-9" on="0"/>
        <pt x="102" y="-1" on="0"/>
      </contour>
    </TTGlyph>
    <TTGlyph name="Itilde" xMin="20" yMin="-5" xMax="356" yMax="905">
      <component glyphName="tildecomb" x="412" y="264" flags="0x1004"/>
      <component glyphName="I" x="0" y="0" flags="0x1004"/>
    </TTGlyph>
    <TTGlyph name="J" xMin="-10" yMin="-69" xMax="385" yMax="708">
      <contour>
        <pt x="189" y="246" on="1"/>
        <pt x="234" y="629" on="1"/>
        <pt x="234" y="668" on="0"/>
        <pt x="166" y="674" on="1"/>
        <pt x="141" y="676" on="0"/>
        <pt x="141" y="708" on="0"/>
        <pt x="167" y="708" on="1"/>
        <pt x="179" y="708" on="0"/>
        <pt x="231" y="699" on="0"/>
        <pt x="298" y="699" on="0"/>
        <pt x="360" y="707" on="0"/>
        <pt x="362" y="707" on="1"/>
        <pt x="385" y="707" on="0"/>
        <pt x="385" y="685" on="0"/>
        <pt x="373" y="680" on="0"/>
        <pt x="355" y="678" on="0"/>
        <pt x="345" y="674" on="1"/>
        <pt x="322" y="663" on="0"/>
        <pt x="310" y="597" on="1"/>
        <pt x="308" y="583" on="0"/>
        <pt x="275" y="299" on="0"/>
        <pt x="249" y="126" on="0"/>
        <pt x="196" y="7" on="0"/>
        <pt x="88" y="-69" on="0"/>
        <pt x="42" y="-69" on="1"/>
        <pt x="19" y="-69" on="0"/>
        <pt x="-10" y="-52" on="0"/>
        <pt x="-10" y="-28" on="0"/>
        <pt x="13" y="38" on="0"/>
        <pt x="27" y="38" on="1"/>
        <pt x="35" y="38" on="0"/>
        <pt x="42" y="24" on="1"/>
        <pt x="61" y="-17" on="0"/>
        <pt x="93" y="-17" on="1"/>
        <pt x="132" y="-17" on="0"/>
        <pt x="175" y="126" on="0"/>
      </contour>
    </TTGlyph>
    <TTGlyph name="J.001" xMin="-25" yMin="-197" xMax="379" yMax="706">
      <contour>
        <pt x="293" y="433" on="1"/>
        <pt x="338" y="432" on="1"/>
        <pt x="354" y="432" on="0"/>
        <pt x="354" y="417" on="1"/>
        <pt x="354" y="397" on="0"/>
        <pt x="335" y="397" on="1"/>
        <pt x="282" y="397" on="1"/>
        <pt x="275" y="397" on="0"/>
        <pt x="263" y="239" on="0"/>
        <pt x="259" y="193" on="0"/>
        <pt x="239" y="70" on="0"/>
        <pt x="237" y="49" on="1"/>
        <pt x="229" y="-18" on="0"/>
        <pt x="176" y="-120" on="0"/>
        <pt x="142" y="-146" on="1"/>
        <pt x="77" y="-197" on="0"/>
        <pt x="-25" y="-197" on="0"/>
        <pt x="-25" y="-166" on="1"/>
        <pt x="-25" y="-157" on="0"/>
        <pt x="-3" y="-95" on="0"/>
        <pt x="11" y="-95" on="1"/>
        <pt x="18" y="-95" on="0"/>
        <pt x="52" y="-147" on="0"/>
        <pt x="70" y="-147" on="1"/>
        <pt x="103" y="-147" on="0"/>
        <pt x="146" y="-77" on="0"/>
        <pt x="158" y="3" on="1"/>
        <pt x="177" y="137" on="0"/>
        <pt x="198" y="322" on="1"/>
        <pt x="204" y="383" on="1"/>
        <pt x="205" y="392" on="0"/>
        <pt x="195" y="396" on="0"/>
        <pt x="181" y="396" on="1"/>
        <pt x="122" y="395" on="1"/>
        <pt x="118" y="395" on="0"/>
        <pt x="110" y="402" on="0"/>
        <pt x="110" y="407" on="1"/>
        <pt x="110" y="433" on="0"/>
        <pt x="140" y="433" on="1"/>
        <pt x="188" y="432" on="1"/>
        <pt x="202" y="432" on="0"/>
        <pt x="211" y="441" on="0"/>
        <pt x="213" y="457" on="1"/>
        <pt x="218" y="497" on="1"/>
        <pt x="235" y="610" on="0"/>
        <pt x="235" y="630" on="1"/>
        <pt x="235" y="674" on="0"/>
        <pt x="153" y="674" on="1"/>
        <pt x="113" y="674" on="0"/>
        <pt x="72" y="642" on="0"/>
        <pt x="72" y="612" on="0"/>
        <pt x="92" y="594" on="0"/>
        <pt x="92" y="587" on="0"/>
        <pt x="69" y="569" on="0"/>
        <pt x="45" y="569" on="0"/>
        <pt x="29" y="572" on="0"/>
        <pt x="20" y="577" on="1"/>
        <pt x="3" y="587" on="0"/>
        <pt x="3" y="622" on="1"/>
        <pt x="3" y="703" on="0"/>
        <pt x="165" y="703" on="1"/>
        <pt x="258" y="699" on="1"/>
        <pt x="284" y="699" on="0"/>
        <pt x="343" y="706" on="0"/>
        <pt x="355" y="706" on="1"/>
        <pt x="379" y="706" on="0"/>
        <pt x="379" y="690" on="1"/>
        <pt x="379" y="678" on="0"/>
        <pt x="356" y="676" on="1"/>
        <pt x="330" y="675" on="0"/>
        <pt x="317" y="647" on="1"/>
        <pt x="309" y="632" on="0"/>
        <pt x="286" y="460" on="0"/>
        <pt x="286" y="433" on="0"/>
      </contour>
    </TTGlyph>
    <TTGlyph name="Jcircumflex" xMin="-10" yMin="-69" xMax="385" yMax="910">
      <component glyphName="uni0302" x="488" y="264" flags="0x1004"/>
      <component glyphName="J" x="0" y="0" flags="0x1004"/>
    </TTGlyph>
    <TTGlyph name="Jcircumflex.001" xMin="-25" yMin="-197" xMax="379" yMax="910">
      <component glyphName="uni0302" x="460" y="264" flags="0x1004"/>
      <component glyphName="J.001" x="0" y="0" flags="0x1004"/>
    </TTGlyph>
    <TTGlyph name="K" xMin="20" yMin="-2" xMax="754" yMax="707">
      <contour>
        <pt x="163" y="3" on="1"/>
        <pt x="49" y="-2" on="1"/>
        <pt x="20" y="-2" on="0"/>
        <pt x="20" y="13" on="1"/>
        <pt x="20" y="22" on="0"/>
        <pt x="38" y="28" on="0"/>
        <pt x="62" y="31" on="0"/>
        <pt x="89" y="60" on="0"/>
        <pt x="107" y="131" on="0"/>
        <pt x="161" y="596" on="0"/>
        <pt x="161" y="644" on="0"/>
        <pt x="122" y="676" on="0"/>
        <pt x="93" y="678" on="1"/>
        <pt x="75" y="679" on="0"/>
        <pt x="75" y="695" on="1"/>
        <pt x="75" y="707" on="0"/>
        <pt x="93" y="707" on="1"/>
        <pt x="98" y="706" on="1"/>
        <pt x="103" y="706" on="0"/>
        <pt x="122" y="704" on="0"/>
        <pt x="134" y="703" on="1"/>
        <pt x="159" y="701" on="0"/>
        <pt x="208" y="701" on="1"/>
        <pt x="292" y="705" on="1"/>
        <pt x="311" y="705" on="0"/>
        <pt x="311" y="695" on="1"/>
        <pt x="311" y="690" on="0"/>
        <pt x="304" y="685" on="0"/>
        <pt x="294" y="682" on="1"/>
        <pt x="251" y="668" on="0"/>
        <pt x="240" y="622" on="1"/>
        <pt x="232" y="587" on="0"/>
        <pt x="213" y="407" on="0"/>
        <pt x="212" y="399" on="1"/>
        <pt x="210" y="383" on="0"/>
        <pt x="210" y="379" on="1"/>
        <pt x="210" y="370" on="0"/>
        <pt x="225" y="370" on="0"/>
        <pt x="445" y="533" on="0"/>
        <pt x="526" y="596" on="1"/>
        <pt x="579" y="638" on="0"/>
        <pt x="579" y="656" on="1"/>
        <pt x="579" y="670" on="0"/>
        <pt x="531" y="684" on="0"/>
        <pt x="531" y="694" on="1"/>
        <pt x="531" y="706" on="0"/>
        <pt x="558" y="706" on="1"/>
        <pt x="650" y="700" on="1"/>
        <pt x="733" y="706" on="1"/>
        <pt x="754" y="706" on="0"/>
        <pt x="754" y="674" on="0"/>
        <pt x="741" y="671" on="1"/>
        <pt x="736" y="669" on="0"/>
        <pt x="709" y="665" on="0"/>
        <pt x="696" y="661" on="1"/>
        <pt x="662" y="650" on="0"/>
        <pt x="571" y="584" on="1"/>
        <pt x="355" y="429" on="1"/>
        <pt x="350" y="425" on="0"/>
        <pt x="331" y="413" on="0"/>
        <pt x="319" y="404" on="0"/>
        <pt x="306" y="394" on="0"/>
        <pt x="299" y="385" on="0"/>
        <pt x="299" y="377" on="0"/>
        <pt x="366" y="305" on="0"/>
        <pt x="496" y="155" on="0"/>
        <pt x="543" y="102" on="0"/>
        <pt x="609" y="43" on="0"/>
        <pt x="655" y="28" on="0"/>
        <pt x="713" y="24" on="0"/>
        <pt x="713" y="12" on="1"/>
        <pt x="713" y="-2" on="0"/>
        <pt x="696" y="-2" on="1"/>
        <pt x="597" y="2" on="1"/>
        <pt x="564" y="2" on="1"/>
        <pt x="540" y="1" on="1"/>
        <pt x="530" y="1" on="0"/>
        <pt x="500" y="34" on="0"/>
        <pt x="433" y="114" on="1"/>
        <pt x="252" y="330" on="0"/>
        <pt x="239" y="338" on="0"/>
        <pt x="223" y="338" on="0"/>
        <pt x="209" y="325" on="0"/>
        <pt x="208" y="323" on="0"/>
        <pt x="204" y="319" on="0"/>
        <pt x="202" y="315" on="0"/>
        <pt x="199" y="307" on="0"/>
        <pt x="197" y="299" on="0"/>
        <pt x="196" y="292" on="1"/>
        <pt x="194" y="277" on="0"/>
        <pt x="176" y="117" on="0"/>
        <pt x="176" y="113" on="1"/>
        <pt x="176" y="59" on="0"/>
        <pt x="197" y="34" on="0"/>
        <pt x="270" y="25" on="0"/>
        <pt x="270" y="0" on="0"/>
        <pt x="247" y="0" on="1"/>
      </contour>
    </TTGlyph>
    <TTGlyph name="Kcommaaccent" xMin="20" yMin="-199" xMax="754" yMax="707">
      <component glyphName="uni0326" x="557" y="0" flags="0x1004"/>
      <component glyphName="K" x="0" y="0" flags="0x1004"/>
    </TTGlyph>
    <TTGlyph name="L" xMin="25" yMin="-8" xMax="584" yMax="719">
      <contour>
        <pt x="174" y="3" on="1"/>
        <pt x="48" y="-3" on="1"/>
        <pt x="25" y="-3" on="0"/>
        <pt x="25" y="10" on="1"/>
        <pt x="25" y="19" on="0"/>
        <pt x="39" y="25" on="0"/>
        <pt x="67" y="33" on="0"/>
        <pt x="84" y="47" on="0"/>
        <pt x="90" y="55" on="0"/>
        <pt x="96" y="66" on="0"/>
        <pt x="100" y="89" on="0"/>
        <pt x="104" y="115" on="0"/>
        <pt x="110" y="168" on="0"/>
        <pt x="118" y="225" on="0"/>
        <pt x="131" y="324" on="0"/>
        <pt x="167" y="584" on="0"/>
        <pt x="167" y="632" on="1"/>
        <pt x="167" y="685" on="0"/>
        <pt x="106" y="687" on="1"/>
        <pt x="94" y="687" on="0"/>
        <pt x="77" y="699" on="0"/>
        <pt x="77" y="707" on="1"/>
        <pt x="77" y="719" on="0"/>
        <pt x="93" y="719" on="1"/>
        <pt x="95" y="719" on="0"/>
        <pt x="108" y="717" on="1"/>
        <pt x="147" y="711" on="0"/>
        <pt x="207" y="711" on="1"/>
        <pt x="298" y="715" on="1"/>
        <pt x="319" y="715" on="0"/>
        <pt x="319" y="702" on="1"/>
        <pt x="319" y="694" on="0"/>
        <pt x="299" y="686" on="0"/>
        <pt x="274" y="680" on="0"/>
        <pt x="250" y="652" on="0"/>
        <pt x="246" y="627" on="1"/>
        <pt x="175" y="112" on="0"/>
        <pt x="175" y="59" on="0"/>
        <pt x="212" y="38" on="0"/>
        <pt x="351" y="38" on="0"/>
        <pt x="452" y="53" on="0"/>
        <pt x="505" y="75" on="0"/>
        <pt x="541" y="100" on="0"/>
        <pt x="548" y="111" on="1"/>
        <pt x="563" y="137" on="0"/>
        <pt x="572" y="137" on="1"/>
        <pt x="584" y="137" on="0"/>
        <pt x="584" y="101" on="0"/>
        <pt x="539" y="26" on="0"/>
        <pt x="528" y="16" on="1"/>
        <pt x="501" y="-8" on="0"/>
        <pt x="467" y="-8" on="1"/>
        <pt x="420" y="-8" on="1"/>
        <pt x="373" y="-8" on="0"/>
        <pt x="201" y="3" on="0"/>
      </contour>
    </TTGlyph>
    <TTGlyph name="Lacute" xMin="25" yMin="-8" xMax="584" yMax="924">
      <component glyphName="acutecomb" x="434" y="264" flags="0x1004"/>
      <component glyphName="L" x="0" y="0" flags="0x1004"/>
    </TTGlyph>
    <TTGlyph name="Lcaron" xMin="25" yMin="-8" xMax="584" yMax="749">
      <component glyphName="uni0315" x="652" y="10" flags="0x1004"/>
      <component glyphName="L" x="0" y="0" flags="0x1004"/>
    </TTGlyph>
    <TTGlyph name="Lcommaaccent" xMin="25" yMin="-199" xMax="584" yMax="719">
      <component glyphName="uni0326" x="500" y="0" flags="0x1004"/>
      <component glyphName="L" x="0" y="0" flags="0x1004"/>
    </TTGlyph>
    <TTGlyph name="Ldot" xMin="25" yMin="-8" xMax="584" yMax="719">
      <component glyphName="periodcentered" x="295" y="0" flags="0x1004"/>
      <component glyphName="L" x="0" y="0" flags="0x1004"/>
    </TTGlyph>
    <TTGlyph name="Lslash" xMin="20" yMin="-8" xMax="579" yMax="719">
      <contour>
        <pt x="169" y="3" on="1"/>
        <pt x="43" y="-3" on="1"/>
        <pt x="20" y="-3" on="0"/>
        <pt x="20" y="10" on="1"/>
        <pt x="20" y="19" on="0"/>
        <pt x="34" y="25" on="0"/>
        <pt x="62" y="33" on="0"/>
        <pt x="87" y="55" on="0"/>
        <pt x="98" y="99" on="0"/>
        <pt x="115" y="247" on="0"/>
        <pt x="120" y="284" on="0"/>
        <pt x="120" y="288" on="1"/>
        <pt x="121" y="292" on="1"/>
        <pt x="121" y="297" on="0"/>
        <pt x="113" y="297" on="0"/>
        <pt x="109" y="295" on="1"/>
        <pt x="59" y="277" on="1"/>
        <pt x="53" y="275" on="0"/>
        <pt x="49" y="275" on="1"/>
        <pt x="37" y="275" on="0"/>
        <pt x="37" y="314" on="0"/>
        <pt x="45" y="318" on="1"/>
        <pt x="117" y="343" on="1"/>
        <pt x="129" y="347" on="0"/>
        <pt x="131" y="367" on="1"/>
        <pt x="162" y="588" on="0"/>
        <pt x="162" y="632" on="1"/>
        <pt x="162" y="685" on="0"/>
        <pt x="101" y="687" on="1"/>
        <pt x="89" y="687" on="0"/>
        <pt x="72" y="699" on="0"/>
        <pt x="72" y="707" on="1"/>
        <pt x="72" y="719" on="0"/>
        <pt x="88" y="719" on="1"/>
        <pt x="90" y="719" on="0"/>
        <pt x="103" y="717" on="1"/>
        <pt x="142" y="711" on="0"/>
        <pt x="202" y="711" on="1"/>
        <pt x="293" y="715" on="1"/>
        <pt x="314" y="715" on="0"/>
        <pt x="314" y="702" on="1"/>
        <pt x="314" y="694" on="0"/>
        <pt x="294" y="686" on="0"/>
        <pt x="269" y="680" on="0"/>
        <pt x="245" y="652" on="0"/>
        <pt x="241" y="627" on="1"/>
        <pt x="224" y="507" on="1"/>
        <pt x="208" y="387" on="0"/>
        <pt x="208" y="379" on="0"/>
        <pt x="212" y="379" on="1"/>
        <pt x="220" y="381" on="1"/>
        <pt x="430" y="461" on="1"/>
        <pt x="442" y="467" on="0"/>
        <pt x="449" y="467" on="1"/>
        <pt x="459" y="467" on="0"/>
        <pt x="459" y="434" on="0"/>
        <pt x="448" y="421" on="0"/>
        <pt x="433" y="416" on="1"/>
        <pt x="215" y="334" on="1"/>
        <pt x="200" y="329" on="0"/>
        <pt x="198" y="312" on="1"/>
        <pt x="170" y="95" on="0"/>
        <pt x="170" y="93" on="1"/>
        <pt x="170" y="59" on="0"/>
        <pt x="207" y="38" on="0"/>
        <pt x="346" y="38" on="0"/>
        <pt x="447" y="53" on="0"/>
        <pt x="500" y="75" on="0"/>
        <pt x="536" y="100" on="0"/>
        <pt x="542" y="111" on="1"/>
        <pt x="558" y="137" on="0"/>
        <pt x="567" y="137" on="1"/>
        <pt x="579" y="137" on="0"/>
        <pt x="579" y="101" on="0"/>
        <pt x="534" y="26" on="0"/>
        <pt x="523" y="16" on="1"/>
        <pt x="496" y="-8" on="0"/>
        <pt x="462" y="-8" on="1"/>
        <pt x="415" y="-8" on="1"/>
        <pt x="368" y="-8" on="0"/>
        <pt x="196" y="3" on="0"/>
      </contour>
    </TTGlyph>
    <TTGlyph name="M" xMin="20" yMin="-4" xMax="891" yMax="713">
      <contour>
        <pt x="116" y="1" on="1"/>
        <pt x="43" y="-2" on="1"/>
        <pt x="20" y="-2" on="0"/>
        <pt x="20" y="10" on="1"/>
        <pt x="20" y="14" on="1"/>
        <pt x="20" y="18" on="0"/>
        <pt x="23" y="19" on="0"/>
        <pt x="26" y="21" on="0"/>
        <pt x="29" y="23" on="0"/>
        <pt x="36" y="26" on="0"/>
        <pt x="39" y="27" on="1"/>
        <pt x="48" y="30" on="0"/>
        <pt x="58" y="34" on="1"/>
        <pt x="82" y="43" on="0"/>
        <pt x="93" y="76" on="1"/>
        <pt x="107" y="117" on="0"/>
        <pt x="126" y="230" on="0"/>
        <pt x="142" y="311" on="1"/>
        <pt x="175" y="471" on="0"/>
        <pt x="175" y="519" on="1"/>
        <pt x="175" y="519" on="0"/>
        <pt x="174" y="562" on="1"/>
        <pt x="174" y="613" on="0"/>
        <pt x="144" y="655" on="1"/>
        <pt x="132" y="671" on="0"/>
        <pt x="106" y="680" on="0"/>
        <pt x="83" y="680" on="1"/>
        <pt x="68" y="680" on="1"/>
        <pt x="53" y="680" on="0"/>
        <pt x="53" y="712" on="0"/>
        <pt x="124" y="712" on="1"/>
        <pt x="130" y="712" on="1"/>
        <pt x="194" y="713" on="1"/>
        <pt x="210" y="713" on="0"/>
        <pt x="232" y="671" on="0"/>
        <pt x="310" y="477" on="0"/>
        <pt x="358" y="370" on="1"/>
        <pt x="467" y="126" on="0"/>
        <pt x="484" y="126" on="0"/>
        <pt x="636" y="432" on="1"/>
        <pt x="637" y="434" on="0"/>
        <pt x="695" y="547" on="0"/>
        <pt x="721" y="601" on="0"/>
        <pt x="743" y="653" on="0"/>
        <pt x="753" y="678" on="0"/>
        <pt x="759" y="690" on="1"/>
        <pt x="769" y="708" on="0"/>
        <pt x="782" y="708" on="1"/>
        <pt x="812" y="708" on="1"/>
        <pt x="867" y="712" on="1"/>
        <pt x="891" y="712" on="0"/>
        <pt x="891" y="698" on="1"/>
        <pt x="891" y="694" on="0"/>
        <pt x="881" y="684" on="0"/>
        <pt x="873" y="682" on="0"/>
        <pt x="850" y="679" on="0"/>
        <pt x="843" y="676" on="0"/>
        <pt x="828" y="663" on="0"/>
        <pt x="824" y="651" on="1"/>
        <pt x="803" y="577" on="0"/>
        <pt x="803" y="454" on="1"/>
        <pt x="803" y="376" on="1"/>
        <pt x="801" y="234" on="1"/>
        <pt x="800" y="209" on="1"/>
        <pt x="799" y="106" on="1"/>
        <pt x="799" y="64" on="0"/>
        <pt x="821" y="30" on="0"/>
        <pt x="865" y="23" on="0"/>
        <pt x="873" y="22" on="1"/>
        <pt x="888" y="20" on="0"/>
        <pt x="888" y="10" on="1"/>
        <pt x="888" y="-4" on="0"/>
        <pt x="860" y="-4" on="1"/>
        <pt x="756" y="1" on="1"/>
        <pt x="673" y="-4" on="1"/>
        <pt x="652" y="-4" on="0"/>
        <pt x="652" y="8" on="1"/>
        <pt x="652" y="21" on="0"/>
        <pt x="678" y="26" on="1"/>
        <pt x="689" y="28" on="0"/>
        <pt x="713" y="48" on="0"/>
        <pt x="718" y="66" on="1"/>
        <pt x="733" y="116" on="0"/>
        <pt x="733" y="390" on="1"/>
        <pt x="733" y="505" on="0"/>
        <pt x="727" y="505" on="1"/>
        <pt x="717" y="505" on="0"/>
        <pt x="688" y="449" on="1"/>
        <pt x="542" y="166" on="1"/>
        <pt x="514" y="111" on="0"/>
        <pt x="468" y="16" on="0"/>
        <pt x="458" y="3" on="0"/>
        <pt x="449" y="3" on="1"/>
        <pt x="442" y="3" on="0"/>
        <pt x="381" y="137" on="0"/>
        <pt x="230" y="480" on="0"/>
        <pt x="223" y="493" on="0"/>
        <pt x="216" y="493" on="0"/>
        <pt x="206" y="459" on="0"/>
        <pt x="197" y="380" on="0"/>
        <pt x="143" y="102" on="0"/>
        <pt x="143" y="71" on="1"/>
        <pt x="143" y="33" on="0"/>
        <pt x="198" y="27" on="1"/>
        <pt x="223" y="24" on="0"/>
        <pt x="230" y="14" on="0"/>
        <pt x="230" y="10" on="1"/>
        <pt x="230" y="-2" on="0"/>
        <pt x="209" y="-2" on="1"/>
      </contour>
    </TTGlyph>
    <TTGlyph name="N" xMin="20" yMin="-6" xMax="785" yMax="712">
      <contour>
        <pt x="107" y="-2" on="1"/>
        <pt x="42" y="-5" on="1"/>
        <pt x="20" y="-5" on="0"/>
        <pt x="20" y="6" on="1"/>
        <pt x="20" y="15" on="0"/>
        <pt x="34" y="18" on="1"/>
        <pt x="54" y="24" on="0"/>
        <pt x="70" y="39" on="0"/>
        <pt x="83" y="55" on="0"/>
        <pt x="93" y="82" on="0"/>
        <pt x="99" y="103" on="0"/>
        <pt x="108" y="152" on="0"/>
        <pt x="113" y="186" on="0"/>
        <pt x="125" y="264" on="0"/>
        <pt x="131" y="306" on="0"/>
        <pt x="148" y="407" on="0"/>
        <pt x="152" y="437" on="1"/>
        <pt x="166" y="527" on="0"/>
        <pt x="166" y="584" on="0"/>
        <pt x="162" y="606" on="0"/>
        <pt x="158" y="618" on="0"/>
        <pt x="144" y="635" on="0"/>
        <pt x="140" y="640" on="0"/>
        <pt x="119" y="659" on="0"/>
        <pt x="117" y="661" on="1"/>
        <pt x="105" y="672" on="0"/>
        <pt x="59" y="675" on="0"/>
        <pt x="28" y="678" on="0"/>
        <pt x="28" y="691" on="1"/>
        <pt x="28" y="710" on="0"/>
        <pt x="95" y="710" on="1"/>
        <pt x="137" y="707" on="1"/>
        <pt x="167" y="708" on="1"/>
        <pt x="184" y="708" on="0"/>
        <pt x="197" y="693" on="0"/>
        <pt x="201" y="687" on="0"/>
        <pt x="212" y="672" on="0"/>
        <pt x="216" y="666" on="1"/>
        <pt x="453" y="338" on="0"/>
        <pt x="565" y="159" on="1"/>
        <pt x="585" y="127" on="0"/>
        <pt x="591" y="127" on="1"/>
        <pt x="610" y="127" on="0"/>
        <pt x="669" y="584" on="0"/>
        <pt x="669" y="644" on="0"/>
        <pt x="644" y="674" on="0"/>
        <pt x="628" y="676" on="1"/>
        <pt x="588" y="683" on="0"/>
        <pt x="588" y="702" on="1"/>
        <pt x="588" y="712" on="0"/>
        <pt x="613" y="712" on="1"/>
        <pt x="689" y="708" on="1"/>
        <pt x="759" y="712" on="1"/>
        <pt x="775" y="712" on="0"/>
        <pt x="785" y="706" on="0"/>
        <pt x="785" y="695" on="0"/>
        <pt x="782" y="691" on="0"/>
        <pt x="774" y="688" on="0"/>
        <pt x="771" y="688" on="1"/>
        <pt x="730" y="681" on="0"/>
        <pt x="704" y="605" on="0"/>
        <pt x="696" y="538" on="1"/>
        <pt x="654" y="185" on="0"/>
        <pt x="618" y="21" on="1"/>
        <pt x="617" y="13" on="0"/>
        <pt x="605" y="-6" on="0"/>
        <pt x="590" y="-6" on="0"/>
        <pt x="574" y="12" on="0"/>
        <pt x="544" y="60" on="0"/>
        <pt x="526" y="90" on="1"/>
        <pt x="462" y="195" on="0"/>
        <pt x="363" y="336" on="0"/>
        <pt x="304" y="420" on="0"/>
        <pt x="273" y="463" on="0"/>
        <pt x="260" y="481" on="1"/>
        <pt x="239" y="510" on="0"/>
        <pt x="226" y="536" on="0"/>
        <pt x="216" y="536" on="1"/>
        <pt x="202" y="536" on="0"/>
        <pt x="197" y="489" on="1"/>
        <pt x="186" y="378" on="0"/>
        <pt x="144" y="121" on="0"/>
        <pt x="144" y="40" on="0"/>
        <pt x="183" y="28" on="1"/>
        <pt x="187" y="27" on="0"/>
        <pt x="202" y="23" on="0"/>
        <pt x="210" y="21" on="0"/>
        <pt x="215" y="19" on="1"/>
        <pt x="224" y="15" on="0"/>
        <pt x="224" y="7" on="1"/>
        <pt x="224" y="-5" on="0"/>
        <pt x="207" y="-5" on="1"/>
        <pt x="202" y="-5" on="0"/>
        <pt x="160" y="-2" on="0"/>
      </contour>
    </TTGlyph>
    <TTGlyph name="Nacute" xMin="20" yMin="-6" xMax="785" yMax="924">
      <component glyphName="acutecomb" x="642" y="264" flags="0x1004"/>
      <component glyphName="N" x="0" y="0" flags="0x1004"/>
    </TTGlyph>
    <TTGlyph name="Ncaron" xMin="20" yMin="-6" xMax="785" yMax="910">
      <component glyphName="uni030C" x="642" y="264" flags="0x1004"/>
      <component glyphName="N" x="0" y="0" flags="0x1004"/>
    </TTGlyph>
    <TTGlyph name="Ncommaaccent" xMin="20" yMin="-199" xMax="785" yMax="712">
      <component glyphName="uni0326" x="569" y="0" flags="0x1004"/>
      <component glyphName="N" x="0" y="0" flags="0x1004"/>
    </TTGlyph>
    <TTGlyph name="Ntilde" xMin="20" yMin="-6" xMax="785" yMax="905">
      <component glyphName="tildecomb" x="642" y="264" flags="0x1004"/>
      <component glyphName="N" x="0" y="0" flags="0x1004"/>
    </TTGlyph>
    <TTGlyph name="O" xMin="39" yMin="-20" xMax="776" yMax="716">
      <contour>
        <pt x="39" y="314" on="1"/>
        <pt x="39" y="388" on="0"/>
        <pt x="92" y="530" on="0"/>
        <pt x="190" y="646" on="0"/>
        <pt x="343" y="716" on="0"/>
        <pt x="519" y="716" on="0"/>
        <pt x="654" y="659" on="0"/>
        <pt x="694" y="611" on="1"/>
        <pt x="776" y="513" on="0"/>
        <pt x="776" y="376" on="1"/>
        <pt x="776" y="228" on="0"/>
        <pt x="684" y="110" on="1"/>
        <pt x="638" y="51" on="0"/>
        <pt x="488" y="-20" on="0"/>
        <pt x="394" y="-20" on="1"/>
        <pt x="234" y="-20" on="0"/>
        <pt x="39" y="164" on="0"/>
      </contour>
      <contour>
        <pt x="125" y="347" on="1"/>
        <pt x="125" y="193" on="0"/>
        <pt x="289" y="16" on="0"/>
        <pt x="401" y="16" on="1"/>
        <pt x="488" y="16" on="0"/>
        <pt x="623" y="126" on="0"/>
        <pt x="688" y="289" on="0"/>
        <pt x="688" y="468" on="0"/>
        <pt x="667" y="521" on="1"/>
        <pt x="638" y="596" on="0"/>
        <pt x="511" y="686" on="0"/>
        <pt x="349" y="686" on="0"/>
        <pt x="233" y="621" on="0"/>
        <pt x="198" y="570" on="1"/>
        <pt x="125" y="464" on="0"/>
      </contour>
    </TTGlyph>
    <TTGlyph name="OE" xMin="39" yMin="-20" xMax="1032" yMax="716">
      <contour>
        <pt x="702" y="339" on="1"/>
        <pt x="670" y="340" on="1"/>
        <pt x="667" y="340" on="0"/>
        <pt x="664" y="340" on="1"/>
        <pt x="627" y="340" on="0"/>
        <pt x="626" y="322" on="1"/>
        <pt x="623" y="292" on="0"/>
        <pt x="614" y="232" on="1"/>
        <pt x="590" y="85" on="0"/>
        <pt x="590" y="74" on="1"/>
        <pt x="590" y="52" on="0"/>
        <pt x="632" y="38" on="0"/>
        <pt x="801" y="38" on="0"/>
        <pt x="920" y="69" on="0"/>
        <pt x="963" y="105" on="0"/>
        <pt x="992" y="136" on="0"/>
        <pt x="998" y="136" on="1"/>
        <pt x="1008" y="136" on="0"/>
        <pt x="1008" y="123" on="1"/>
        <pt x="1008" y="96" on="0"/>
        <pt x="923" y="-10" on="0"/>
        <pt x="891" y="-10" on="1"/>
        <pt x="819" y="-10" on="0"/>
        <pt x="605" y="0" on="0"/>
        <pt x="524" y="0" on="0"/>
        <pt x="446" y="-20" on="0"/>
        <pt x="394" y="-20" on="1"/>
        <pt x="234" y="-20" on="0"/>
        <pt x="39" y="164" on="0"/>
        <pt x="39" y="314" on="1"/>
        <pt x="39" y="388" on="0"/>
        <pt x="92" y="530" on="0"/>
        <pt x="190" y="646" on="0"/>
        <pt x="343" y="716" on="0"/>
        <pt x="434" y="716" on="1"/>
        <pt x="441" y="716" on="0"/>
        <pt x="575" y="703" on="0"/>
        <pt x="784" y="703" on="1"/>
        <pt x="1015" y="708" on="1"/>
        <pt x="1032" y="708" on="0"/>
        <pt x="1032" y="688" on="1"/>
        <pt x="1029" y="636" on="1"/>
        <pt x="1032" y="582" on="1"/>
        <pt x="1032" y="572" on="0"/>
        <pt x="1025" y="553" on="0"/>
        <pt x="1019" y="553" on="1"/>
        <pt x="1004" y="553" on="0"/>
        <pt x="1004" y="577" on="1"/>
        <pt x="1004" y="621" on="0"/>
        <pt x="971" y="641" on="1"/>
        <pt x="961" y="647" on="0"/>
        <pt x="910" y="661" on="0"/>
        <pt x="879" y="661" on="1"/>
        <pt x="725" y="664" on="1"/>
        <pt x="680" y="664" on="0"/>
        <pt x="662" y="644" on="0"/>
        <pt x="654" y="597" on="1"/>
        <pt x="630" y="429" on="0"/>
        <pt x="630" y="394" on="1"/>
        <pt x="630" y="384" on="0"/>
        <pt x="644" y="379" on="0"/>
        <pt x="802" y="379" on="0"/>
        <pt x="863" y="388" on="0"/>
        <pt x="886" y="416" on="0"/>
        <pt x="898" y="444" on="0"/>
        <pt x="904" y="456" on="0"/>
        <pt x="910" y="456" on="1"/>
        <pt x="922" y="456" on="0"/>
        <pt x="922" y="434" on="0"/>
        <pt x="906" y="357" on="0"/>
        <pt x="902" y="330" on="0"/>
        <pt x="901" y="301" on="1"/>
        <pt x="899" y="241" on="0"/>
        <pt x="884" y="241" on="1"/>
        <pt x="874" y="241" on="0"/>
        <pt x="874" y="258" on="1"/>
        <pt x="874" y="305" on="0"/>
        <pt x="856" y="318" on="1"/>
        <pt x="828" y="339" on="0"/>
        <pt x="750" y="339" on="1"/>
      </contour>
      <contour>
        <pt x="125" y="347" on="1"/>
        <pt x="125" y="193" on="0"/>
        <pt x="289" y="16" on="0"/>
        <pt x="401" y="16" on="1"/>
        <pt x="444" y="16" on="0"/>
        <pt x="472" y="27" on="0"/>
        <pt x="487" y="32" on="0"/>
        <pt x="500" y="52" on="0"/>
        <pt x="507" y="61" on="0"/>
        <pt x="515" y="93" on="0"/>
        <pt x="516" y="100" on="1"/>
        <pt x="526" y="162" on="0"/>
        <pt x="543" y="263" on="0"/>
        <pt x="547" y="294" on="1"/>
        <pt x="583" y="597" on="1"/>
        <pt x="584" y="606" on="0"/>
        <pt x="584" y="636" on="0"/>
        <pt x="542" y="665" on="0"/>
        <pt x="512" y="672" on="1"/>
        <pt x="452" y="686" on="0"/>
        <pt x="420" y="686" on="1"/>
        <pt x="349" y="686" on="0"/>
        <pt x="233" y="621" on="0"/>
        <pt x="198" y="570" on="1"/>
        <pt x="125" y="464" on="0"/>
      </contour>
    </TTGlyph>
    <TTGlyph name="Oacute" xMin="39" yMin="-20" xMax="776" yMax="924">
      <component glyphName="acutecomb" x="653" y="264" flags="0x1004"/>
      <component glyphName="O" x="0" y="0" flags="0x1004"/>
    </TTGlyph>
    <TTGlyph name="Obreve" xMin="39" yMin="-20" xMax="776" yMax="891">
      <component glyphName="uni0306" x="653" y="264" flags="0x1004"/>
      <component glyphName="O" x="0" y="0" flags="0x1004"/>
    </TTGlyph>
    <TTGlyph name="Ocircumflex" xMin="39" yMin="-20" xMax="776" yMax="910">
      <component glyphName="uni0302" x="653" y="264" flags="0x1004"/>
      <component glyphName="O" x="0" y="0" flags="0x1004"/>
    </TTGlyph>
    <TTGlyph name="Odieresis" xMin="39" yMin="-20" xMax="776" yMax="904">
      <component glyphName="uni0308" x="653" y="264" flags="0x1004"/>
      <component glyphName="O" x="0" y="0" flags="0x1004"/>
    </TTGlyph>
    <TTGlyph name="Ograve" xMin="39" yMin="-20" xMax="776" yMax="924">
      <component glyphName="gravecomb" x="653" y="264" flags="0x1004"/>
      <component glyphName="O" x="0" y="0" flags="0x1004"/>
    </TTGlyph>
    <TTGlyph name="Ohungarumlaut" xMin="39" yMin="-20" xMax="776" yMax="924">
      <component glyphName="uni030B" x="653" y="264" flags="0x1004"/>
      <component glyphName="O" x="0" y="0" flags="0x1004"/>
    </TTGlyph>
    <TTGlyph name="Omacron" xMin="39" yMin="-20" xMax="776" yMax="872">
      <component glyphName="uni0304" x="653" y="264" flags="0x1004"/>
      <component glyphName="O" x="0" y="0" flags="0x1004"/>
    </TTGlyph>
    <TTGlyph name="Oslash" xMin="39" yMin="-111" xMax="776" yMax="788">
      <contour>
        <pt x="70" y="154" on="0"/>
        <pt x="39" y="255" on="0"/>
        <pt x="39" y="388" on="0"/>
        <pt x="92" y="530" on="0"/>
        <pt x="190" y="646" on="0"/>
        <pt x="343" y="716" on="0"/>
        <pt x="434" y="716" on="1"/>
        <pt x="512" y="716" on="0"/>
        <pt x="562" y="696" on="1"/>
        <pt x="569" y="694" on="0"/>
        <pt x="573" y="694" on="0"/>
        <pt x="582" y="711" on="1"/>
        <pt x="617" y="773" on="1"/>
        <pt x="626" y="788" on="0"/>
        <pt x="642" y="788" on="0"/>
        <pt x="662" y="776" on="0"/>
        <pt x="662" y="766" on="0"/>
        <pt x="660" y="760" on="1"/>
        <pt x="622" y="694" on="1"/>
        <pt x="620" y="690" on="0"/>
        <pt x="616" y="684" on="0"/>
        <pt x="614" y="680" on="0"/>
        <pt x="612" y="678" on="0"/>
        <pt x="612" y="677" on="1"/>
        <pt x="621" y="672" on="1"/>
        <pt x="679" y="634" on="0"/>
        <pt x="712" y="588" on="1"/>
        <pt x="752" y="531" on="0"/>
        <pt x="776" y="422" on="0"/>
        <pt x="776" y="305" on="0"/>
        <pt x="729" y="168" on="0"/>
        <pt x="638" y="51" on="0"/>
        <pt x="488" y="-20" on="0"/>
        <pt x="394" y="-20" on="1"/>
        <pt x="333" y="-20" on="0"/>
        <pt x="274" y="-4" on="0"/>
        <pt x="246" y="5" on="0"/>
        <pt x="231" y="11" on="0"/>
        <pt x="228" y="11" on="0"/>
        <pt x="215" y="-13" on="1"/>
        <pt x="167" y="-96" on="1"/>
        <pt x="157" y="-111" on="0"/>
        <pt x="143" y="-111" on="0"/>
        <pt x="123" y="-97" on="0"/>
        <pt x="123" y="-84" on="0"/>
        <pt x="126" y="-79" on="1"/>
        <pt x="190" y="30" on="1"/>
        <pt x="190" y="31" on="0"/>
        <pt x="159" y="52" on="0"/>
        <pt x="115" y="94" on="0"/>
      </contour>
      <contour>
        <pt x="163" y="519" on="0"/>
        <pt x="125" y="403" on="0"/>
        <pt x="125" y="297" on="0"/>
        <pt x="145" y="208" on="0"/>
        <pt x="173" y="151" on="0"/>
        <pt x="202" y="108" on="0"/>
        <pt x="222" y="89" on="0"/>
        <pt x="226" y="89" on="0"/>
        <pt x="239" y="114" on="1"/>
        <pt x="539" y="636" on="1"/>
        <pt x="549" y="653" on="0"/>
        <pt x="549" y="658" on="0"/>
        <pt x="531" y="666" on="1"/>
        <pt x="482" y="686" on="0"/>
        <pt x="349" y="686" on="0"/>
        <pt x="233" y="621" on="0"/>
      </contour>
      <contour>
        <pt x="258" y="57" on="0"/>
        <pt x="297" y="36" on="0"/>
        <pt x="367" y="16" on="0"/>
        <pt x="401" y="16" on="1"/>
        <pt x="488" y="16" on="0"/>
        <pt x="623" y="126" on="0"/>
        <pt x="688" y="289" on="0"/>
        <pt x="688" y="380" on="1"/>
        <pt x="688" y="532" on="0"/>
        <pt x="608" y="613" on="1"/>
        <pt x="590" y="631" on="0"/>
        <pt x="587" y="631" on="1"/>
        <pt x="586" y="631" on="0"/>
        <pt x="382" y="277" on="0"/>
        <pt x="258" y="63" on="0"/>
      </contour>
    </TTGlyph>
    <TTGlyph name="Otilde" xMin="39" yMin="-20" xMax="776" yMax="905">
      <component glyphName="tildecomb" x="653" y="264" flags="0x1004"/>
      <component glyphName="O" x="0" y="0" flags="0x1004"/>
    </TTGlyph>
    <TTGlyph name="P" xMin="19" yMin="-5" xMax="537" yMax="717">
      <contour>
        <pt x="132" y="2" on="1"/>
        <pt x="51" y="-4" on="1"/>
        <pt x="19" y="-4" on="0"/>
        <pt x="19" y="10" on="1"/>
        <pt x="19" y="21" on="0"/>
        <pt x="40" y="25" on="1"/>
        <pt x="43" y="26" on="0"/>
        <pt x="44" y="26" on="1"/>
        <pt x="76" y="32" on="0"/>
        <pt x="87" y="78" on="1"/>
        <pt x="90" y="94" on="0"/>
        <pt x="152" y="588" on="0"/>
        <pt x="152" y="636" on="1"/>
        <pt x="152" y="688" on="0"/>
        <pt x="83" y="690" on="1"/>
        <pt x="65" y="690" on="0"/>
        <pt x="65" y="704" on="1"/>
        <pt x="65" y="716" on="0"/>
        <pt x="88" y="716" on="1"/>
        <pt x="245" y="710" on="1"/>
        <pt x="245" y="710" on="0"/>
        <pt x="353" y="717" on="1"/>
        <pt x="437" y="717" on="0"/>
        <pt x="537" y="632" on="0"/>
        <pt x="537" y="487" on="0"/>
        <pt x="469" y="372" on="0"/>
        <pt x="410" y="347" on="1"/>
        <pt x="371" y="331" on="0"/>
        <pt x="324" y="331" on="1"/>
        <pt x="235" y="331" on="0"/>
        <pt x="235" y="347" on="1"/>
        <pt x="235" y="349" on="0"/>
        <pt x="238" y="349" on="1"/>
        <pt x="264" y="348" on="1"/>
        <pt x="293" y="348" on="1"/>
        <pt x="350" y="348" on="0"/>
        <pt x="458" y="454" on="0"/>
        <pt x="458" y="540" on="1"/>
        <pt x="458" y="573" on="0"/>
        <pt x="432" y="625" on="0"/>
        <pt x="420" y="636" on="1"/>
        <pt x="365" y="684" on="0"/>
        <pt x="294" y="684" on="1"/>
        <pt x="274" y="684" on="0"/>
        <pt x="260" y="683" on="0"/>
        <pt x="254" y="681" on="0"/>
        <pt x="250" y="677" on="1"/>
        <pt x="233" y="662" on="0"/>
        <pt x="192" y="318" on="1"/>
        <pt x="182" y="233" on="0"/>
        <pt x="173" y="160" on="1"/>
        <pt x="162" y="81" on="1"/>
        <pt x="162" y="54" on="0"/>
        <pt x="208" y="27" on="0"/>
        <pt x="254" y="17" on="0"/>
        <pt x="254" y="10" on="1"/>
        <pt x="254" y="-5" on="0"/>
        <pt x="235" y="-5" on="1"/>
        <pt x="228" y="-5" on="0"/>
        <pt x="162" y="2" on="0"/>
      </contour>
    </TTGlyph>
    <TTGlyph name="Q" xMin="39" yMin="-200" xMax="773" yMax="717">
      <contour>
        <pt x="39" y="-40" on="1"/>
        <pt x="39" y="-3" on="0"/>
        <pt x="64" y="50" on="0"/>
        <pt x="93" y="70" on="0"/>
        <pt x="118" y="84" on="0"/>
        <pt x="118" y="93" on="0"/>
        <pt x="93" y="127" on="0"/>
        <pt x="64" y="170" on="0"/>
        <pt x="39" y="252" on="0"/>
        <pt x="39" y="347" on="0"/>
        <pt x="60" y="448" on="0"/>
        <pt x="117" y="565" on="0"/>
        <pt x="204" y="656" on="0"/>
        <pt x="351" y="717" on="0"/>
        <pt x="443" y="717" on="1"/>
        <pt x="553" y="717" on="0"/>
        <pt x="624" y="667" on="1"/>
        <pt x="639" y="656" on="0"/>
        <pt x="649" y="646" on="0"/>
        <pt x="684" y="618" on="0"/>
        <pt x="702" y="595" on="1"/>
        <pt x="773" y="499" on="0"/>
        <pt x="773" y="220" on="0"/>
        <pt x="592" y="5" on="0"/>
        <pt x="470" y="-10" on="1"/>
        <pt x="425" y="-15" on="0"/>
        <pt x="416" y="-24" on="0"/>
        <pt x="416" y="-31" on="0"/>
        <pt x="509" y="-82" on="0"/>
        <pt x="637" y="-135" on="0"/>
        <pt x="700" y="-135" on="0"/>
        <pt x="739" y="-110" on="0"/>
        <pt x="758" y="-86" on="0"/>
        <pt x="763" y="-86" on="1"/>
        <pt x="771" y="-86" on="0"/>
        <pt x="771" y="-96" on="1"/>
        <pt x="771" y="-124" on="0"/>
        <pt x="690" y="-200" on="0"/>
        <pt x="589" y="-200" on="0"/>
        <pt x="424" y="-126" on="0"/>
        <pt x="357" y="-82" on="1"/>
        <pt x="179" y="37" on="0"/>
        <pt x="115" y="37" on="0"/>
        <pt x="69" y="-19" on="0"/>
        <pt x="69" y="-82" on="0"/>
        <pt x="92" y="-131" on="0"/>
        <pt x="92" y="-133" on="1"/>
        <pt x="92" y="-146" on="0"/>
        <pt x="80" y="-146" on="1"/>
        <pt x="39" y="-146" on="0"/>
      </contour>
      <contour>
        <pt x="124" y="326" on="1"/>
        <pt x="124" y="196" on="0"/>
        <pt x="267" y="14" on="0"/>
        <pt x="404" y="14" on="1"/>
        <pt x="473" y="14" on="0"/>
        <pt x="584" y="82" on="0"/>
        <pt x="618" y="138" on="1"/>
        <pt x="687" y="253" on="0"/>
        <pt x="687" y="389" on="1"/>
        <pt x="687" y="491" on="0"/>
        <pt x="649" y="556" on="1"/>
        <pt x="620" y="607" on="0"/>
        <pt x="500" y="688" on="0"/>
        <pt x="425" y="688" on="1"/>
        <pt x="299" y="688" on="0"/>
        <pt x="124" y="494" on="0"/>
      </contour>
    </TTGlyph>
    <TTGlyph name="Q_u" xMin="0" yMin="-204" xMax="1118" yMax="727">
      <contour>
        <pt x="36" y="-55" on="0"/>
        <pt x="0" y="-23" on="0"/>
        <pt x="0" y="10" on="0"/>
        <pt x="12" y="31" on="0"/>
        <pt x="26" y="43" on="1"/>
        <pt x="56" y="70" on="0"/>
        <pt x="201" y="70" on="0"/>
        <pt x="360" y="23" on="0"/>
        <pt x="375" y="23" on="1"/>
        <pt x="402" y="23" on="0"/>
        <pt x="498" y="143" on="0"/>
        <pt x="524" y="196" on="0"/>
        <pt x="543" y="245" on="0"/>
        <pt x="566" y="344" on="0"/>
        <pt x="566" y="453" on="0"/>
        <pt x="522" y="561" on="0"/>
        <pt x="461" y="620" on="0"/>
        <pt x="424" y="639" on="1"/>
        <pt x="362" y="670" on="0"/>
        <pt x="317" y="670" on="1"/>
        <pt x="243" y="670" on="0"/>
        <pt x="130" y="575" on="0"/>
        <pt x="130" y="419" on="0"/>
        <pt x="222" y="316" on="0"/>
        <pt x="286" y="316" on="1"/>
        <pt x="322" y="316" on="0"/>
        <pt x="385" y="365" on="0"/>
        <pt x="385" y="406" on="1"/>
        <pt x="385" y="425" on="0"/>
        <pt x="366" y="450" on="0"/>
        <pt x="335" y="450" on="0"/>
        <pt x="328" y="431" on="1"/>
        <pt x="326" y="424" on="0"/>
        <pt x="320" y="422" on="0"/>
        <pt x="315" y="422" on="1"/>
        <pt x="287" y="422" on="0"/>
        <pt x="287" y="454" on="1"/>
        <pt x="287" y="475" on="0"/>
        <pt x="322" y="502" on="0"/>
        <pt x="376" y="502" on="0"/>
        <pt x="414" y="450" on="0"/>
        <pt x="414" y="423" on="1"/>
        <pt x="414" y="356" on="0"/>
        <pt x="363" y="312" on="1"/>
        <pt x="324" y="278" on="0"/>
        <pt x="267" y="278" on="1"/>
        <pt x="227" y="278" on="0"/>
        <pt x="153" y="298" on="0"/>
        <pt x="109" y="328" on="0"/>
        <pt x="90" y="348" on="1"/>
        <pt x="49" y="393" on="0"/>
        <pt x="49" y="475" on="1"/>
        <pt x="49" y="553" on="0"/>
        <pt x="110" y="635" on="1"/>
        <pt x="139" y="675" on="0"/>
        <pt x="245" y="727" on="0"/>
        <pt x="365" y="727" on="0"/>
        <pt x="447" y="701" on="0"/>
        <pt x="484" y="675" on="0"/>
        <pt x="529" y="634" on="0"/>
        <pt x="552" y="605" on="0"/>
        <pt x="570" y="573" on="1"/>
        <pt x="608" y="505" on="0"/>
        <pt x="608" y="380" on="1"/>
        <pt x="608" y="320" on="0"/>
        <pt x="570" y="201" on="0"/>
        <pt x="516" y="117" on="0"/>
        <pt x="461" y="51" on="0"/>
        <pt x="423" y="12" on="0"/>
        <pt x="423" y="10" on="1"/>
        <pt x="423" y="5" on="0"/>
        <pt x="642" y="-67" on="0"/>
        <pt x="915" y="-139" on="0"/>
        <pt x="1003" y="-139" on="0"/>
        <pt x="1048" y="-118" on="0"/>
        <pt x="1058" y="-105" on="1"/>
        <pt x="1084" y="-71" on="0"/>
        <pt x="1110" y="-71" on="0"/>
        <pt x="1110" y="-84" on="1"/>
        <pt x="1110" y="-93" on="0"/>
        <pt x="1082" y="-131" on="0"/>
        <pt x="1036" y="-173" on="0"/>
        <pt x="960" y="-204" on="0"/>
        <pt x="847" y="-204" on="0"/>
        <pt x="681" y="-168" on="0"/>
        <pt x="543" y="-117" on="0"/>
        <pt x="426" y="-66" on="0"/>
        <pt x="352" y="-30" on="0"/>
        <pt x="338" y="-30" on="0"/>
        <pt x="319" y="-41" on="1"/>
        <pt x="260" y="-75" on="0"/>
        <pt x="164" y="-75" on="1"/>
        <pt x="113" y="-75" on="0"/>
      </contour>
      <contour>
        <pt x="72" y="0" on="1"/>
        <pt x="72" y="-44" on="0"/>
        <pt x="162" y="-44" on="1"/>
        <pt x="230" y="-44" on="0"/>
        <pt x="272" y="-28" on="1"/>
        <pt x="288" y="-21" on="0"/>
        <pt x="288" y="-15" on="1"/>
        <pt x="288" y="-5" on="0"/>
        <pt x="176" y="37" on="0"/>
        <pt x="144" y="37" on="1"/>
        <pt x="72" y="37" on="0"/>
      </contour>
      <contour>
        <pt x="699" y="350" on="0"/>
        <pt x="672" y="320" on="0"/>
        <pt x="656" y="284" on="0"/>
        <pt x="637" y="284" on="0"/>
        <pt x="637" y="321" on="0"/>
        <pt x="707" y="424" on="0"/>
        <pt x="750" y="424" on="1"/>
        <pt x="766" y="424" on="0"/>
        <pt x="776" y="408" on="1"/>
        <pt x="788" y="386" on="0"/>
        <pt x="788" y="309" on="0"/>
        <pt x="749" y="91" on="0"/>
        <pt x="749" y="47" on="0"/>
        <pt x="767" y="47" on="1"/>
        <pt x="780" y="47" on="0"/>
        <pt x="804" y="65" on="0"/>
        <pt x="817" y="75" on="0"/>
        <pt x="838" y="100" on="0"/>
        <pt x="849" y="113" on="0"/>
        <pt x="876" y="145" on="0"/>
        <pt x="882" y="152" on="1"/>
        <pt x="947" y="230" on="0"/>
        <pt x="1000" y="408" on="1"/>
        <pt x="1005" y="425" on="0"/>
        <pt x="1026" y="425" on="1"/>
        <pt x="1060" y="425" on="0"/>
        <pt x="1060" y="405" on="1"/>
        <pt x="1060" y="401" on="0"/>
        <pt x="1045" y="342" on="1"/>
        <pt x="1001" y="169" on="0"/>
        <pt x="1001" y="85" on="1"/>
        <pt x="1001" y="70" on="0"/>
        <pt x="1016" y="56" on="0"/>
        <pt x="1025" y="56" on="1"/>
        <pt x="1057" y="56" on="0"/>
        <pt x="1083" y="99" on="1"/>
        <pt x="1085" y="103" on="0"/>
        <pt x="1091" y="114" on="0"/>
        <pt x="1094" y="120" on="0"/>
        <pt x="1096" y="123" on="1"/>
        <pt x="1102" y="129" on="0"/>
        <pt x="1106" y="129" on="1"/>
        <pt x="1118" y="129" on="0"/>
        <pt x="1118" y="119" on="1"/>
        <pt x="1118" y="82" on="0"/>
        <pt x="1015" y="-12" on="0"/>
        <pt x="965" y="-12" on="1"/>
        <pt x="936" y="-12" on="0"/>
        <pt x="936" y="42" on="1"/>
        <pt x="936" y="91" on="0"/>
        <pt x="954" y="193" on="0"/>
        <pt x="954" y="206" on="0"/>
        <pt x="948" y="206" on="1"/>
        <pt x="945" y="206" on="0"/>
        <pt x="937" y="188" on="0"/>
        <pt x="894" y="123" on="0"/>
        <pt x="856" y="79" on="1"/>
        <pt x="777" y="-14" on="0"/>
        <pt x="715" y="-14" on="1"/>
        <pt x="684" y="-14" on="0"/>
        <pt x="684" y="111" on="0"/>
        <pt x="726" y="304" on="0"/>
        <pt x="726" y="350" on="0"/>
        <pt x="707" y="350" on="1"/>
      </contour>
    </TTGlyph>
    <TTGlyph name="R" xMin="20" yMin="-8" xMax="617" yMax="710">
      <contour>
        <pt x="227" y="-3" on="1"/>
        <pt x="152" y="3" on="1"/>
        <pt x="123" y="3" on="0"/>
        <pt x="48" y="-6" on="0"/>
        <pt x="47" y="-6" on="1"/>
        <pt x="20" y="-6" on="0"/>
        <pt x="20" y="9" on="1"/>
        <pt x="20" y="19" on="0"/>
        <pt x="33" y="27" on="0"/>
        <pt x="62" y="35" on="0"/>
        <pt x="72" y="40" on="1"/>
        <pt x="86" y="48" on="0"/>
        <pt x="95" y="93" on="0"/>
        <pt x="122" y="337" on="0"/>
        <pt x="136" y="453" on="0"/>
        <pt x="149" y="551" on="0"/>
        <pt x="158" y="618" on="0"/>
        <pt x="158" y="624" on="1"/>
        <pt x="158" y="673" on="0"/>
        <pt x="96" y="678" on="1"/>
        <pt x="64" y="680" on="0"/>
        <pt x="64" y="701" on="0"/>
        <pt x="77" y="708" on="0"/>
        <pt x="94" y="708" on="1"/>
        <pt x="175" y="702" on="1"/>
        <pt x="200" y="702" on="0"/>
        <pt x="297" y="710" on="0"/>
        <pt x="386" y="710" on="0"/>
        <pt x="407" y="708" on="1"/>
        <pt x="475" y="702" on="0"/>
        <pt x="555" y="616" on="0"/>
        <pt x="555" y="499" on="0"/>
        <pt x="474" y="396" on="0"/>
        <pt x="396" y="369" on="1"/>
        <pt x="387" y="366" on="0"/>
        <pt x="387" y="341" on="0"/>
        <pt x="490" y="108" on="0"/>
        <pt x="516" y="74" on="1"/>
        <pt x="551" y="26" on="0"/>
        <pt x="598" y="26" on="1"/>
        <pt x="617" y="26" on="0"/>
        <pt x="617" y="15" on="1"/>
        <pt x="617" y="-8" on="0"/>
        <pt x="488" y="-8" on="0"/>
        <pt x="442" y="29" on="0"/>
        <pt x="385" y="156" on="0"/>
        <pt x="332" y="299" on="0"/>
        <pt x="308" y="350" on="0"/>
        <pt x="296" y="350" on="1"/>
        <pt x="250" y="349" on="1"/>
        <pt x="215" y="350" on="1"/>
        <pt x="204" y="350" on="0"/>
        <pt x="194" y="316" on="0"/>
        <pt x="189" y="262" on="1"/>
        <pt x="175" y="121" on="1"/>
        <pt x="172" y="86" on="1"/>
        <pt x="172" y="63" on="0"/>
        <pt x="200" y="36" on="0"/>
        <pt x="216" y="32" on="1"/>
        <pt x="261" y="23" on="0"/>
        <pt x="261" y="-3" on="0"/>
      </contour>
      <contour>
        <pt x="208" y="412" on="1"/>
        <pt x="208" y="386" on="0"/>
        <pt x="239" y="386" on="1"/>
        <pt x="253" y="386" on="1"/>
        <pt x="342" y="386" on="0"/>
        <pt x="407" y="401" on="0"/>
        <pt x="430" y="431" on="1"/>
        <pt x="468" y="481" on="0"/>
        <pt x="468" y="598" on="0"/>
        <pt x="393" y="676" on="0"/>
        <pt x="325" y="676" on="1"/>
        <pt x="280" y="676" on="0"/>
        <pt x="236" y="652" on="0"/>
        <pt x="230" y="570" on="0"/>
        <pt x="217" y="475" on="0"/>
        <pt x="208" y="417" on="0"/>
      </contour>
    </TTGlyph>
    <TTGlyph name="Racute" xMin="20" yMin="-8" xMax="617" yMax="924">
      <component glyphName="acutecomb" x="546" y="264" flags="0x1004"/>
      <component glyphName="R" x="0" y="0" flags="0x1004"/>
    </TTGlyph>
    <TTGlyph name="Rcaron" xMin="20" yMin="-8" xMax="617" yMax="910">
      <component glyphName="uni030C" x="546" y="264" flags="0x1004"/>
      <component glyphName="R" x="0" y="0" flags="0x1004"/>
    </TTGlyph>
    <TTGlyph name="Rcommaaccent" xMin="20" yMin="-199" xMax="617" yMax="710">
      <component glyphName="uni0326" x="519" y="0" flags="0x1004"/>
      <component glyphName="R" x="0" y="0" flags="0x1004"/>
    </TTGlyph>
    <TTGlyph name="S" xMin="20" yMin="-14" xMax="452" yMax="716">
      <contour>
        <pt x="441" y="676" on="1"/>
        <pt x="440" y="641" on="1"/>
        <pt x="440" y="624" on="1"/>
        <pt x="440" y="609" on="0"/>
        <pt x="452" y="543" on="0"/>
        <pt x="452" y="529" on="0"/>
        <pt x="441" y="518" on="0"/>
        <pt x="427" y="518" on="0"/>
        <pt x="417" y="537" on="0"/>
        <pt x="411" y="566" on="0"/>
        <pt x="384" y="612" on="0"/>
        <pt x="362" y="634" on="1"/>
        <pt x="313" y="682" on="0"/>
        <pt x="243" y="682" on="1"/>
        <pt x="185" y="682" on="0"/>
        <pt x="166" y="648" on="1"/>
        <pt x="151" y="620" on="0"/>
        <pt x="151" y="558" on="0"/>
        <pt x="190" y="489" on="0"/>
        <pt x="234" y="443" on="0"/>
        <pt x="322" y="361" on="0"/>
        <pt x="378" y="303" on="0"/>
        <pt x="409" y="264" on="0"/>
        <pt x="436" y="197" on="0"/>
        <pt x="436" y="133" on="0"/>
        <pt x="415" y="79" on="0"/>
        <pt x="366" y="22" on="0"/>
        <pt x="268" y="-14" on="0"/>
        <pt x="95" y="-14" on="0"/>
        <pt x="57" y="8" on="1"/>
        <pt x="43" y="16" on="0"/>
        <pt x="20" y="106" on="0"/>
        <pt x="20" y="157" on="0"/>
        <pt x="36" y="157" on="1"/>
        <pt x="43" y="157" on="0"/>
        <pt x="47" y="146" on="1"/>
        <pt x="63" y="94" on="0"/>
        <pt x="152" y="22" on="0"/>
        <pt x="224" y="22" on="1"/>
        <pt x="266" y="22" on="0"/>
        <pt x="327" y="46" on="0"/>
        <pt x="341" y="65" on="1"/>
        <pt x="366" y="99" on="0"/>
        <pt x="366" y="167" on="0"/>
        <pt x="332" y="225" on="0"/>
        <pt x="295" y="262" on="1"/>
        <pt x="178" y="378" on="1"/>
        <pt x="83" y="475" on="0"/>
        <pt x="83" y="555" on="1"/>
        <pt x="83" y="594" on="0"/>
        <pt x="105" y="650" on="0"/>
        <pt x="117" y="662" on="1"/>
        <pt x="168" y="716" on="0"/>
        <pt x="251" y="716" on="1"/>
        <pt x="286" y="716" on="0"/>
        <pt x="393" y="681" on="0"/>
        <pt x="398" y="681" on="0"/>
        <pt x="423" y="697" on="0"/>
        <pt x="428" y="697" on="1"/>
        <pt x="441" y="697" on="0"/>
      </contour>
    </TTGlyph>
    <TTGlyph name="Sacute" xMin="20" yMin="-14" xMax="452" yMax="924">
      <component glyphName="acutecomb" x="487" y="264" flags="0x1004"/>
      <component glyphName="S" x="0" y="0" flags="0x1004"/>
    </TTGlyph>
    <TTGlyph name="Scaron" xMin="20" yMin="-14" xMax="452" yMax="910">
      <component glyphName="uni030C" x="487" y="264" flags="0x1004"/>
      <component glyphName="S" x="0" y="0" flags="0x1004"/>
    </TTGlyph>
    <TTGlyph name="Scedilla" xMin="20" yMin="-199" xMax="452" yMax="716">
      <component glyphName="uni0327" x="438" y="0" flags="0x1004"/>
      <component glyphName="S" x="0" y="0" flags="0x1004"/>
    </TTGlyph>
    <TTGlyph name="Scircumflex" xMin="20" yMin="-14" xMax="452" yMax="910">
      <component glyphName="uni0302" x="487" y="264" flags="0x1004"/>
      <component glyphName="S" x="0" y="0" flags="0x1004"/>
    </TTGlyph>
    <TTGlyph name="T" xMin="29" yMin="-2" xMax="678" yMax="707">
      <contour>
        <pt x="296" y="4" on="1"/>
        <pt x="210" y="-1" on="1"/>
        <pt x="178" y="-1" on="0"/>
        <pt x="178" y="13" on="1"/>
        <pt x="178" y="26" on="0"/>
        <pt x="190" y="28" on="1"/>
        <pt x="193" y="28" on="0"/>
        <pt x="195" y="28" on="1"/>
        <pt x="201" y="30" on="0"/>
        <pt x="209" y="30" on="1"/>
        <pt x="238" y="34" on="0"/>
        <pt x="257" y="63" on="0"/>
        <pt x="261" y="93" on="1"/>
        <pt x="330" y="610" on="0"/>
        <pt x="330" y="638" on="1"/>
        <pt x="330" y="649" on="0"/>
        <pt x="304" y="654" on="0"/>
        <pt x="163" y="654" on="0"/>
        <pt x="105" y="640" on="0"/>
        <pt x="77" y="608" on="0"/>
        <pt x="64" y="580" on="0"/>
        <pt x="62" y="572" on="1"/>
        <pt x="57" y="551" on="0"/>
        <pt x="42" y="551" on="1"/>
        <pt x="29" y="551" on="0"/>
        <pt x="29" y="586" on="0"/>
        <pt x="36" y="605" on="0"/>
        <pt x="53" y="648" on="0"/>
        <pt x="65" y="696" on="0"/>
        <pt x="84" y="706" on="0"/>
        <pt x="107" y="706" on="1"/>
        <pt x="365" y="703" on="1"/>
        <pt x="467" y="703" on="0"/>
        <pt x="556" y="705" on="1"/>
        <pt x="646" y="707" on="1"/>
        <pt x="670" y="707" on="0"/>
        <pt x="673" y="696" on="1"/>
        <pt x="674" y="693" on="0"/>
        <pt x="674" y="687" on="1"/>
        <pt x="678" y="576" on="1"/>
        <pt x="678" y="553" on="0"/>
        <pt x="659" y="553" on="1"/>
        <pt x="651" y="553" on="0"/>
        <pt x="647" y="565" on="0"/>
        <pt x="646" y="570" on="1"/>
        <pt x="643" y="585" on="0"/>
        <pt x="624" y="640" on="0"/>
        <pt x="577" y="650" on="0"/>
        <pt x="483" y="650" on="1"/>
        <pt x="438" y="650" on="1"/>
        <pt x="414" y="650" on="0"/>
        <pt x="404" y="630" on="0"/>
        <pt x="398" y="571" on="0"/>
        <pt x="397" y="561" on="0"/>
        <pt x="396" y="545" on="0"/>
        <pt x="386" y="447" on="0"/>
        <pt x="372" y="340" on="1"/>
        <pt x="342" y="111" on="0"/>
        <pt x="342" y="58" on="0"/>
        <pt x="369" y="32" on="0"/>
        <pt x="385" y="31" on="1"/>
        <pt x="428" y="28" on="0"/>
        <pt x="428" y="-2" on="0"/>
        <pt x="403" y="-2" on="1"/>
      </contour>
    </TTGlyph>
    <TTGlyph name="T.001" xMin="20" yMin="-3" xMax="725" yMax="764">
      <contour>
        <pt x="85" y="412" on="1"/>
        <pt x="107" y="412" on="0"/>
        <pt x="101" y="468" on="0"/>
        <pt x="150" y="468" on="0"/>
        <pt x="173" y="428" on="0"/>
        <pt x="173" y="399" on="0"/>
        <pt x="167" y="386" on="0"/>
        <pt x="133" y="356" on="0"/>
        <pt x="111" y="356" on="1"/>
        <pt x="78" y="356" on="0"/>
        <pt x="20" y="436" on="0"/>
        <pt x="20" y="475" on="1"/>
        <pt x="20" y="627" on="0"/>
        <pt x="76" y="676" on="1"/>
        <pt x="102" y="700" on="0"/>
        <pt x="153" y="717" on="0"/>
        <pt x="228" y="717" on="0"/>
        <pt x="450" y="706" on="0"/>
        <pt x="638" y="694" on="0"/>
        <pt x="640" y="694" on="1"/>
        <pt x="659" y="694" on="1"/>
        <pt x="671" y="694" on="0"/>
        <pt x="671" y="699" on="1"/>
        <pt x="671" y="708" on="0"/>
        <pt x="652" y="725" on="0"/>
        <pt x="652" y="749" on="0"/>
        <pt x="679" y="764" on="0"/>
        <pt x="708" y="764" on="0"/>
        <pt x="725" y="740" on="0"/>
        <pt x="725" y="723" on="0"/>
        <pt x="722" y="709" on="0"/>
        <pt x="720" y="700" on="0"/>
        <pt x="709" y="686" on="0"/>
        <pt x="706" y="683" on="1"/>
        <pt x="699" y="674" on="0"/>
        <pt x="663" y="637" on="0"/>
        <pt x="569" y="637" on="0"/>
        <pt x="451" y="646" on="0"/>
        <pt x="428" y="646" on="0"/>
        <pt x="421" y="618" on="0"/>
        <pt x="410" y="517" on="0"/>
        <pt x="362" y="112" on="0"/>
        <pt x="362" y="59" on="0"/>
        <pt x="389" y="33" on="0"/>
        <pt x="405" y="33" on="1"/>
        <pt x="448" y="33" on="0"/>
        <pt x="448" y="13" on="1"/>
        <pt x="448" y="-2" on="0"/>
        <pt x="423" y="-2" on="1"/>
        <pt x="316" y="4" on="1"/>
        <pt x="225" y="-3" on="1"/>
        <pt x="198" y="-3" on="0"/>
        <pt x="198" y="13" on="1"/>
        <pt x="198" y="30" on="0"/>
        <pt x="235" y="32" on="1"/>
        <pt x="249" y="32" on="0"/>
        <pt x="277" y="61" on="0"/>
        <pt x="281" y="93" on="1"/>
        <pt x="350" y="610" on="0"/>
        <pt x="350" y="644" on="0"/>
        <pt x="320" y="653" on="0"/>
        <pt x="279" y="653" on="1"/>
        <pt x="233" y="653" on="1"/>
        <pt x="144" y="653" on="0"/>
        <pt x="120" y="638" on="1"/>
        <pt x="112" y="633" on="0"/>
        <pt x="102" y="622" on="1"/>
        <pt x="49" y="561" on="0"/>
        <pt x="49" y="499" on="1"/>
        <pt x="49" y="471" on="0"/>
        <pt x="53" y="453" on="0"/>
        <pt x="72" y="412" on="0"/>
      </contour>
    </TTGlyph>
    <TTGlyph name="Tbar" xMin="29" yMin="-2" xMax="678" yMax="707">
      <contour>
        <pt x="108" y="386" on="1"/>
        <pt x="189" y="387" on="1"/>
        <pt x="281" y="387" on="1"/>
        <pt x="290" y="387" on="0"/>
        <pt x="300" y="398" on="0"/>
        <pt x="301" y="405" on="0"/>
        <pt x="330" y="632" on="0"/>
        <pt x="330" y="638" on="1"/>
        <pt x="330" y="649" on="0"/>
        <pt x="304" y="654" on="0"/>
        <pt x="163" y="654" on="0"/>
        <pt x="105" y="640" on="0"/>
        <pt x="77" y="608" on="0"/>
        <pt x="64" y="580" on="0"/>
        <pt x="62" y="572" on="1"/>
        <pt x="57" y="551" on="0"/>
        <pt x="42" y="551" on="1"/>
        <pt x="29" y="551" on="0"/>
        <pt x="29" y="586" on="0"/>
        <pt x="36" y="605" on="0"/>
        <pt x="53" y="648" on="0"/>
        <pt x="65" y="696" on="0"/>
        <pt x="84" y="706" on="0"/>
        <pt x="107" y="706" on="1"/>
        <pt x="365" y="703" on="1"/>
        <pt x="467" y="703" on="0"/>
        <pt x="556" y="705" on="1"/>
        <pt x="646" y="707" on="1"/>
        <pt x="670" y="707" on="0"/>
        <pt x="673" y="696" on="1"/>
        <pt x="674" y="693" on="0"/>
        <pt x="674" y="687" on="1"/>
        <pt x="678" y="576" on="1"/>
        <pt x="678" y="553" on="0"/>
        <pt x="659" y="553" on="1"/>
        <pt x="651" y="553" on="0"/>
        <pt x="647" y="565" on="0"/>
        <pt x="646" y="570" on="1"/>
        <pt x="643" y="585" on="0"/>
        <pt x="624" y="640" on="0"/>
        <pt x="577" y="650" on="0"/>
        <pt x="483" y="650" on="1"/>
        <pt x="438" y="650" on="1"/>
        <pt x="414" y="650" on="0"/>
        <pt x="402" y="622" on="0"/>
        <pt x="389" y="488" on="0"/>
        <pt x="383" y="435" on="0"/>
        <pt x="382" y="427" on="1"/>
        <pt x="380" y="415" on="1"/>
        <pt x="380" y="411" on="0"/>
        <pt x="379" y="405" on="0"/>
        <pt x="379" y="404" on="1"/>
        <pt x="379" y="401" on="1"/>
        <pt x="379" y="387" on="0"/>
        <pt x="390" y="387" on="1"/>
        <pt x="566" y="387" on="1"/>
        <pt x="579" y="387" on="0"/>
        <pt x="579" y="361" on="0"/>
        <pt x="572" y="343" on="0"/>
        <pt x="568" y="343" on="1"/>
        <pt x="464" y="344" on="1"/>
        <pt x="390" y="344" on="1"/>
        <pt x="377" y="344" on="0"/>
        <pt x="370" y="336" on="0"/>
        <pt x="369" y="324" on="1"/>
        <pt x="342" y="113" on="0"/>
        <pt x="342" y="58" on="0"/>
        <pt x="369" y="32" on="0"/>
        <pt x="385" y="31" on="1"/>
        <pt x="428" y="28" on="0"/>
        <pt x="428" y="-2" on="0"/>
        <pt x="403" y="-2" on="1"/>
        <pt x="296" y="4" on="1"/>
        <pt x="210" y="-1" on="1"/>
        <pt x="178" y="-1" on="0"/>
        <pt x="178" y="13" on="1"/>
        <pt x="178" y="31" on="0"/>
        <pt x="205" y="30" on="1"/>
        <pt x="234" y="28" on="0"/>
        <pt x="250" y="52" on="1"/>
        <pt x="257" y="63" on="0"/>
        <pt x="261" y="93" on="1"/>
        <pt x="282" y="258" on="0"/>
        <pt x="292" y="334" on="0"/>
        <pt x="292" y="335" on="1"/>
        <pt x="292" y="345" on="0"/>
        <pt x="276" y="345" on="1"/>
        <pt x="102" y="342" on="1"/>
        <pt x="96" y="342" on="0"/>
        <pt x="96" y="355" on="1"/>
        <pt x="96" y="386" on="0"/>
      </contour>
    </TTGlyph>
    <TTGlyph name="Tbar.001" xMin="24" yMin="-3" xMax="725" yMax="764">
      <contour>
        <pt x="90" y="488" on="1"/>
        <pt x="112" y="488" on="0"/>
        <pt x="106" y="543" on="0"/>
        <pt x="129" y="543" on="1"/>
        <pt x="154" y="543" on="0"/>
        <pt x="177" y="504" on="0"/>
        <pt x="177" y="475" on="0"/>
        <pt x="171" y="462" on="0"/>
        <pt x="137" y="432" on="0"/>
        <pt x="84" y="432" on="0"/>
        <pt x="24" y="506" on="0"/>
        <pt x="24" y="604" on="0"/>
        <pt x="48" y="665" on="0"/>
        <pt x="81" y="696" on="0"/>
        <pt x="104" y="704" on="1"/>
        <pt x="138" y="717" on="0"/>
        <pt x="224" y="717" on="0"/>
        <pt x="449" y="706" on="0"/>
        <pt x="636" y="694" on="0"/>
        <pt x="640" y="694" on="1"/>
        <pt x="659" y="694" on="1"/>
        <pt x="671" y="694" on="0"/>
        <pt x="671" y="699" on="1"/>
        <pt x="671" y="708" on="0"/>
        <pt x="652" y="725" on="0"/>
        <pt x="652" y="749" on="0"/>
        <pt x="678" y="764" on="0"/>
        <pt x="707" y="764" on="0"/>
        <pt x="725" y="740" on="0"/>
        <pt x="725" y="723" on="0"/>
        <pt x="722" y="709" on="0"/>
        <pt x="720" y="700" on="0"/>
        <pt x="709" y="686" on="0"/>
        <pt x="706" y="683" on="1"/>
        <pt x="699" y="674" on="0"/>
        <pt x="663" y="637" on="0"/>
        <pt x="569" y="637" on="0"/>
        <pt x="451" y="646" on="0"/>
        <pt x="428" y="646" on="0"/>
        <pt x="420" y="617" on="0"/>
        <pt x="397" y="402" on="0"/>
        <pt x="397" y="401" on="1"/>
        <pt x="397" y="387" on="0"/>
        <pt x="412" y="387" on="1"/>
        <pt x="586" y="387" on="1"/>
        <pt x="599" y="387" on="0"/>
        <pt x="599" y="361" on="0"/>
        <pt x="592" y="343" on="0"/>
        <pt x="588" y="343" on="1"/>
        <pt x="486" y="344" on="1"/>
        <pt x="486" y="344" on="0"/>
        <pt x="412" y="344" on="1"/>
        <pt x="398" y="344" on="0"/>
        <pt x="388" y="337" on="0"/>
        <pt x="387" y="325" on="1"/>
        <pt x="362" y="114" on="0"/>
        <pt x="362" y="59" on="0"/>
        <pt x="389" y="33" on="0"/>
        <pt x="404" y="33" on="1"/>
        <pt x="447" y="33" on="0"/>
        <pt x="447" y="13" on="1"/>
        <pt x="447" y="-2" on="0"/>
        <pt x="423" y="-2" on="1"/>
        <pt x="316" y="4" on="1"/>
        <pt x="224" y="-3" on="1"/>
        <pt x="197" y="-3" on="0"/>
        <pt x="197" y="13" on="1"/>
        <pt x="197" y="30" on="0"/>
        <pt x="234" y="32" on="1"/>
        <pt x="249" y="32" on="0"/>
        <pt x="277" y="61" on="0"/>
        <pt x="281" y="93" on="1"/>
        <pt x="302" y="257" on="0"/>
        <pt x="312" y="333" on="0"/>
        <pt x="312" y="334" on="1"/>
        <pt x="312" y="345" on="0"/>
        <pt x="294" y="345" on="1"/>
        <pt x="122" y="342" on="1"/>
        <pt x="116" y="342" on="0"/>
        <pt x="116" y="355" on="1"/>
        <pt x="116" y="386" on="0"/>
        <pt x="128" y="386" on="1"/>
        <pt x="209" y="387" on="1"/>
        <pt x="300" y="387" on="1"/>
        <pt x="320" y="387" on="0"/>
        <pt x="322" y="415" on="1"/>
        <pt x="349" y="620" on="0"/>
        <pt x="349" y="644" on="0"/>
        <pt x="319" y="653" on="0"/>
        <pt x="278" y="653" on="1"/>
        <pt x="232" y="653" on="1"/>
        <pt x="163" y="654" on="1"/>
        <pt x="124" y="654" on="0"/>
        <pt x="107" y="643" on="1"/>
        <pt x="55" y="606" on="0"/>
        <pt x="55" y="551" on="1"/>
        <pt x="55" y="525" on="0"/>
        <pt x="78" y="488" on="0"/>
      </contour>
    </TTGlyph>
    <TTGlyph name="Tcaron" xMin="29" yMin="-2" xMax="678" yMax="910">
      <component glyphName="uni030C" x="593" y="264" flags="0x1004"/>
      <component glyphName="T" x="0" y="0" flags="0x1004"/>
    </TTGlyph>
    <TTGlyph name="Tcaron.001" xMin="20" yMin="-3" xMax="725" yMax="910">
      <component glyphName="uni030C" x="613" y="264" flags="0x1004"/>
      <component glyphName="T.001" x="0" y="0" flags="0x1004"/>
    </TTGlyph>
    <TTGlyph name="Thorn" xMin="20" yMin="-5" xMax="514" yMax="704">
      <contour>
        <pt x="132" y="1" on="1"/>
        <pt x="55" y="-5" on="1"/>
        <pt x="20" y="-5" on="0"/>
        <pt x="20" y="11" on="1"/>
        <pt x="20" y="24" on="0"/>
        <pt x="46" y="26" on="1"/>
        <pt x="56" y="27" on="0"/>
        <pt x="81" y="50" on="0"/>
        <pt x="88" y="72" on="1"/>
        <pt x="123" y="344" on="1"/>
        <pt x="158" y="617" on="0"/>
        <pt x="158" y="619" on="1"/>
        <pt x="158" y="666" on="0"/>
        <pt x="98" y="673" on="1"/>
        <pt x="73" y="676" on="0"/>
        <pt x="72" y="677" on="1"/>
        <pt x="64" y="680" on="0"/>
        <pt x="64" y="689" on="1"/>
        <pt x="64" y="704" on="0"/>
        <pt x="91" y="704" on="1"/>
        <pt x="102" y="704" on="0"/>
        <pt x="162" y="696" on="0"/>
        <pt x="194" y="696" on="1"/>
        <pt x="288" y="702" on="1"/>
        <pt x="306" y="702" on="0"/>
        <pt x="306" y="688" on="1"/>
        <pt x="306" y="681" on="0"/>
        <pt x="287" y="676" on="0"/>
        <pt x="260" y="669" on="0"/>
        <pt x="240" y="646" on="0"/>
        <pt x="224" y="552" on="0"/>
        <pt x="224" y="527" on="0"/>
        <pt x="233" y="527" on="1"/>
        <pt x="331" y="534" on="1"/>
        <pt x="415" y="534" on="0"/>
        <pt x="514" y="450" on="0"/>
        <pt x="514" y="368" on="1"/>
        <pt x="514" y="304" on="0"/>
        <pt x="446" y="190" on="0"/>
        <pt x="387" y="165" on="1"/>
        <pt x="346" y="148" on="0"/>
        <pt x="300" y="148" on="1"/>
        <pt x="212" y="148" on="0"/>
        <pt x="212" y="165" on="1"/>
        <pt x="212" y="167" on="0"/>
        <pt x="215" y="167" on="1"/>
        <pt x="270" y="165" on="1"/>
        <pt x="327" y="165" on="0"/>
        <pt x="435" y="271" on="0"/>
        <pt x="435" y="357" on="1"/>
        <pt x="435" y="390" on="0"/>
        <pt x="409" y="442" on="0"/>
        <pt x="396" y="453" on="1"/>
        <pt x="342" y="501" on="0"/>
        <pt x="271" y="501" on="1"/>
        <pt x="232" y="501" on="0"/>
        <pt x="218" y="485" on="0"/>
        <pt x="203" y="357" on="0"/>
        <pt x="179" y="193" on="0"/>
        <pt x="167" y="113" on="0"/>
        <pt x="167" y="77" on="0"/>
        <pt x="173" y="47" on="0"/>
        <pt x="188" y="33" on="0"/>
        <pt x="197" y="27" on="0"/>
        <pt x="221" y="23" on="0"/>
        <pt x="228" y="21" on="0"/>
        <pt x="238" y="19" on="0"/>
        <pt x="245" y="18" on="0"/>
        <pt x="248" y="17" on="1"/>
        <pt x="254" y="15" on="0"/>
        <pt x="254" y="2" on="0"/>
        <pt x="251" y="-1" on="1"/>
        <pt x="247" y="-5" on="0"/>
        <pt x="233" y="-5" on="1"/>
      </contour>
    </TTGlyph>
    <TTGlyph name="U" xMin="44" yMin="-19" xMax="807" yMax="708">
      <contour>
        <pt x="94" y="215" on="1"/>
        <pt x="131" y="626" on="1"/>
        <pt x="131" y="650" on="0"/>
        <pt x="104" y="674" on="0"/>
        <pt x="88" y="675" on="1"/>
        <pt x="44" y="678" on="0"/>
        <pt x="44" y="694" on="1"/>
        <pt x="44" y="708" on="0"/>
        <pt x="61" y="708" on="1"/>
        <pt x="96" y="705" on="1"/>
        <pt x="131" y="702" on="0"/>
        <pt x="175" y="702" on="1"/>
        <pt x="265" y="708" on="1"/>
        <pt x="285" y="708" on="0"/>
        <pt x="285" y="694" on="1"/>
        <pt x="285" y="679" on="0"/>
        <pt x="252" y="674" on="1"/>
        <pt x="239" y="672" on="0"/>
        <pt x="215" y="644" on="0"/>
        <pt x="208" y="567" on="0"/>
        <pt x="196" y="470" on="1"/>
        <pt x="172" y="265" on="0"/>
        <pt x="172" y="166" on="0"/>
        <pt x="186" y="117" on="0"/>
        <pt x="223" y="60" on="0"/>
        <pt x="303" y="25" on="0"/>
        <pt x="361" y="25" on="1"/>
        <pt x="555" y="25" on="0"/>
        <pt x="620" y="184" on="1"/>
        <pt x="642" y="240" on="0"/>
        <pt x="693" y="566" on="0"/>
        <pt x="693" y="617" on="1"/>
        <pt x="693" y="648" on="0"/>
        <pt x="650" y="672" on="0"/>
        <pt x="606" y="680" on="0"/>
        <pt x="606" y="705" on="0"/>
        <pt x="630" y="705" on="1"/>
        <pt x="630" y="705" on="0"/>
        <pt x="685" y="701" on="1"/>
        <pt x="789" y="705" on="1"/>
        <pt x="796" y="705" on="0"/>
        <pt x="807" y="697" on="0"/>
        <pt x="807" y="685" on="0"/>
        <pt x="795" y="682" on="1"/>
        <pt x="754" y="669" on="0"/>
        <pt x="743" y="631" on="1"/>
        <pt x="741" y="624" on="0"/>
        <pt x="728" y="528" on="1"/>
        <pt x="692" y="248" on="0"/>
        <pt x="657" y="164" on="1"/>
        <pt x="635" y="111" on="0"/>
        <pt x="573" y="50" on="0"/>
        <pt x="515" y="15" on="1"/>
        <pt x="491" y="1" on="0"/>
        <pt x="394" y="-19" on="0"/>
        <pt x="364" y="-19" on="1"/>
        <pt x="277" y="-19" on="0"/>
        <pt x="175" y="15" on="0"/>
        <pt x="111" y="80" on="0"/>
        <pt x="94" y="150" on="0"/>
      </contour>
    </TTGlyph>
    <TTGlyph name="Uacute" xMin="44" yMin="-19" xMax="807" yMax="924">
      <component glyphName="acutecomb" x="671" y="264" flags="0x1004"/>
      <component glyphName="U" x="0" y="0" flags="0x1004"/>
    </TTGlyph>
    <TTGlyph name="Ubreve" xMin="44" yMin="-19" xMax="807" yMax="891">
      <component glyphName="uni0306" x="671" y="264" flags="0x1004"/>
      <component glyphName="U" x="0" y="0" flags="0x1004"/>
    </TTGlyph>
    <TTGlyph name="Ucircumflex" xMin="44" yMin="-19" xMax="807" yMax="910">
      <component glyphName="uni0302" x="671" y="264" flags="0x1004"/>
      <component glyphName="U" x="0" y="0" flags="0x1004"/>
    </TTGlyph>
    <TTGlyph name="Udieresis" xMin="44" yMin="-19" xMax="807" yMax="904">
      <component glyphName="uni0308" x="671" y="264" flags="0x1004"/>
      <component glyphName="U" x="0" y="0" flags="0x1004"/>
    </TTGlyph>
    <TTGlyph name="Ugrave" xMin="44" yMin="-19" xMax="807" yMax="924">
      <component glyphName="gravecomb" x="671" y="264" flags="0x1004"/>
      <component glyphName="U" x="0" y="0" flags="0x1004"/>
    </TTGlyph>
    <TTGlyph name="Uhungarumlaut" xMin="44" yMin="-19" xMax="807" yMax="924">
      <component glyphName="uni030B" x="671" y="264" flags="0x1004"/>
      <component glyphName="U" x="0" y="0" flags="0x1004"/>
    </TTGlyph>
    <TTGlyph name="Umacron" xMin="44" yMin="-19" xMax="807" yMax="872">
      <component glyphName="uni0304" x="671" y="264" flags="0x1004"/>
      <component glyphName="U" x="0" y="0" flags="0x1004"/>
    </TTGlyph>
    <TTGlyph name="Uogonek" xMin="44" yMin="-195" xMax="807" yMax="708">
      <contour>
        <pt x="94" y="215" on="1"/>
        <pt x="131" y="626" on="1"/>
        <pt x="131" y="650" on="0"/>
        <pt x="104" y="674" on="0"/>
        <pt x="88" y="675" on="1"/>
        <pt x="44" y="678" on="0"/>
        <pt x="44" y="694" on="1"/>
        <pt x="44" y="708" on="0"/>
        <pt x="61" y="708" on="1"/>
        <pt x="96" y="705" on="1"/>
        <pt x="131" y="702" on="0"/>
        <pt x="175" y="702" on="1"/>
        <pt x="265" y="708" on="1"/>
        <pt x="285" y="708" on="0"/>
        <pt x="285" y="694" on="1"/>
        <pt x="285" y="679" on="0"/>
        <pt x="252" y="674" on="1"/>
        <pt x="239" y="672" on="0"/>
        <pt x="215" y="644" on="0"/>
        <pt x="208" y="567" on="0"/>
        <pt x="196" y="470" on="1"/>
        <pt x="172" y="265" on="0"/>
        <pt x="172" y="166" on="0"/>
        <pt x="186" y="117" on="0"/>
        <pt x="223" y="60" on="0"/>
        <pt x="303" y="25" on="0"/>
        <pt x="361" y="25" on="1"/>
        <pt x="555" y="25" on="0"/>
        <pt x="620" y="184" on="1"/>
        <pt x="642" y="240" on="0"/>
        <pt x="693" y="566" on="0"/>
        <pt x="693" y="617" on="1"/>
        <pt x="693" y="648" on="0"/>
        <pt x="650" y="672" on="0"/>
        <pt x="606" y="680" on="0"/>
        <pt x="606" y="705" on="0"/>
        <pt x="630" y="705" on="1"/>
        <pt x="630" y="705" on="0"/>
        <pt x="685" y="701" on="1"/>
        <pt x="789" y="705" on="1"/>
        <pt x="796" y="705" on="0"/>
        <pt x="807" y="697" on="0"/>
        <pt x="807" y="685" on="0"/>
        <pt x="795" y="682" on="1"/>
        <pt x="754" y="669" on="0"/>
        <pt x="743" y="631" on="1"/>
        <pt x="741" y="624" on="0"/>
        <pt x="728" y="528" on="1"/>
        <pt x="692" y="248" on="0"/>
        <pt x="657" y="164" on="1"/>
        <pt x="635" y="111" on="0"/>
        <pt x="573" y="50" on="0"/>
        <pt x="515" y="15" on="1"/>
        <pt x="489" y="-1" on="0"/>
        <pt x="426" y="-12" on="1"/>
        <pt x="405" y="-12" on="0"/>
        <pt x="398" y="-16" on="1"/>
        <pt x="377" y="-26" on="0"/>
        <pt x="339" y="-66" on="0"/>
        <pt x="339" y="-121" on="0"/>
        <pt x="369" y="-157" on="0"/>
        <pt x="403" y="-157" on="0"/>
        <pt x="435" y="-142" on="0"/>
        <pt x="438" y="-142" on="1"/>
        <pt x="444" y="-142" on="0"/>
        <pt x="444" y="-147" on="1"/>
        <pt x="444" y="-160" on="0"/>
        <pt x="387" y="-195" on="0"/>
        <pt x="356" y="-195" on="1"/>
        <pt x="281" y="-195" on="0"/>
        <pt x="281" y="-129" on="1"/>
        <pt x="281" y="-91" on="0"/>
        <pt x="327" y="-44" on="1"/>
        <pt x="342" y="-28" on="0"/>
        <pt x="342" y="-21" on="1"/>
        <pt x="342" y="-19" on="0"/>
        <pt x="316" y="-17" on="0"/>
        <pt x="272" y="-13" on="0"/>
        <pt x="246" y="-8" on="1"/>
        <pt x="185" y="4" on="0"/>
        <pt x="141" y="50" on="1"/>
        <pt x="111" y="80" on="0"/>
        <pt x="94" y="150" on="0"/>
      </contour>
    </TTGlyph>
    <TTGlyph name="Uring" xMin="44" yMin="-19" xMax="807" yMax="930">
      <component glyphName="uni030A" x="671" y="264" flags="0x1004"/>
      <component glyphName="U" x="0" y="0" flags="0x1004"/>
    </TTGlyph>
    <TTGlyph name="Utilde" xMin="44" yMin="-19" xMax="807" yMax="905">
      <component glyphName="tildecomb" x="671" y="264" flags="0x1004"/>
      <component glyphName="U" x="0" y="0" flags="0x1004"/>
    </TTGlyph>
    <TTGlyph name="V" xMin="20" yMin="-21" xMax="760" yMax="707">
      <contour>
        <pt x="675" y="702" on="1"/>
        <pt x="726" y="704" on="1"/>
        <pt x="760" y="704" on="0"/>
        <pt x="760" y="693" on="1"/>
        <pt x="760" y="680" on="0"/>
        <pt x="746" y="678" on="1"/>
        <pt x="728" y="677" on="0"/>
        <pt x="689" y="645" on="0"/>
        <pt x="629" y="536" on="0"/>
        <pt x="546" y="369" on="0"/>
        <pt x="500" y="292" on="0"/>
        <pt x="443" y="193" on="0"/>
        <pt x="402" y="123" on="0"/>
        <pt x="379" y="84" on="1"/>
        <pt x="332" y="6" on="0"/>
        <pt x="312" y="-16" on="1"/>
        <pt x="307" y="-21" on="0"/>
        <pt x="301" y="-21" on="1"/>
        <pt x="288" y="-21" on="0"/>
        <pt x="276" y="26" on="1"/>
        <pt x="273" y="34" on="0"/>
        <pt x="272" y="39" on="1"/>
        <pt x="135" y="535" on="1"/>
        <pt x="125" y="573" on="0"/>
        <pt x="114" y="606" on="0"/>
        <pt x="89" y="650" on="0"/>
        <pt x="64" y="665" on="0"/>
        <pt x="43" y="670" on="0"/>
        <pt x="36" y="670" on="1"/>
        <pt x="20" y="672" on="0"/>
        <pt x="20" y="690" on="1"/>
        <pt x="20" y="705" on="0"/>
        <pt x="56" y="705" on="1"/>
        <pt x="136" y="701" on="1"/>
        <pt x="214" y="705" on="1"/>
        <pt x="250" y="705" on="0"/>
        <pt x="250" y="692" on="1"/>
        <pt x="250" y="682" on="0"/>
        <pt x="223" y="677" on="0"/>
        <pt x="196" y="654" on="0"/>
        <pt x="196" y="600" on="0"/>
        <pt x="335" y="107" on="0"/>
        <pt x="346" y="107" on="1"/>
        <pt x="355" y="107" on="0"/>
        <pt x="624" y="608" on="0"/>
        <pt x="624" y="638" on="1"/>
        <pt x="624" y="654" on="0"/>
        <pt x="599" y="671" on="0"/>
        <pt x="584" y="672" on="1"/>
        <pt x="545" y="677" on="0"/>
        <pt x="545" y="693" on="1"/>
        <pt x="545" y="701" on="0"/>
        <pt x="552" y="707" on="0"/>
        <pt x="565" y="707" on="1"/>
      </contour>
    </TTGlyph>
    <TTGlyph name="W" xMin="20" yMin="-25" xMax="1033" yMax="710">
      <contour>
        <pt x="933" y="706" on="1"/>
        <pt x="999" y="710" on="1"/>
        <pt x="1033" y="710" on="0"/>
        <pt x="1033" y="695" on="1"/>
        <pt x="1033" y="682" on="0"/>
        <pt x="1014" y="680" on="1"/>
        <pt x="992" y="679" on="0"/>
        <pt x="953" y="647" on="0"/>
        <pt x="893" y="537" on="0"/>
        <pt x="810" y="369" on="0"/>
        <pt x="754" y="275" on="0"/>
        <pt x="711" y="198" on="1"/>
        <pt x="615" y="27" on="0"/>
        <pt x="586" y="-15" on="1"/>
        <pt x="580" y="-25" on="0"/>
        <pt x="559" y="-25" on="0"/>
        <pt x="552" y="-20" on="0"/>
        <pt x="548" y="-8" on="0"/>
        <pt x="545" y="5" on="0"/>
        <pt x="540" y="29" on="0"/>
        <pt x="537" y="39" on="1"/>
        <pt x="478" y="263" on="1"/>
        <pt x="473" y="283" on="0"/>
        <pt x="468" y="283" on="0"/>
        <pt x="427" y="214" on="1"/>
        <pt x="299" y="-2" on="0"/>
        <pt x="289" y="-14" on="1"/>
        <pt x="282" y="-21" on="0"/>
        <pt x="269" y="-21" on="0"/>
        <pt x="264" y="-10" on="1"/>
        <pt x="258" y="3" on="0"/>
        <pt x="119" y="564" on="0"/>
        <pt x="91" y="654" on="0"/>
        <pt x="73" y="665" on="1"/>
        <pt x="70" y="666" on="0"/>
        <pt x="59" y="673" on="0"/>
        <pt x="31" y="683" on="0"/>
        <pt x="20" y="691" on="0"/>
        <pt x="20" y="710" on="0"/>
        <pt x="40" y="710" on="1"/>
        <pt x="43" y="710" on="0"/>
        <pt x="105" y="703" on="0"/>
        <pt x="132" y="703" on="1"/>
        <pt x="211" y="707" on="1"/>
        <pt x="239" y="707" on="0"/>
        <pt x="239" y="695" on="1"/>
        <pt x="239" y="685" on="0"/>
        <pt x="226" y="684" on="1"/>
        <pt x="198" y="682" on="0"/>
        <pt x="177" y="661" on="0"/>
        <pt x="177" y="605" on="0"/>
        <pt x="306" y="103" on="0"/>
        <pt x="317" y="103" on="1"/>
        <pt x="319" y="103" on="0"/>
        <pt x="386" y="208" on="0"/>
        <pt x="451" y="323" on="0"/>
        <pt x="451" y="346" on="0"/>
        <pt x="446" y="366" on="1"/>
        <pt x="403" y="536" on="1"/>
        <pt x="401" y="542" on="0"/>
        <pt x="391" y="583" on="0"/>
        <pt x="387" y="598" on="0"/>
        <pt x="377" y="630" on="0"/>
        <pt x="372" y="638" on="1"/>
        <pt x="359" y="660" on="0"/>
        <pt x="334" y="676" on="0"/>
        <pt x="307" y="684" on="0"/>
        <pt x="294" y="691" on="0"/>
        <pt x="294" y="698" on="1"/>
        <pt x="294" y="708" on="0"/>
        <pt x="323" y="708" on="1"/>
        <pt x="400" y="703" on="1"/>
        <pt x="479" y="707" on="1"/>
        <pt x="510" y="707" on="0"/>
        <pt x="510" y="695" on="1"/>
        <pt x="510" y="682" on="0"/>
        <pt x="482" y="680" on="1"/>
        <pt x="472" y="680" on="0"/>
        <pt x="455" y="661" on="0"/>
        <pt x="455" y="631" on="0"/>
        <pt x="506" y="436" on="0"/>
        <pt x="510" y="436" on="1"/>
        <pt x="521" y="436" on="0"/>
        <pt x="612" y="628" on="0"/>
        <pt x="612" y="662" on="0"/>
        <pt x="578" y="680" on="0"/>
        <pt x="545" y="689" on="0"/>
        <pt x="545" y="708" on="0"/>
        <pt x="571" y="708" on="1"/>
        <pt x="649" y="705" on="1"/>
        <pt x="713" y="708" on="1"/>
        <pt x="743" y="708" on="0"/>
        <pt x="743" y="681" on="0"/>
        <pt x="730" y="681" on="1"/>
        <pt x="712" y="681" on="0"/>
        <pt x="688" y="661" on="0"/>
        <pt x="676" y="649" on="0"/>
        <pt x="662" y="627" on="0"/>
        <pt x="653" y="613" on="0"/>
        <pt x="635" y="581" on="0"/>
        <pt x="627" y="567" on="0"/>
        <pt x="606" y="527" on="0"/>
        <pt x="592" y="503" on="0"/>
        <pt x="572" y="466" on="0"/>
        <pt x="559" y="442" on="0"/>
        <pt x="546" y="420" on="0"/>
        <pt x="539" y="407" on="0"/>
        <pt x="532" y="395" on="0"/>
        <pt x="529" y="388" on="0"/>
        <pt x="527" y="383" on="0"/>
        <pt x="526" y="378" on="0"/>
        <pt x="526" y="376" on="1"/>
        <pt x="526" y="371" on="1"/>
        <pt x="526" y="353" on="0"/>
        <pt x="602" y="101" on="0"/>
        <pt x="617" y="101" on="0"/>
        <pt x="890" y="614" on="0"/>
        <pt x="890" y="643" on="1"/>
        <pt x="890" y="661" on="0"/>
        <pt x="867" y="678" on="0"/>
        <pt x="853" y="679" on="1"/>
        <pt x="816" y="682" on="0"/>
        <pt x="816" y="697" on="1"/>
        <pt x="816" y="710" on="0"/>
        <pt x="837" y="710" on="1"/>
      </contour>
    </TTGlyph>
    <TTGlyph name="Wcircumflex" xMin="20" yMin="-25" xMax="1033" yMax="910">
      <component glyphName="uni0302" x="750" y="264" flags="0x1004"/>
      <component glyphName="W" x="0" y="0" flags="0x1004"/>
    </TTGlyph>
    <TTGlyph name="X" xMin="20" yMin="-7" xMax="727" yMax="719">
      <contour>
        <pt x="128" y="3" on="1"/>
        <pt x="48" y="-7" on="1"/>
        <pt x="20" y="-7" on="0"/>
        <pt x="20" y="10" on="1"/>
        <pt x="20" y="20" on="0"/>
        <pt x="32" y="28" on="0"/>
        <pt x="54" y="31" on="0"/>
        <pt x="100" y="59" on="0"/>
        <pt x="140" y="99" on="0"/>
        <pt x="178" y="143" on="0"/>
        <pt x="191" y="160" on="1"/>
        <pt x="258" y="245" on="0"/>
        <pt x="345" y="354" on="0"/>
        <pt x="345" y="359" on="0"/>
        <pt x="332" y="390" on="0"/>
        <pt x="307" y="451" on="0"/>
        <pt x="268" y="548" on="0"/>
        <pt x="203" y="647" on="0"/>
        <pt x="178" y="653" on="1"/>
        <pt x="154" y="661" on="0"/>
        <pt x="141" y="661" on="1"/>
        <pt x="104" y="661" on="0"/>
        <pt x="61" y="609" on="0"/>
        <pt x="61" y="540" on="0"/>
        <pt x="86" y="525" on="1"/>
        <pt x="89" y="523" on="0"/>
        <pt x="100" y="520" on="0"/>
        <pt x="104" y="518" on="1"/>
        <pt x="113" y="514" on="0"/>
        <pt x="113" y="500" on="1"/>
        <pt x="113" y="481" on="0"/>
        <pt x="59" y="481" on="0"/>
        <pt x="24" y="549" on="0"/>
        <pt x="24" y="628" on="0"/>
        <pt x="53" y="682" on="0"/>
        <pt x="76" y="695" on="1"/>
        <pt x="118" y="719" on="0"/>
        <pt x="158" y="719" on="1"/>
        <pt x="223" y="719" on="0"/>
        <pt x="260" y="685" on="1"/>
        <pt x="317" y="634" on="0"/>
        <pt x="370" y="494" on="1"/>
        <pt x="384" y="457" on="0"/>
        <pt x="394" y="430" on="0"/>
        <pt x="402" y="430" on="0"/>
        <pt x="417" y="450" on="1"/>
        <pt x="482" y="537" on="1"/>
        <pt x="554" y="632" on="0"/>
        <pt x="554" y="657" on="1"/>
        <pt x="554" y="682" on="0"/>
        <pt x="495" y="689" on="0"/>
        <pt x="495" y="701" on="1"/>
        <pt x="495" y="716" on="0"/>
        <pt x="512" y="716" on="1"/>
        <pt x="593" y="713" on="1"/>
        <pt x="676" y="716" on="1"/>
        <pt x="707" y="716" on="0"/>
        <pt x="707" y="698" on="1"/>
        <pt x="707" y="687" on="0"/>
        <pt x="693" y="684" on="1"/>
        <pt x="656" y="678" on="0"/>
        <pt x="601" y="627" on="0"/>
        <pt x="458" y="444" on="0"/>
        <pt x="438" y="420" on="1"/>
        <pt x="416" y="393" on="0"/>
        <pt x="416" y="390" on="1"/>
        <pt x="416" y="378" on="0"/>
        <pt x="501" y="190" on="0"/>
        <pt x="554" y="96" on="0"/>
        <pt x="580" y="63" on="0"/>
        <pt x="630" y="33" on="0"/>
        <pt x="678" y="33" on="0"/>
        <pt x="708" y="48" on="0"/>
        <pt x="727" y="48" on="0"/>
        <pt x="727" y="37" on="1"/>
        <pt x="727" y="18" on="0"/>
        <pt x="665" y="-7" on="0"/>
        <pt x="572" y="-7" on="0"/>
        <pt x="509" y="17" on="0"/>
        <pt x="493" y="38" on="1"/>
        <pt x="469" y="69" on="0"/>
        <pt x="390" y="259" on="1"/>
        <pt x="367" y="313" on="0"/>
        <pt x="358" y="313" on="0"/>
        <pt x="333" y="280" on="1"/>
        <pt x="240" y="156" on="1"/>
        <pt x="188" y="85" on="0"/>
        <pt x="188" y="60" on="1"/>
        <pt x="188" y="32" on="0"/>
        <pt x="248" y="27" on="1"/>
        <pt x="265" y="27" on="0"/>
        <pt x="265" y="-2" on="0"/>
        <pt x="237" y="-2" on="1"/>
      </contour>
    </TTGlyph>
    <TTGlyph name="Y" xMin="20" yMin="-7" xMax="671" yMax="714">
      <contour>
        <pt x="413" y="-6" on="1"/>
        <pt x="300" y="1" on="1"/>
        <pt x="274" y="1" on="0"/>
        <pt x="225" y="-7" on="0"/>
        <pt x="216" y="-7" on="1"/>
        <pt x="189" y="-7" on="0"/>
        <pt x="189" y="6" on="1"/>
        <pt x="189" y="20" on="0"/>
        <pt x="214" y="24" on="1"/>
        <pt x="223" y="26" on="0"/>
        <pt x="227" y="27" on="1"/>
        <pt x="241" y="31" on="0"/>
        <pt x="253" y="58" on="0"/>
        <pt x="284" y="273" on="0"/>
        <pt x="284" y="308" on="0"/>
        <pt x="281" y="321" on="0"/>
        <pt x="272" y="344" on="0"/>
        <pt x="262" y="366" on="0"/>
        <pt x="238" y="411" on="0"/>
        <pt x="216" y="453" on="0"/>
        <pt x="175" y="532" on="0"/>
        <pt x="155" y="570" on="1"/>
        <pt x="105" y="668" on="0"/>
        <pt x="67" y="680" on="1"/>
        <pt x="64" y="681" on="0"/>
        <pt x="50" y="682" on="1"/>
        <pt x="20" y="683" on="0"/>
        <pt x="20" y="700" on="1"/>
        <pt x="20" y="714" on="0"/>
        <pt x="53" y="714" on="1"/>
        <pt x="146" y="710" on="1"/>
        <pt x="235" y="714" on="1"/>
        <pt x="265" y="714" on="0"/>
        <pt x="265" y="699" on="1"/>
        <pt x="265" y="689" on="0"/>
        <pt x="215" y="671" on="0"/>
        <pt x="215" y="657" on="1"/>
        <pt x="215" y="616" on="0"/>
        <pt x="259" y="540" on="1"/>
        <pt x="275" y="510" on="0"/>
        <pt x="296" y="463" on="1"/>
        <pt x="344" y="359" on="0"/>
        <pt x="350" y="359" on="0"/>
        <pt x="442" y="483" on="0"/>
        <pt x="534" y="631" on="0"/>
        <pt x="534" y="668" on="0"/>
        <pt x="512" y="680" on="0"/>
        <pt x="498" y="680" on="1"/>
        <pt x="463" y="678" on="0"/>
        <pt x="463" y="698" on="1"/>
        <pt x="463" y="712" on="0"/>
        <pt x="489" y="712" on="1"/>
        <pt x="542" y="710" on="1"/>
        <pt x="645" y="713" on="1"/>
        <pt x="671" y="713" on="0"/>
        <pt x="671" y="698" on="1"/>
        <pt x="671" y="692" on="0"/>
        <pt x="649" y="682" on="0"/>
        <pt x="616" y="669" on="0"/>
        <pt x="584" y="635" on="0"/>
        <pt x="412" y="383" on="0"/>
        <pt x="376" y="342" on="0"/>
        <pt x="359" y="300" on="0"/>
        <pt x="353" y="248" on="1"/>
        <pt x="337" y="95" on="0"/>
        <pt x="337" y="59" on="0"/>
        <pt x="370" y="31" on="0"/>
        <pt x="398" y="23" on="0"/>
        <pt x="408" y="22" on="1"/>
        <pt x="432" y="21" on="0"/>
        <pt x="432" y="8" on="1"/>
        <pt x="432" y="-1" on="0"/>
        <pt x="422" y="-6" on="0"/>
      </contour>
    </TTGlyph>
    <TTGlyph name="Y.001" xMin="20" yMin="-8" xMax="665" yMax="714">
      <contour>
        <pt x="67" y="680" on="1"/>
        <pt x="52" y="681" on="1"/>
        <pt x="20" y="681" on="0"/>
        <pt x="20" y="700" on="1"/>
        <pt x="20" y="714" on="0"/>
        <pt x="53" y="714" on="1"/>
        <pt x="158" y="709" on="1"/>
        <pt x="184" y="709" on="0"/>
        <pt x="231" y="714" on="0"/>
        <pt x="235" y="714" on="1"/>
        <pt x="265" y="714" on="0"/>
        <pt x="265" y="699" on="1"/>
        <pt x="265" y="689" on="0"/>
        <pt x="210" y="676" on="0"/>
        <pt x="210" y="662" on="1"/>
        <pt x="210" y="623" on="0"/>
        <pt x="258" y="540" on="1"/>
        <pt x="273" y="511" on="0"/>
        <pt x="330" y="395" on="0"/>
        <pt x="368" y="318" on="0"/>
        <pt x="374" y="318" on="0"/>
        <pt x="455" y="457" on="0"/>
        <pt x="535" y="621" on="0"/>
        <pt x="535" y="666" on="0"/>
        <pt x="512" y="681" on="0"/>
        <pt x="499" y="680" on="1"/>
        <pt x="463" y="677" on="0"/>
        <pt x="463" y="698" on="1"/>
        <pt x="463" y="712" on="0"/>
        <pt x="494" y="712" on="1"/>
        <pt x="494" y="712" on="0"/>
        <pt x="542" y="710" on="1"/>
        <pt x="645" y="713" on="1"/>
        <pt x="665" y="713" on="0"/>
        <pt x="665" y="699" on="1"/>
        <pt x="665" y="690" on="0"/>
        <pt x="656" y="688" on="1"/>
        <pt x="633" y="680" on="0"/>
        <pt x="598" y="657" on="0"/>
        <pt x="568" y="609" on="0"/>
        <pt x="539" y="551" on="0"/>
        <pt x="538" y="547" on="0"/>
        <pt x="535" y="542" on="0"/>
        <pt x="464" y="396" on="0"/>
        <pt x="432" y="347" on="0"/>
        <pt x="357" y="219" on="1"/>
        <pt x="234" y="9" on="0"/>
        <pt x="209" y="0" on="1"/>
        <pt x="200" y="-4" on="0"/>
        <pt x="168" y="-4" on="1"/>
        <pt x="93" y="-8" on="1"/>
        <pt x="79" y="-8" on="0"/>
        <pt x="58" y="4" on="0"/>
        <pt x="58" y="21" on="0"/>
        <pt x="79" y="30" on="0"/>
        <pt x="112" y="31" on="0"/>
        <pt x="138" y="42" on="1"/>
        <pt x="199" y="66" on="0"/>
        <pt x="266" y="165" on="1"/>
        <pt x="272" y="174" on="0"/>
        <pt x="289" y="197" on="0"/>
        <pt x="298" y="211" on="0"/>
        <pt x="303" y="218" on="1"/>
        <pt x="312" y="232" on="0"/>
        <pt x="312" y="260" on="0"/>
        <pt x="138" y="605" on="0"/>
        <pt x="98" y="664" on="0"/>
        <pt x="82" y="678" on="0"/>
      </contour>
    </TTGlyph>
    <TTGlyph name="Yacute" xMin="20" yMin="-7" xMax="671" yMax="924">
      <component glyphName="acutecomb" x="586" y="264" flags="0x1004"/>
      <component glyphName="Y" x="0" y="0" flags="0x1004"/>
    </TTGlyph>
    <TTGlyph name="Yacute.001" xMin="20" yMin="-8" xMax="665" yMax="924">
      <component glyphName="acutecomb" x="572" y="264" flags="0x1004"/>
      <component glyphName="Y.001" x="0" y="0" flags="0x1004"/>
    </TTGlyph>
    <TTGlyph name="Ycircumflex" xMin="20" yMin="-7" xMax="671" yMax="910">
      <component glyphName="uni0302" x="586" y="264" flags="0x1004"/>
      <component glyphName="Y" x="0" y="0" flags="0x1004"/>
    </TTGlyph>
    <TTGlyph name="Ycircumflex.001" xMin="20" yMin="-8" xMax="665" yMax="910">
      <component glyphName="uni0302" x="572" y="264" flags="0x1004"/>
      <component glyphName="Y.001" x="0" y="0" flags="0x1004"/>
    </TTGlyph>
    <TTGlyph name="Ydieresis" xMin="20" yMin="-7" xMax="671" yMax="904">
      <component glyphName="uni0308" x="586" y="264" flags="0x1004"/>
      <component glyphName="Y" x="0" y="0" flags="0x1004"/>
    </TTGlyph>
    <TTGlyph name="Ydieresis.001" xMin="20" yMin="-8" xMax="665" yMax="904">
      <component glyphName="uni0308" x="572" y="264" flags="0x1004"/>
      <component glyphName="Y.001" x="0" y="0" flags="0x1004"/>
    </TTGlyph>
    <TTGlyph name="Z" xMin="20" yMin="-10" xMax="567" yMax="715">
      <contour>
        <pt x="155" y="-4" on="1"/>
        <pt x="46" y="-9" on="1"/>
        <pt x="20" y="-9" on="0"/>
        <pt x="20" y="4" on="1"/>
        <pt x="20" y="16" on="0"/>
        <pt x="40" y="40" on="1"/>
        <pt x="80" y="89" on="0"/>
        <pt x="112" y="133" on="1"/>
        <pt x="469" y="609" on="0"/>
        <pt x="469" y="632" on="1"/>
        <pt x="469" y="636" on="0"/>
        <pt x="436" y="636" on="1"/>
        <pt x="383" y="635" on="1"/>
        <pt x="271" y="645" on="1"/>
        <pt x="213" y="645" on="0"/>
        <pt x="138" y="628" on="0"/>
        <pt x="89" y="575" on="0"/>
        <pt x="89" y="526" on="0"/>
        <pt x="100" y="502" on="0"/>
        <pt x="107" y="500" on="1"/>
        <pt x="125" y="493" on="0"/>
        <pt x="125" y="480" on="1"/>
        <pt x="125" y="464" on="0"/>
        <pt x="77" y="464" on="0"/>
        <pt x="57" y="513" on="0"/>
        <pt x="57" y="566" on="0"/>
        <pt x="82" y="630" on="0"/>
        <pt x="156" y="701" on="0"/>
        <pt x="221" y="715" on="0"/>
        <pt x="339" y="715" on="0"/>
        <pt x="475" y="701" on="0"/>
        <pt x="496" y="701" on="1"/>
        <pt x="545" y="707" on="1"/>
        <pt x="560" y="707" on="0"/>
        <pt x="567" y="699" on="0"/>
        <pt x="567" y="679" on="0"/>
        <pt x="132" y="89" on="0"/>
        <pt x="132" y="79" on="1"/>
        <pt x="132" y="71" on="0"/>
        <pt x="157" y="68" on="0"/>
        <pt x="205" y="68" on="1"/>
        <pt x="248" y="68" on="1"/>
        <pt x="304" y="68" on="0"/>
        <pt x="421" y="62" on="0"/>
        <pt x="435" y="62" on="1"/>
        <pt x="510" y="62" on="0"/>
        <pt x="510" y="89" on="1"/>
        <pt x="510" y="95" on="0"/>
        <pt x="482" y="105" on="0"/>
        <pt x="454" y="123" on="0"/>
        <pt x="454" y="160" on="0"/>
        <pt x="485" y="185" on="0"/>
        <pt x="525" y="185" on="0"/>
        <pt x="547" y="150" on="0"/>
        <pt x="547" y="136" on="1"/>
        <pt x="547" y="71" on="0"/>
        <pt x="488" y="23" on="1"/>
        <pt x="474" y="8" on="0"/>
        <pt x="445" y="-1" on="0"/>
        <pt x="433" y="-4" on="1"/>
        <pt x="409" y="-10" on="0"/>
        <pt x="276" y="-10" on="0"/>
        <pt x="157" y="-4" on="0"/>
      </contour>
    </TTGlyph>
    <TTGlyph name="Zacute" xMin="20" yMin="-10" xMax="567" yMax="924">
      <component glyphName="acutecomb" x="551" y="264" flags="0x1004"/>
      <component glyphName="Z" x="0" y="0" flags="0x1004"/>
    </TTGlyph>
    <TTGlyph name="Zcaron" xMin="20" yMin="-10" xMax="567" yMax="910">
      <component glyphName="uni030C" x="551" y="264" flags="0x1004"/>
      <component glyphName="Z" x="0" y="0" flags="0x1004"/>
    </TTGlyph>
    <TTGlyph name="Zdotaccent" xMin="20" yMin="-10" xMax="567" yMax="910">
      <component glyphName="uni0307" x="551" y="264" flags="0x1004"/>
      <component glyphName="Z" x="0" y="0" flags="0x1004"/>
    </TTGlyph>
    <TTGlyph name="a" xMin="32" yMin="-15" xMax="499" yMax="463">
      <contour>
        <pt x="75" y="-15" on="0"/>
        <pt x="32" y="54" on="0"/>
        <pt x="32" y="187" on="0"/>
        <pt x="148" y="371" on="0"/>
        <pt x="223" y="407" on="1"/>
        <pt x="260" y="425" on="0"/>
        <pt x="311" y="425" on="0"/>
        <pt x="364" y="414" on="0"/>
        <pt x="391" y="414" on="0"/>
        <pt x="423" y="463" on="0"/>
        <pt x="444" y="463" on="0"/>
        <pt x="444" y="439" on="0"/>
        <pt x="427" y="391" on="0"/>
        <pt x="423" y="375" on="0"/>
        <pt x="383" y="152" on="0"/>
        <pt x="383" y="102" on="0"/>
        <pt x="403" y="64" on="0"/>
        <pt x="435" y="64" on="0"/>
        <pt x="482" y="129" on="0"/>
        <pt x="499" y="129" on="0"/>
        <pt x="499" y="100" on="0"/>
        <pt x="460" y="44" on="0"/>
        <pt x="403" y="-7" on="0"/>
        <pt x="356" y="-7" on="0"/>
        <pt x="328" y="49" on="0"/>
        <pt x="323" y="105" on="0"/>
        <pt x="321" y="105" on="0"/>
        <pt x="300" y="80" on="0"/>
        <pt x="265" y="45" on="0"/>
        <pt x="244" y="28" on="1"/>
        <pt x="191" y="-15" on="0"/>
      </contour>
      <contour>
        <pt x="107" y="174" on="1"/>
        <pt x="102" y="144" on="0"/>
        <pt x="102" y="84" on="0"/>
        <pt x="147" y="40" on="0"/>
        <pt x="226" y="40" on="0"/>
        <pt x="295" y="103" on="0"/>
        <pt x="319" y="151" on="0"/>
        <pt x="332" y="210" on="1"/>
        <pt x="359" y="340" on="0"/>
        <pt x="359" y="383" on="0"/>
        <pt x="315" y="400" on="0"/>
        <pt x="261" y="400" on="0"/>
        <pt x="191" y="356" on="0"/>
        <pt x="169" y="319" on="1"/>
        <pt x="117" y="233" on="0"/>
      </contour>
    </TTGlyph>
    <TTGlyph name="aacute" xMin="32" yMin="-15" xMax="499" yMax="660">
      <component glyphName="acutecomb" x="509" y="0" flags="0x1004"/>
      <component glyphName="a" x="0" y="0" flags="0x1004"/>
    </TTGlyph>
    <TTGlyph name="abreve" xMin="32" yMin="-15" xMax="499" yMax="627">
      <component glyphName="uni0306" x="509" y="0" flags="0x1004"/>
      <component glyphName="a" x="0" y="0" flags="0x1004"/>
    </TTGlyph>
    <TTGlyph name="acircumflex" xMin="32" yMin="-15" xMax="499" yMax="646">
      <component glyphName="uni0302" x="509" y="0" flags="0x1004"/>
      <component glyphName="a" x="0" y="0" flags="0x1004"/>
    </TTGlyph>
    <TTGlyph name="acute" xMin="187" yMin="482" xMax="345" yMax="660">
      <component glyphName="acutecomb" x="439" y="0" flags="0x1004"/>
    </TTGlyph>
    <TTGlyph name="acutecomb" xMin="-252" yMin="482" xMax="-94" yMax="660">
      <contour>
        <pt x="-252" y="496" on="0"/>
        <pt x="-232" y="521" on="0"/>
        <pt x="-222" y="535" on="1"/>
        <pt x="-200" y="568" on="0"/>
        <pt x="-161" y="642" on="1"/>
        <pt x="-152" y="660" on="0"/>
        <pt x="-130" y="660" on="0"/>
        <pt x="-94" y="647" on="0"/>
        <pt x="-94" y="637" on="1"/>
        <pt x="-94" y="621" on="0"/>
        <pt x="-232" y="482" on="0"/>
        <pt x="-252" y="482" on="0"/>
      </contour>
    </TTGlyph>
    <TTGlyph name="adieresis" xMin="32" yMin="-15" xMax="499" yMax="640">
      <component glyphName="uni0308" x="509" y="0" flags="0x1004"/>
      <component glyphName="a" x="0" y="0" flags="0x1004"/>
    </TTGlyph>
    <TTGlyph name="ae" xMin="32" yMin="-15" xMax="672" yMax="463">
      <contour>
        <pt x="296" y="420" on="1"/>
        <pt x="376" y="414" on="1"/>
        <pt x="386" y="414" on="0"/>
        <pt x="418" y="463" on="0"/>
        <pt x="439" y="463" on="0"/>
        <pt x="439" y="440" on="0"/>
        <pt x="416" y="371" on="0"/>
        <pt x="416" y="355" on="0"/>
        <pt x="420" y="355" on="0"/>
        <pt x="434" y="372" on="0"/>
        <pt x="459" y="396" on="0"/>
        <pt x="476" y="408" on="1"/>
        <pt x="520" y="436" on="0"/>
        <pt x="585" y="436" on="1"/>
        <pt x="621" y="436" on="0"/>
        <pt x="672" y="394" on="0"/>
        <pt x="672" y="329" on="0"/>
        <pt x="629" y="272" on="0"/>
        <pt x="610" y="260" on="1"/>
        <pt x="541" y="215" on="0"/>
        <pt x="418" y="214" on="1"/>
        <pt x="401" y="214" on="0"/>
        <pt x="401" y="115" on="0"/>
        <pt x="473" y="48" on="0"/>
        <pt x="545" y="48" on="1"/>
        <pt x="587" y="48" on="0"/>
        <pt x="634" y="80" on="1"/>
        <pt x="650" y="91" on="0"/>
        <pt x="653" y="91" on="1"/>
        <pt x="666" y="91" on="0"/>
        <pt x="666" y="81" on="1"/>
        <pt x="666" y="60" on="0"/>
        <pt x="551" y="-12" on="0"/>
        <pt x="446" y="-12" on="0"/>
        <pt x="382" y="13" on="0"/>
        <pt x="354" y="48" on="0"/>
        <pt x="340" y="83" on="0"/>
        <pt x="334" y="108" on="0"/>
        <pt x="327" y="108" on="0"/>
        <pt x="289" y="70" on="0"/>
        <pt x="244" y="23" on="0"/>
        <pt x="173" y="-15" on="0"/>
        <pt x="139" y="-15" on="1"/>
        <pt x="75" y="-15" on="0"/>
        <pt x="32" y="54" on="0"/>
        <pt x="32" y="172" on="0"/>
        <pt x="101" y="313" on="0"/>
        <pt x="227" y="420" on="0"/>
      </contour>
      <contour>
        <pt x="102" y="120" on="1"/>
        <pt x="102" y="84" on="0"/>
        <pt x="147" y="40" on="0"/>
        <pt x="226" y="40" on="0"/>
        <pt x="295" y="103" on="0"/>
        <pt x="318" y="151" on="0"/>
        <pt x="343" y="265" on="0"/>
        <pt x="358" y="355" on="0"/>
        <pt x="358" y="359" on="1"/>
        <pt x="358" y="375" on="0"/>
        <pt x="318" y="393" on="0"/>
        <pt x="298" y="393" on="1"/>
        <pt x="228" y="393" on="0"/>
        <pt x="102" y="222" on="0"/>
      </contour>
      <contour>
        <pt x="448" y="338" on="0"/>
        <pt x="416" y="264" on="0"/>
        <pt x="416" y="231" on="0"/>
        <pt x="424" y="231" on="1"/>
        <pt x="495" y="231" on="0"/>
        <pt x="603" y="311" on="0"/>
        <pt x="603" y="359" on="1"/>
        <pt x="603" y="384" on="0"/>
        <pt x="568" y="406" on="0"/>
        <pt x="550" y="406" on="1"/>
        <pt x="513" y="406" on="0"/>
        <pt x="468" y="359" on="1"/>
      </contour>
    </TTGlyph>
    <TTGlyph name="afii00208" xMin="0" yMin="185" xMax="1000" yMax="238">
      <component glyphName="emdash" x="0" y="0" flags="0x1004"/>
    </TTGlyph>
    <TTGlyph name="afii00208.uppercase" xMin="0" yMin="307" xMax="1000" yMax="360">
      <component glyphName="emdash" x="0" y="122" flags="0x1004"/>
    </TTGlyph>
    <TTGlyph name="afii57929" xMin="172" yMin="587" xMax="269" yMax="739">
      <component glyphName="uni0315" x="439" y="0" flags="0x1004"/>
    </TTGlyph>
    <TTGlyph name="agrave" xMin="32" yMin="-15" xMax="499" yMax="660">
      <component glyphName="gravecomb" x="509" y="0" flags="0x1004"/>
      <component glyphName="a" x="0" y="0" flags="0x1004"/>
    </TTGlyph>
    <TTGlyph name="amacron" xMin="32" yMin="-15" xMax="499" yMax="608">
      <component glyphName="uni0304" x="509" y="0" flags="0x1004"/>
      <component glyphName="a" x="0" y="0" flags="0x1004"/>
    </TTGlyph>
    <TTGlyph name="ampersand" xMin="39" yMin="-10" xMax="815" yMax="722">
      <contour>
        <pt x="39" y="219" on="1"/>
        <pt x="39" y="274" on="0"/>
        <pt x="68" y="328" on="1"/>
        <pt x="110" y="403" on="0"/>
        <pt x="167" y="435" on="1"/>
        <pt x="183" y="444" on="0"/>
        <pt x="197" y="453" on="0"/>
        <pt x="197" y="460" on="0"/>
        <pt x="196" y="466" on="1"/>
        <pt x="190" y="490" on="0"/>
        <pt x="190" y="571" on="0"/>
        <pt x="233" y="653" on="0"/>
        <pt x="266" y="676" on="1"/>
        <pt x="334" y="722" on="0"/>
        <pt x="400" y="722" on="1"/>
        <pt x="430" y="722" on="0"/>
        <pt x="456" y="710" on="1"/>
        <pt x="507" y="689" on="0"/>
        <pt x="507" y="638" on="1"/>
        <pt x="507" y="568" on="0"/>
        <pt x="442" y="568" on="1"/>
        <pt x="430" y="568" on="0"/>
        <pt x="430" y="575" on="1"/>
        <pt x="430" y="579" on="0"/>
        <pt x="443" y="610" on="0"/>
        <pt x="443" y="636" on="0"/>
        <pt x="408" y="664" on="0"/>
        <pt x="382" y="664" on="1"/>
        <pt x="305" y="664" on="0"/>
        <pt x="223" y="555" on="0"/>
        <pt x="223" y="494" on="1"/>
        <pt x="223" y="476" on="0"/>
        <pt x="235" y="476" on="1"/>
        <pt x="240" y="476" on="0"/>
        <pt x="288" y="486" on="0"/>
        <pt x="307" y="486" on="1"/>
        <pt x="347" y="486" on="0"/>
        <pt x="391" y="446" on="0"/>
        <pt x="391" y="392" on="0"/>
        <pt x="349" y="354" on="0"/>
        <pt x="286" y="354" on="0"/>
        <pt x="244" y="376" on="0"/>
        <pt x="223" y="401" on="0"/>
        <pt x="206" y="423" on="0"/>
        <pt x="193" y="423" on="0"/>
        <pt x="156" y="384" on="0"/>
        <pt x="121" y="307" on="0"/>
        <pt x="121" y="209" on="0"/>
        <pt x="172" y="105" on="0"/>
        <pt x="284" y="31" on="0"/>
        <pt x="454" y="31" on="0"/>
        <pt x="599" y="155" on="0"/>
        <pt x="599" y="234" on="1"/>
        <pt x="599" y="276" on="0"/>
        <pt x="551" y="332" on="0"/>
        <pt x="474" y="332" on="0"/>
        <pt x="424" y="289" on="0"/>
        <pt x="424" y="226" on="0"/>
        <pt x="452" y="199" on="0"/>
        <pt x="480" y="199" on="0"/>
        <pt x="501" y="221" on="0"/>
        <pt x="513" y="221" on="0"/>
        <pt x="513" y="199" on="0"/>
        <pt x="480" y="173" on="0"/>
        <pt x="456" y="173" on="1"/>
        <pt x="417" y="173" on="0"/>
        <pt x="373" y="237" on="0"/>
        <pt x="373" y="293" on="0"/>
        <pt x="393" y="337" on="0"/>
        <pt x="421" y="366" on="0"/>
        <pt x="476" y="397" on="0"/>
        <pt x="517" y="415" on="0"/>
        <pt x="595" y="447" on="0"/>
        <pt x="617" y="457" on="1"/>
        <pt x="696" y="492" on="0"/>
        <pt x="774" y="568" on="0"/>
        <pt x="774" y="620" on="1"/>
        <pt x="774" y="646" on="0"/>
        <pt x="731" y="692" on="0"/>
        <pt x="704" y="692" on="1"/>
        <pt x="641" y="692" on="0"/>
        <pt x="641" y="640" on="1"/>
        <pt x="641" y="623" on="0"/>
        <pt x="688" y="603" on="0"/>
        <pt x="688" y="595" on="1"/>
        <pt x="688" y="554" on="0"/>
        <pt x="641" y="554" on="1"/>
        <pt x="619" y="554" on="0"/>
        <pt x="594" y="590" on="0"/>
        <pt x="594" y="617" on="1"/>
        <pt x="594" y="660" on="0"/>
        <pt x="666" y="719" on="0"/>
        <pt x="751" y="719" on="0"/>
        <pt x="815" y="651" on="0"/>
        <pt x="815" y="559" on="0"/>
        <pt x="769" y="480" on="0"/>
        <pt x="704" y="432" on="0"/>
        <pt x="639" y="396" on="0"/>
        <pt x="593" y="374" on="0"/>
        <pt x="593" y="366" on="0"/>
        <pt x="612" y="353" on="0"/>
        <pt x="634" y="335" on="0"/>
        <pt x="653" y="293" on="0"/>
        <pt x="653" y="264" on="1"/>
        <pt x="653" y="168" on="0"/>
        <pt x="527" y="43" on="0"/>
        <pt x="402" y="-10" on="0"/>
        <pt x="315" y="-10" on="1"/>
        <pt x="194" y="-10" on="0"/>
        <pt x="39" y="109" on="0"/>
      </contour>
      <contour>
        <pt x="272" y="457" on="0"/>
        <pt x="246" y="440" on="0"/>
        <pt x="246" y="418" on="0"/>
        <pt x="280" y="385" on="0"/>
        <pt x="316" y="385" on="0"/>
        <pt x="339" y="405" on="0"/>
        <pt x="339" y="439" on="0"/>
        <pt x="305" y="457" on="0"/>
      </contour>
    </TTGlyph>
    <TTGlyph name="aogonek" xMin="32" yMin="-195" xMax="499" yMax="463">
      <contour>
        <pt x="32" y="54" on="0"/>
        <pt x="32" y="174" on="0"/>
        <pt x="105" y="318" on="0"/>
        <pt x="231" y="425" on="0"/>
        <pt x="296" y="425" on="1"/>
        <pt x="311" y="425" on="0"/>
        <pt x="364" y="414" on="0"/>
        <pt x="391" y="414" on="0"/>
        <pt x="423" y="463" on="0"/>
        <pt x="444" y="463" on="0"/>
        <pt x="444" y="439" on="0"/>
        <pt x="427" y="391" on="0"/>
        <pt x="424" y="379" on="1"/>
        <pt x="383" y="171" on="0"/>
        <pt x="383" y="102" on="0"/>
        <pt x="403" y="64" on="0"/>
        <pt x="435" y="64" on="0"/>
        <pt x="482" y="129" on="0"/>
        <pt x="499" y="129" on="0"/>
        <pt x="499" y="118" on="1"/>
        <pt x="499" y="76" on="0"/>
        <pt x="427" y="15" on="1"/>
        <pt x="416" y="6" on="0"/>
        <pt x="346" y="-31" on="0"/>
        <pt x="302" y="-70" on="0"/>
        <pt x="302" y="-121" on="0"/>
        <pt x="332" y="-157" on="0"/>
        <pt x="367" y="-157" on="0"/>
        <pt x="399" y="-131" on="0"/>
        <pt x="406" y="-131" on="0"/>
        <pt x="406" y="-152" on="0"/>
        <pt x="349" y="-195" on="0"/>
        <pt x="318" y="-195" on="1"/>
        <pt x="244" y="-195" on="0"/>
        <pt x="244" y="-129" on="1"/>
        <pt x="244" y="-102" on="0"/>
        <pt x="275" y="-55" on="0"/>
        <pt x="294" y="-42" on="1"/>
        <pt x="343" y="-7" on="0"/>
        <pt x="343" y="9" on="1"/>
        <pt x="343" y="18" on="0"/>
        <pt x="333" y="41" on="0"/>
        <pt x="330" y="59" on="1"/>
        <pt x="322" y="105" on="1"/>
        <pt x="321" y="105" on="0"/>
        <pt x="300" y="80" on="0"/>
        <pt x="265" y="45" on="0"/>
        <pt x="244" y="28" on="1"/>
        <pt x="191" y="-15" on="0"/>
        <pt x="75" y="-15" on="0"/>
      </contour>
      <contour>
        <pt x="135" y="263" on="0"/>
        <pt x="102" y="174" on="0"/>
        <pt x="102" y="84" on="0"/>
        <pt x="147" y="40" on="0"/>
        <pt x="226" y="40" on="0"/>
        <pt x="295" y="103" on="0"/>
        <pt x="319" y="151" on="0"/>
        <pt x="332" y="210" on="1"/>
        <pt x="359" y="340" on="0"/>
        <pt x="359" y="383" on="0"/>
        <pt x="315" y="400" on="0"/>
        <pt x="261" y="400" on="0"/>
        <pt x="191" y="356" on="0"/>
      </contour>
    </TTGlyph>
    <TTGlyph name="aring" xMin="32" yMin="-15" xMax="499" yMax="666">
      <component glyphName="uni030A" x="509" y="0" flags="0x1004"/>
      <component glyphName="a" x="0" y="0" flags="0x1004"/>
    </TTGlyph>
    <TTGlyph name="asciicircum" xMin="29" yMin="321" xMax="293" yMax="521">
      <contour>
        <pt x="29" y="331" on="1"/>
        <pt x="29" y="336" on="0"/>
        <pt x="56" y="380" on="0"/>
        <pt x="120" y="488" on="0"/>
        <pt x="146" y="521" on="0"/>
        <pt x="179" y="521" on="0"/>
        <pt x="204" y="488" on="0"/>
        <pt x="267" y="381" on="0"/>
        <pt x="293" y="339" on="0"/>
        <pt x="293" y="329" on="1"/>
        <pt x="293" y="321" on="0"/>
        <pt x="275" y="321" on="1"/>
        <pt x="260" y="321" on="1"/>
        <pt x="249" y="321" on="0"/>
        <pt x="245" y="327" on="1"/>
        <pt x="239" y="336" on="1"/>
        <pt x="233" y="345" on="0"/>
        <pt x="230" y="354" on="1"/>
        <pt x="219" y="372" on="0"/>
        <pt x="200" y="411" on="0"/>
        <pt x="189" y="430" on="0"/>
        <pt x="183" y="442" on="0"/>
        <pt x="176" y="454" on="0"/>
        <pt x="171" y="460" on="0"/>
        <pt x="167" y="466" on="0"/>
        <pt x="164" y="468" on="0"/>
        <pt x="160" y="468" on="0"/>
        <pt x="155" y="464" on="0"/>
        <pt x="149" y="455" on="0"/>
        <pt x="142" y="444" on="0"/>
        <pt x="131" y="423" on="0"/>
        <pt x="120" y="403" on="0"/>
        <pt x="102" y="369" on="0"/>
        <pt x="93" y="352" on="0"/>
        <pt x="87" y="341" on="0"/>
        <pt x="85" y="337" on="0"/>
        <pt x="79" y="328" on="0"/>
        <pt x="76" y="326" on="1"/>
        <pt x="69" y="322" on="0"/>
        <pt x="63" y="322" on="1"/>
        <pt x="49" y="322" on="1"/>
        <pt x="29" y="322" on="0"/>
      </contour>
    </TTGlyph>
    <TTGlyph name="asciitilde" xMin="29" yMin="156" xMax="351" yMax="269">
      <contour>
        <pt x="29" y="172" on="1"/>
        <pt x="29" y="176" on="0"/>
        <pt x="57" y="219" on="0"/>
        <pt x="109" y="265" on="0"/>
        <pt x="157" y="265" on="0"/>
        <pt x="228" y="220" on="0"/>
        <pt x="272" y="220" on="0"/>
        <pt x="307" y="244" on="0"/>
        <pt x="327" y="269" on="0"/>
        <pt x="331" y="269" on="1"/>
        <pt x="351" y="269" on="0"/>
        <pt x="351" y="254" on="1"/>
        <pt x="351" y="249" on="0"/>
        <pt x="321" y="208" on="0"/>
        <pt x="263" y="164" on="0"/>
        <pt x="206" y="164" on="0"/>
        <pt x="141" y="210" on="0"/>
        <pt x="101" y="210" on="0"/>
        <pt x="69" y="183" on="0"/>
        <pt x="52" y="156" on="0"/>
        <pt x="49" y="156" on="1"/>
        <pt x="29" y="156" on="0"/>
      </contour>
    </TTGlyph>
    <TTGlyph name="asterisk" xMin="59" yMin="282" xMax="373" yMax="614">
      <contour>
        <pt x="184" y="306" on="1"/>
        <pt x="187" y="378" on="1"/>
        <pt x="187" y="401" on="0"/>
        <pt x="178" y="401" on="0"/>
        <pt x="97" y="348" on="0"/>
        <pt x="78" y="348" on="0"/>
        <pt x="59" y="374" on="0"/>
        <pt x="59" y="383" on="1"/>
        <pt x="59" y="396" on="0"/>
        <pt x="167" y="444" on="0"/>
        <pt x="167" y="451" on="0"/>
        <pt x="59" y="501" on="0"/>
        <pt x="59" y="513" on="1"/>
        <pt x="59" y="522" on="0"/>
        <pt x="78" y="548" on="0"/>
        <pt x="100" y="548" on="0"/>
        <pt x="178" y="495" on="0"/>
        <pt x="187" y="495" on="0"/>
        <pt x="187" y="514" on="1"/>
        <pt x="184" y="593" on="1"/>
        <pt x="184" y="606" on="0"/>
        <pt x="194" y="614" on="0"/>
        <pt x="234" y="614" on="0"/>
        <pt x="247" y="602" on="0"/>
        <pt x="247" y="578" on="1"/>
        <pt x="243" y="513" on="1"/>
        <pt x="243" y="495" on="0"/>
        <pt x="253" y="495" on="0"/>
        <pt x="334" y="549" on="0"/>
        <pt x="352" y="549" on="0"/>
        <pt x="373" y="524" on="0"/>
        <pt x="373" y="502" on="0"/>
        <pt x="264" y="452" on="0"/>
        <pt x="264" y="443" on="0"/>
        <pt x="373" y="395" on="0"/>
        <pt x="373" y="373" on="0"/>
        <pt x="353" y="348" on="0"/>
        <pt x="330" y="348" on="0"/>
        <pt x="252" y="401" on="0"/>
        <pt x="244" y="401" on="0"/>
        <pt x="244" y="382" on="1"/>
        <pt x="247" y="324" on="1"/>
        <pt x="247" y="295" on="0"/>
        <pt x="236" y="282" on="0"/>
        <pt x="184" y="282" on="0"/>
      </contour>
    </TTGlyph>
    <TTGlyph name="at" xMin="44" yMin="-64" xMax="777" yMax="697">
      <contour>
        <pt x="44" y="286" on="1"/>
        <pt x="44" y="382" on="0"/>
        <pt x="109" y="534" on="0"/>
        <pt x="204" y="621" on="0"/>
        <pt x="264" y="650" on="1"/>
        <pt x="364" y="697" on="0"/>
        <pt x="463" y="697" on="1"/>
        <pt x="602" y="697" on="0"/>
        <pt x="777" y="520" on="0"/>
        <pt x="777" y="392" on="1"/>
        <pt x="777" y="283" on="0"/>
        <pt x="640" y="129" on="0"/>
        <pt x="549" y="129" on="1"/>
        <pt x="517" y="129" on="0"/>
        <pt x="479" y="154" on="0"/>
        <pt x="471" y="184" on="0"/>
        <pt x="467" y="209" on="0"/>
        <pt x="463" y="209" on="0"/>
        <pt x="436" y="178" on="0"/>
        <pt x="400" y="142" on="0"/>
        <pt x="341" y="111" on="0"/>
        <pt x="263" y="111" on="0"/>
        <pt x="217" y="164" on="0"/>
        <pt x="217" y="265" on="0"/>
        <pt x="280" y="395" on="0"/>
        <pt x="390" y="488" on="0"/>
        <pt x="448" y="488" on="1"/>
        <pt x="467" y="488" on="0"/>
        <pt x="518" y="479" on="0"/>
        <pt x="520" y="479" on="1"/>
        <pt x="527" y="479" on="0"/>
        <pt x="551" y="519" on="0"/>
        <pt x="562" y="519" on="1"/>
        <pt x="570" y="519" on="0"/>
        <pt x="570" y="496" on="0"/>
        <pt x="558" y="448" on="1"/>
        <pt x="521" y="298" on="0"/>
        <pt x="521" y="246" on="1"/>
        <pt x="521" y="233" on="1"/>
        <pt x="521" y="174" on="0"/>
        <pt x="562" y="174" on="1"/>
        <pt x="638" y="174" on="0"/>
        <pt x="736" y="289" on="0"/>
        <pt x="736" y="520" on="0"/>
        <pt x="580" y="659" on="0"/>
        <pt x="464" y="659" on="1"/>
        <pt x="313" y="659" on="0"/>
        <pt x="104" y="458" on="0"/>
        <pt x="104" y="297" on="1"/>
        <pt x="104" y="155" on="0"/>
        <pt x="281" y="-27" on="0"/>
        <pt x="423" y="-27" on="1"/>
        <pt x="486" y="-27" on="0"/>
        <pt x="588" y="6" on="0"/>
        <pt x="640" y="38" on="0"/>
        <pt x="641" y="38" on="1"/>
        <pt x="652" y="38" on="0"/>
        <pt x="652" y="26" on="1"/>
        <pt x="652" y="12" on="0"/>
        <pt x="608" y="-14" on="1"/>
        <pt x="519" y="-64" on="0"/>
        <pt x="405" y="-64" on="1"/>
        <pt x="245" y="-64" on="0"/>
        <pt x="44" y="122" on="0"/>
      </contour>
      <contour>
        <pt x="284" y="227" on="1"/>
        <pt x="284" y="197" on="0"/>
        <pt x="319" y="167" on="0"/>
        <pt x="374" y="167" on="0"/>
        <pt x="428" y="201" on="0"/>
        <pt x="450" y="234" on="0"/>
        <pt x="502" y="432" on="0"/>
        <pt x="502" y="442" on="0"/>
        <pt x="458" y="456" on="0"/>
        <pt x="440" y="456" on="1"/>
        <pt x="391" y="456" on="0"/>
        <pt x="284" y="327" on="0"/>
      </contour>
    </TTGlyph>
    <TTGlyph name="atilde" xMin="32" yMin="-15" xMax="499" yMax="641">
      <component glyphName="tildecomb" x="509" y="0" flags="0x1004"/>
      <component glyphName="a" x="0" y="0" flags="0x1004"/>
    </TTGlyph>
    <TTGlyph name="b" xMin="44" yMin="-13" xMax="439" yMax="757">
      <contour>
        <pt x="116" y="709" on="1"/>
        <pt x="75" y="707" on="1"/>
        <pt x="63" y="707" on="0"/>
        <pt x="56" y="714" on="0"/>
        <pt x="56" y="725" on="0"/>
        <pt x="59" y="731" on="0"/>
        <pt x="67" y="736" on="0"/>
        <pt x="74" y="739" on="0"/>
        <pt x="89" y="741" on="0"/>
        <pt x="101" y="743" on="0"/>
        <pt x="123" y="745" on="0"/>
        <pt x="147" y="748" on="0"/>
        <pt x="162" y="751" on="1"/>
        <pt x="190" y="757" on="0"/>
        <pt x="193" y="757" on="1"/>
        <pt x="212" y="757" on="0"/>
        <pt x="212" y="739" on="1"/>
        <pt x="212" y="737" on="0"/>
        <pt x="148" y="394" on="0"/>
        <pt x="148" y="336" on="0"/>
        <pt x="156" y="336" on="0"/>
        <pt x="198" y="382" on="0"/>
        <pt x="278" y="429" on="0"/>
        <pt x="382" y="429" on="0"/>
        <pt x="439" y="355" on="0"/>
        <pt x="439" y="302" on="1"/>
        <pt x="439" y="193" on="0"/>
        <pt x="276" y="-13" on="0"/>
        <pt x="166" y="-13" on="1"/>
        <pt x="117" y="-13" on="0"/>
        <pt x="44" y="30" on="0"/>
        <pt x="44" y="71" on="1"/>
        <pt x="44" y="119" on="0"/>
        <pt x="53" y="166" on="1"/>
        <pt x="79" y="303" on="0"/>
        <pt x="118" y="554" on="0"/>
        <pt x="141" y="667" on="0"/>
        <pt x="141" y="697" on="1"/>
        <pt x="141" y="709" on="0"/>
      </contour>
      <contour>
        <pt x="110" y="83" on="1"/>
        <pt x="110" y="15" on="0"/>
        <pt x="187" y="15" on="1"/>
        <pt x="253" y="15" on="0"/>
        <pt x="369" y="186" on="0"/>
        <pt x="369" y="274" on="1"/>
        <pt x="369" y="316" on="0"/>
        <pt x="312" y="376" on="0"/>
        <pt x="271" y="376" on="1"/>
        <pt x="254" y="376" on="0"/>
        <pt x="217" y="366" on="0"/>
        <pt x="165" y="319" on="0"/>
        <pt x="137" y="244" on="0"/>
        <pt x="127" y="196" on="1"/>
        <pt x="110" y="116" on="0"/>
      </contour>
    </TTGlyph>
    <TTGlyph name="backslash" xMin="20" yMin="-183" xMax="396" yMax="735">
      <contour>
        <pt x="20" y="723" on="1"/>
        <pt x="20" y="735" on="0"/>
        <pt x="55" y="735" on="0"/>
        <pt x="66" y="728" on="0"/>
        <pt x="70" y="717" on="1"/>
        <pt x="377" y="-113" on="1"/>
        <pt x="380" y="-121" on="0"/>
        <pt x="385" y="-134" on="1"/>
        <pt x="396" y="-163" on="0"/>
        <pt x="396" y="-167" on="1"/>
        <pt x="396" y="-183" on="0"/>
        <pt x="363" y="-183" on="1"/>
        <pt x="355" y="-183" on="0"/>
        <pt x="346" y="-172" on="0"/>
        <pt x="338" y="-152" on="1"/>
        <pt x="34" y="679" on="1"/>
        <pt x="20" y="715" on="0"/>
      </contour>
    </TTGlyph>
    <TTGlyph name="bar" xMin="78" yMin="-209" xMax="131" yMax="762">
      <contour>
        <pt x="127" y="-137" on="1"/>
        <pt x="128" y="-163" on="1"/>
        <pt x="128" y="-171" on="1"/>
        <pt x="128" y="-209" on="0"/>
        <pt x="111" y="-209" on="1"/>
        <pt x="89" y="-209" on="0"/>
        <pt x="78" y="-189" on="0"/>
        <pt x="78" y="-148" on="1"/>
        <pt x="78" y="-87" on="1"/>
        <pt x="84" y="570" on="1"/>
        <pt x="84" y="652" on="1"/>
        <pt x="83" y="738" on="1"/>
        <pt x="83" y="751" on="0"/>
        <pt x="94" y="762" on="0"/>
        <pt x="121" y="762" on="0"/>
        <pt x="130" y="751" on="0"/>
        <pt x="130" y="737" on="1"/>
        <pt x="129" y="714" on="1"/>
        <pt x="131" y="559" on="1"/>
        <pt x="126" y="10" on="1"/>
        <pt x="126" y="-87" on="0"/>
      </contour>
    </TTGlyph>
    <TTGlyph name="braceleft" xMin="52" yMin="-186" xMax="303" yMax="752">
      <contour>
        <pt x="167" y="752" on="1"/>
        <pt x="224" y="744" on="1"/>
        <pt x="243" y="744" on="0"/>
        <pt x="281" y="750" on="0"/>
        <pt x="303" y="750" on="0"/>
        <pt x="303" y="741" on="1"/>
        <pt x="303" y="718" on="0"/>
        <pt x="231" y="685" on="0"/>
        <pt x="204" y="685" on="1"/>
        <pt x="196" y="685" on="0"/>
        <pt x="196" y="676" on="1"/>
        <pt x="153" y="293" on="0"/>
        <pt x="114" y="-103" on="0"/>
        <pt x="114" y="-110" on="0"/>
        <pt x="124" y="-112" on="1"/>
        <pt x="166" y="-123" on="0"/>
        <pt x="180" y="-131" on="1"/>
        <pt x="208" y="-150" on="0"/>
        <pt x="208" y="-181" on="0"/>
        <pt x="200" y="-181" on="1"/>
        <pt x="199" y="-181" on="0"/>
        <pt x="190" y="-178" on="1"/>
        <pt x="165" y="-172" on="0"/>
        <pt x="105" y="-172" on="0"/>
        <pt x="68" y="-186" on="0"/>
        <pt x="62" y="-186" on="1"/>
        <pt x="52" y="-186" on="0"/>
        <pt x="52" y="-175" on="1"/>
        <pt x="95" y="208" on="1"/>
        <pt x="95" y="225" on="0"/>
        <pt x="68" y="252" on="0"/>
        <pt x="68" y="281" on="0"/>
        <pt x="107" y="305" on="0"/>
        <pt x="108" y="321" on="1"/>
        <pt x="115" y="389" on="0"/>
        <pt x="141" y="667" on="0"/>
        <pt x="148" y="734" on="1"/>
        <pt x="149" y="752" on="0"/>
      </contour>
    </TTGlyph>
    <TTGlyph name="braceleft.uppercase" xMin="59" yMin="-132" xMax="310" yMax="806">
      <contour>
        <pt x="231" y="798" on="1"/>
        <pt x="294" y="803" on="1"/>
        <pt x="310" y="803" on="0"/>
        <pt x="310" y="794" on="1"/>
        <pt x="310" y="771" on="0"/>
        <pt x="238" y="738" on="0"/>
        <pt x="211" y="738" on="1"/>
        <pt x="204" y="738" on="0"/>
        <pt x="204" y="729" on="1"/>
        <pt x="162" y="353" on="0"/>
        <pt x="122" y="-49" on="0"/>
        <pt x="122" y="-56" on="0"/>
        <pt x="132" y="-58" on="1"/>
        <pt x="175" y="-69" on="0"/>
        <pt x="188" y="-77" on="1"/>
        <pt x="215" y="-95" on="0"/>
        <pt x="215" y="-116" on="1"/>
        <pt x="215" y="-127" on="0"/>
        <pt x="207" y="-127" on="1"/>
        <pt x="206" y="-127" on="0"/>
        <pt x="196" y="-124" on="1"/>
        <pt x="172" y="-118" on="0"/>
        <pt x="112" y="-118" on="0"/>
        <pt x="75" y="-132" on="0"/>
        <pt x="69" y="-132" on="1"/>
        <pt x="59" y="-132" on="0"/>
        <pt x="59" y="-122" on="1"/>
        <pt x="102" y="262" on="1"/>
        <pt x="102" y="279" on="0"/>
        <pt x="76" y="305" on="0"/>
        <pt x="76" y="334" on="0"/>
        <pt x="115" y="359" on="0"/>
        <pt x="116" y="375" on="1"/>
        <pt x="123" y="443" on="0"/>
        <pt x="149" y="721" on="0"/>
        <pt x="156" y="788" on="1"/>
        <pt x="157" y="806" on="0"/>
        <pt x="174" y="806" on="1"/>
      </contour>
    </TTGlyph>
    <TTGlyph name="braceright" xMin="-35" yMin="-186" xMax="215" yMax="752">
      <contour>
        <pt x="215" y="737" on="1"/>
        <pt x="168" y="317" on="1"/>
        <pt x="168" y="303" on="0"/>
        <pt x="197" y="284" on="0"/>
        <pt x="197" y="255" on="0"/>
        <pt x="160" y="224" on="0"/>
        <pt x="158" y="202" on="1"/>
        <pt x="142" y="58" on="0"/>
        <pt x="123" y="-160" on="0"/>
        <pt x="118" y="-186" on="0"/>
        <pt x="108" y="-186" on="1"/>
        <pt x="102" y="-186" on="0"/>
        <pt x="69" y="-172" on="0"/>
        <pt x="25" y="-172" on="0"/>
        <pt x="-7" y="-176" on="0"/>
        <pt x="-27" y="-181" on="0"/>
        <pt x="-28" y="-181" on="1"/>
        <pt x="-35" y="-181" on="0"/>
        <pt x="-35" y="-174" on="1"/>
        <pt x="-35" y="-151" on="0"/>
        <pt x="2" y="-131" on="1"/>
        <pt x="15" y="-124" on="0"/>
        <pt x="34" y="-120" on="1"/>
        <pt x="73" y="-110" on="0"/>
        <pt x="73" y="-105" on="1"/>
        <pt x="91" y="60" on="0"/>
        <pt x="103" y="157" on="0"/>
        <pt x="115" y="277" on="1"/>
        <pt x="155" y="677" on="1"/>
        <pt x="155" y="685" on="0"/>
        <pt x="149" y="685" on="1"/>
        <pt x="124" y="685" on="0"/>
        <pt x="62" y="714" on="0"/>
        <pt x="62" y="737" on="1"/>
        <pt x="62" y="750" on="0"/>
        <pt x="80" y="750" on="1"/>
        <pt x="86" y="750" on="0"/>
        <pt x="123" y="744" on="0"/>
        <pt x="142" y="744" on="1"/>
        <pt x="201" y="752" on="1"/>
        <pt x="215" y="752" on="0"/>
      </contour>
    </TTGlyph>
    <TTGlyph name="braceright.uppercase" xMin="-23" yMin="-132" xMax="227" yMax="806">
      <contour>
        <pt x="227" y="791" on="1"/>
        <pt x="180" y="371" on="1"/>
        <pt x="180" y="357" on="0"/>
        <pt x="208" y="338" on="0"/>
        <pt x="208" y="309" on="0"/>
        <pt x="171" y="277" on="0"/>
        <pt x="169" y="255" on="1"/>
        <pt x="153" y="105" on="0"/>
        <pt x="135" y="-108" on="0"/>
        <pt x="129" y="-132" on="0"/>
        <pt x="120" y="-132" on="1"/>
        <pt x="114" y="-132" on="0"/>
        <pt x="80" y="-118" on="0"/>
        <pt x="36" y="-118" on="0"/>
        <pt x="4" y="-122" on="0"/>
        <pt x="-16" y="-127" on="0"/>
        <pt x="-17" y="-127" on="1"/>
        <pt x="-23" y="-127" on="0"/>
        <pt x="-23" y="-120" on="1"/>
        <pt x="-23" y="-96" on="0"/>
        <pt x="13" y="-77" on="1"/>
        <pt x="27" y="-70" on="0"/>
        <pt x="84" y="-56" on="0"/>
        <pt x="84" y="-52" on="1"/>
        <pt x="106" y="156" on="0"/>
        <pt x="111" y="182" on="1"/>
        <pt x="117" y="219" on="0"/>
        <pt x="167" y="730" on="1"/>
        <pt x="167" y="738" on="0"/>
        <pt x="161" y="738" on="1"/>
        <pt x="137" y="738" on="0"/>
        <pt x="73" y="768" on="0"/>
        <pt x="73" y="791" on="1"/>
        <pt x="73" y="803" on="0"/>
        <pt x="91" y="803" on="1"/>
        <pt x="153" y="798" on="1"/>
        <pt x="212" y="806" on="1"/>
        <pt x="227" y="806" on="0"/>
      </contour>
    </TTGlyph>
    <TTGlyph name="bracketleft" xMin="55" yMin="-204" xMax="317" yMax="764">
      <contour>
        <pt x="113" y="-159" on="1"/>
        <pt x="197" y="-158" on="1"/>
        <pt x="217" y="-158" on="0"/>
        <pt x="217" y="-174" on="1"/>
        <pt x="217" y="-194" on="0"/>
        <pt x="194" y="-204" on="0"/>
        <pt x="165" y="-204" on="1"/>
        <pt x="82" y="-204" on="1"/>
        <pt x="66" y="-204" on="0"/>
        <pt x="55" y="-195" on="0"/>
        <pt x="55" y="-179" on="1"/>
        <pt x="58" y="-143" on="1"/>
        <pt x="64" y="-82" on="1"/>
        <pt x="72" y="-10" on="0"/>
        <pt x="127" y="464" on="0"/>
        <pt x="143" y="614" on="0"/>
        <pt x="150" y="691" on="0"/>
        <pt x="153" y="733" on="0"/>
        <pt x="155" y="754" on="0"/>
        <pt x="175" y="763" on="0"/>
        <pt x="203" y="763" on="1"/>
        <pt x="243" y="763" on="1"/>
        <pt x="298" y="764" on="1"/>
        <pt x="304" y="764" on="1"/>
        <pt x="317" y="764" on="0"/>
        <pt x="317" y="723" on="0"/>
        <pt x="304" y="723" on="1"/>
        <pt x="218" y="722" on="1"/>
        <pt x="203" y="722" on="1"/>
        <pt x="196" y="722" on="0"/>
        <pt x="185" y="606" on="0"/>
        <pt x="174" y="505" on="0"/>
        <pt x="154" y="324" on="1"/>
        <pt x="104" y="-115" on="0"/>
        <pt x="104" y="-159" on="0"/>
      </contour>
    </TTGlyph>
    <TTGlyph name="bracketleft.sub" xMin="34" yMin="-477" xMax="199" yMax="111">
      <component glyphName="bracketleft.sup" x="0" y="-707" flags="0x1004"/>
    </TTGlyph>
    <TTGlyph name="bracketleft.sup" xMin="34" yMin="230" xMax="199" yMax="818">
      <contour>
        <pt x="76" y="265" on="1"/>
        <pt x="126" y="266" on="1"/>
        <pt x="139" y="266" on="0"/>
        <pt x="139" y="238" on="0"/>
        <pt x="124" y="230" on="0"/>
        <pt x="105" y="230" on="1"/>
        <pt x="51" y="230" on="1"/>
        <pt x="41" y="230" on="0"/>
        <pt x="34" y="236" on="0"/>
        <pt x="34" y="250" on="0"/>
        <pt x="36" y="268" on="1"/>
        <pt x="40" y="305" on="1"/>
        <pt x="45" y="355" on="0"/>
        <pt x="62" y="500" on="1"/>
        <pt x="86" y="697" on="0"/>
        <pt x="95" y="804" on="0"/>
        <pt x="104" y="818" on="0"/>
        <pt x="127" y="818" on="1"/>
        <pt x="190" y="818" on="1"/>
        <pt x="199" y="818" on="0"/>
        <pt x="199" y="787" on="0"/>
        <pt x="190" y="787" on="1"/>
        <pt x="130" y="787" on="1"/>
        <pt x="126" y="787" on="0"/>
        <pt x="120" y="723" on="0"/>
        <pt x="114" y="659" on="0"/>
        <pt x="101" y="550" on="1"/>
        <pt x="71" y="300" on="0"/>
        <pt x="71" y="265" on="0"/>
      </contour>
    </TTGlyph>
    <TTGlyph name="bracketleft.uppercase" xMin="63" yMin="-150" xMax="326" yMax="817">
      <contour>
        <pt x="121" y="-105" on="1"/>
        <pt x="205" y="-104" on="1"/>
        <pt x="226" y="-104" on="0"/>
        <pt x="226" y="-120" on="1"/>
        <pt x="226" y="-139" on="0"/>
        <pt x="203" y="-150" on="0"/>
        <pt x="173" y="-150" on="1"/>
        <pt x="90" y="-150" on="1"/>
        <pt x="74" y="-150" on="0"/>
        <pt x="63" y="-141" on="0"/>
        <pt x="63" y="-125" on="1"/>
        <pt x="66" y="-89" on="1"/>
        <pt x="72" y="-28" on="1"/>
        <pt x="80" y="44" on="0"/>
        <pt x="135" y="518" on="0"/>
        <pt x="151" y="668" on="0"/>
        <pt x="154" y="706" on="1"/>
        <pt x="161" y="782" on="0"/>
        <pt x="164" y="808" on="0"/>
        <pt x="184" y="817" on="0"/>
        <pt x="211" y="817" on="1"/>
        <pt x="312" y="817" on="1"/>
        <pt x="326" y="817" on="0"/>
        <pt x="326" y="799" on="1"/>
        <pt x="326" y="790" on="0"/>
        <pt x="318" y="776" on="0"/>
        <pt x="312" y="776" on="1"/>
        <pt x="211" y="776" on="1"/>
        <pt x="204" y="776" on="0"/>
        <pt x="197" y="700" on="0"/>
        <pt x="195" y="678" on="0"/>
        <pt x="190" y="634" on="0"/>
        <pt x="182" y="557" on="0"/>
        <pt x="162" y="376" on="1"/>
        <pt x="112" y="-59" on="0"/>
        <pt x="112" y="-105" on="0"/>
      </contour>
    </TTGlyph>
    <TTGlyph name="bracketright" xMin="-51" yMin="-204" xMax="211" yMax="764">
      <contour>
        <pt x="211" y="738" on="1"/>
        <pt x="202" y="642" on="1"/>
        <pt x="194" y="570" on="0"/>
        <pt x="139" y="96" on="0"/>
        <pt x="123" y="-54" on="0"/>
        <pt x="116" y="-131" on="0"/>
        <pt x="113" y="-173" on="0"/>
        <pt x="112" y="-184" on="1"/>
        <pt x="110" y="-204" on="0"/>
        <pt x="63" y="-204" on="1"/>
        <pt x="-38" y="-204" on="1"/>
        <pt x="-51" y="-204" on="0"/>
        <pt x="-51" y="-163" on="0"/>
        <pt x="-38" y="-163" on="1"/>
        <pt x="63" y="-163" on="1"/>
        <pt x="70" y="-163" on="0"/>
        <pt x="81" y="-46" on="0"/>
        <pt x="92" y="55" on="0"/>
        <pt x="112" y="236" on="1"/>
        <pt x="162" y="675" on="0"/>
        <pt x="162" y="718" on="0"/>
        <pt x="153" y="718" on="1"/>
        <pt x="69" y="718" on="1"/>
        <pt x="49" y="718" on="0"/>
        <pt x="49" y="733" on="1"/>
        <pt x="49" y="762" on="0"/>
        <pt x="67" y="762" on="1"/>
        <pt x="161" y="764" on="0"/>
        <pt x="200" y="764" on="0"/>
        <pt x="211" y="754" on="0"/>
      </contour>
    </TTGlyph>
    <TTGlyph name="bracketright.sub" xMin="-27" yMin="-476" xMax="138" yMax="111">
      <component glyphName="bracketright.sup" x="0" y="-707" flags="0x1004"/>
    </TTGlyph>
    <TTGlyph name="bracketright.sup" xMin="-27" yMin="231" xMax="138" yMax="818">
      <contour>
        <pt x="-19" y="262" on="1"/>
        <pt x="39" y="263" on="1"/>
        <pt x="42" y="263" on="1"/>
        <pt x="46" y="263" on="0"/>
        <pt x="52" y="327" on="0"/>
        <pt x="58" y="390" on="0"/>
        <pt x="71" y="498" on="1"/>
        <pt x="101" y="749" on="0"/>
        <pt x="101" y="784" on="0"/>
        <pt x="96" y="784" on="1"/>
        <pt x="45" y="784" on="1"/>
        <pt x="33" y="784" on="0"/>
        <pt x="33" y="795" on="1"/>
        <pt x="33" y="817" on="0"/>
        <pt x="45" y="817" on="1"/>
        <pt x="75" y="818" on="0"/>
        <pt x="131" y="818" on="0"/>
        <pt x="138" y="812" on="0"/>
        <pt x="138" y="799" on="0"/>
        <pt x="136" y="781" on="1"/>
        <pt x="132" y="744" on="1"/>
        <pt x="127" y="694" on="0"/>
        <pt x="92" y="407" on="0"/>
        <pt x="83" y="322" on="0"/>
        <pt x="80" y="300" on="1"/>
        <pt x="76" y="259" on="0"/>
        <pt x="75" y="237" on="0"/>
        <pt x="62" y="231" on="0"/>
        <pt x="45" y="231" on="1"/>
        <pt x="-19" y="231" on="1"/>
        <pt x="-27" y="231" on="0"/>
        <pt x="-27" y="262" on="0"/>
      </contour>
    </TTGlyph>
</ttFont>
